<?xml version="1.0" encoding="utf-8" standalone="no"?>
<!DOCTYPE svg PUBLIC "-//W3C//DTD SVG 1.1//EN"
  "http://www.w3.org/Graphics/SVG/1.1/DTD/svg11.dtd">
<svg xmlns:xlink="http://www.w3.org/1999/xlink" width="639.896563pt" height="376.231859pt" viewBox="0 0 639.896563 376.231859" xmlns="http://www.w3.org/2000/svg" version="1.1">
 <metadata>
  <rdf:RDF xmlns:dc="http://purl.org/dc/elements/1.1/" xmlns:cc="http://creativecommons.org/ns#" xmlns:rdf="http://www.w3.org/1999/02/22-rdf-syntax-ns#">
   <cc:Work>
    <dc:type rdf:resource="http://purl.org/dc/dcmitype/StillImage"/>
    <dc:date>2025-06-05T17:18:10.414998</dc:date>
    <dc:format>image/svg+xml</dc:format>
    <dc:creator>
     <cc:Agent>
      <dc:title>Matplotlib v3.7.5, https://matplotlib.org/</dc:title>
     </cc:Agent>
    </dc:creator>
   </cc:Work>
  </rdf:RDF>
 </metadata>
 <defs>
  <style type="text/css">*{stroke-linejoin: round; stroke-linecap: butt}</style>
 </defs>
 <g id="figure_1">
  <g id="patch_1">
   <path d="M 0 376.231859 
L 639.896563 376.231859 
L 639.896563 0 
L 0 0 
z
" style="fill: #ffffff"/>
  </g>
  <g id="axes_1">
   <g id="patch_2">
    <path d="M 48.982813 311.191859 
L 589.752813 311.191859 
L 589.752813 8.534005 
L 48.982813 8.534005 
z
" style="fill: #ffffff"/>
   </g>
   <g id="matplotlib.axis_1">
    <g id="xtick_1">
     <g id="line2d_1">
      <defs>
       <path id="m579f189ab7" d="M 0 0 
L 0 3.5 
" style="stroke: #000000; stroke-width: 0.8"/>
      </defs>
      <g>
       <use xlink:href="#m579f189ab7" x="73.563267" y="311.191859" style="stroke: #000000; stroke-width: 0.8"/>
      </g>
     </g>
     <g id="text_1">
      <!-- 0 -->
      <g transform="translate(70.382017 325.790297) scale(0.1 -0.1)">
       <defs>
        <path id="DejaVuSans-Oblique-30" d="M 2444 4750 
Q 3078 4750 3414 4328 
Q 3750 3906 3750 3116 
Q 3750 2516 3592 1923 
Q 3434 1331 3150 863 
Q 2859 394 2467 151 
Q 2075 -91 1600 -91 
Q 988 -91 653 334 
Q 319 759 319 1544 
Q 319 2138 480 2733 
Q 641 3328 928 3794 
Q 1216 4263 1602 4506 
Q 1988 4750 2444 4750 
z
M 2406 4250 
Q 2169 4250 1955 4123 
Q 1741 3997 1569 3750 
Q 1281 3338 1111 2720 
Q 941 2103 941 1453 
Q 941 938 1123 673 
Q 1306 409 1663 409 
Q 1913 409 2125 536 
Q 2338 663 2509 909 
Q 2794 1319 2961 1936 
Q 3128 2553 3128 3206 
Q 3128 3722 2945 3986 
Q 2763 4250 2406 4250 
z
" transform="scale(0.015625)"/>
       </defs>
       <use xlink:href="#DejaVuSans-Oblique-30"/>
      </g>
     </g>
    </g>
    <g id="xtick_2">
     <g id="line2d_2">
      <g>
       <use xlink:href="#m579f189ab7" x="135.792266" y="311.191859" style="stroke: #000000; stroke-width: 0.8"/>
      </g>
     </g>
     <g id="text_2">
      <!-- 10 -->
      <g transform="translate(129.429766 325.790297) scale(0.1 -0.1)">
       <defs>
        <path id="DejaVuSans-Oblique-31" d="M 416 531 
L 1447 531 
L 2144 4122 
L 978 3897 
L 1088 4441 
L 2247 4666 
L 2881 4666 
L 2075 531 
L 3103 531 
L 3003 0 
L 313 0 
L 416 531 
z
" transform="scale(0.015625)"/>
       </defs>
       <use xlink:href="#DejaVuSans-Oblique-31"/>
       <use xlink:href="#DejaVuSans-Oblique-30" x="63.623047"/>
      </g>
     </g>
    </g>
    <g id="xtick_3">
     <g id="line2d_3">
      <g>
       <use xlink:href="#m579f189ab7" x="198.021265" y="311.191859" style="stroke: #000000; stroke-width: 0.8"/>
      </g>
     </g>
     <g id="text_3">
      <!-- 20 -->
      <g transform="translate(191.658765 325.790297) scale(0.1 -0.1)">
       <defs>
        <path id="DejaVuSans-Oblique-32" d="M 2950 2253 
L 934 525 
L 3163 525 
L 3053 0 
L 25 0 
L 128 531 
L 2234 2338 
Q 2656 2703 2832 2979 
Q 3009 3256 3009 3547 
Q 3009 3850 2796 4040 
Q 2584 4231 2241 4231 
Q 1944 4231 1581 4125 
Q 1219 4019 806 3816 
L 922 4441 
Q 1309 4594 1662 4672 
Q 2016 4750 2316 4750 
Q 2928 4750 3301 4425 
Q 3675 4100 3675 3572 
Q 3675 3216 3497 2892 
Q 3319 2569 2950 2253 
z
" transform="scale(0.015625)"/>
       </defs>
       <use xlink:href="#DejaVuSans-Oblique-32"/>
       <use xlink:href="#DejaVuSans-Oblique-30" x="63.623047"/>
      </g>
     </g>
    </g>
    <g id="xtick_4">
     <g id="line2d_4">
      <g>
       <use xlink:href="#m579f189ab7" x="260.250264" y="311.191859" style="stroke: #000000; stroke-width: 0.8"/>
      </g>
     </g>
     <g id="text_4">
      <!-- 30 -->
      <g transform="translate(253.887764 325.790297) scale(0.1 -0.1)">
       <defs>
        <path id="DejaVuSans-Oblique-33" d="M 1013 4550 
Q 1356 4650 1679 4700 
Q 2003 4750 2316 4750 
Q 2934 4750 3296 4475 
Q 3659 4200 3659 3738 
Q 3659 3284 3373 2959 
Q 3088 2634 2584 2516 
Q 2978 2403 3162 2165 
Q 3347 1928 3347 1538 
Q 3347 1163 3167 834 
Q 2988 506 2650 269 
Q 2394 88 2037 -1 
Q 1681 -91 1216 -91 
Q 922 -91 622 -33 
Q 322 25 13 141 
L 128 738 
Q 422 575 720 495 
Q 1019 416 1331 416 
Q 1947 416 2330 733 
Q 2713 1050 2713 1556 
Q 2713 1881 2469 2057 
Q 2225 2234 1772 2234 
L 1228 2234 
L 1325 2747 
L 1900 2747 
Q 2419 2747 2717 2984 
Q 3016 3222 3016 3628 
Q 3016 3922 2797 4083 
Q 2578 4244 2181 4244 
Q 1881 4244 1567 4180 
Q 1253 4116 916 3988 
L 1013 4550 
z
" transform="scale(0.015625)"/>
       </defs>
       <use xlink:href="#DejaVuSans-Oblique-33"/>
       <use xlink:href="#DejaVuSans-Oblique-30" x="63.623047"/>
      </g>
     </g>
    </g>
    <g id="xtick_5">
     <g id="line2d_5">
      <g>
       <use xlink:href="#m579f189ab7" x="322.479262" y="311.191859" style="stroke: #000000; stroke-width: 0.8"/>
      </g>
     </g>
     <g id="text_5">
      <!-- 40 -->
      <g transform="translate(316.116762 325.790297) scale(0.1 -0.1)">
       <defs>
        <path id="DejaVuSans-Oblique-34" d="M 2753 4666 
L 3547 4666 
L 2950 1625 
L 3616 1625 
L 3513 1100 
L 2847 1100 
L 2638 0 
L 2009 0 
L 2222 1100 
L 116 1100 
L 238 1709 
L 2753 4666 
z
M 2809 4116 
L 728 1625 
L 2322 1625 
L 2809 4116 
z
" transform="scale(0.015625)"/>
       </defs>
       <use xlink:href="#DejaVuSans-Oblique-34"/>
       <use xlink:href="#DejaVuSans-Oblique-30" x="63.623047"/>
      </g>
     </g>
    </g>
    <g id="xtick_6">
     <g id="line2d_6">
      <g>
       <use xlink:href="#m579f189ab7" x="384.708261" y="311.191859" style="stroke: #000000; stroke-width: 0.8"/>
      </g>
     </g>
     <g id="text_6">
      <!-- 50 -->
      <g transform="translate(378.345761 325.790297) scale(0.1 -0.1)">
       <defs>
        <path id="DejaVuSans-Oblique-35" d="M 3719 4666 
L 3622 4141 
L 1691 4141 
L 1466 2988 
Q 1609 3034 1757 3056 
Q 1906 3078 2059 3078 
Q 2706 3078 3081 2731 
Q 3456 2384 3456 1791 
Q 3456 1375 3264 994 
Q 3072 613 2719 325 
Q 2469 125 2108 17 
Q 1747 -91 1319 -91 
Q 1038 -91 744 -41 
Q 450 9 128 109 
L 244 697 
Q 531 556 820 486 
Q 1109 416 1403 416 
Q 2013 416 2411 781 
Q 2809 1147 2809 1697 
Q 2809 2103 2548 2328 
Q 2288 2553 1819 2553 
Q 1572 2553 1305 2495 
Q 1038 2438 756 2322 
L 1209 4666 
L 3719 4666 
z
" transform="scale(0.015625)"/>
       </defs>
       <use xlink:href="#DejaVuSans-Oblique-35"/>
       <use xlink:href="#DejaVuSans-Oblique-30" x="63.623047"/>
      </g>
     </g>
    </g>
    <g id="xtick_7">
     <g id="line2d_7">
      <g>
       <use xlink:href="#m579f189ab7" x="446.93726" y="311.191859" style="stroke: #000000; stroke-width: 0.8"/>
      </g>
     </g>
     <g id="text_7">
      <!-- 60 -->
      <g transform="translate(440.57476 325.790297) scale(0.1 -0.1)">
       <defs>
        <path id="DejaVuSans-Oblique-36" d="M 2938 1728 
Q 2938 2125 2734 2354 
Q 2531 2584 2181 2584 
Q 1697 2584 1367 2211 
Q 1038 1838 1038 1288 
Q 1038 875 1239 642 
Q 1441 409 1797 409 
Q 2284 409 2611 792 
Q 2938 1175 2938 1728 
z
M 3788 4556 
L 3681 3981 
Q 3500 4100 3265 4162 
Q 3031 4225 2766 4225 
Q 2119 4225 1726 3819 
Q 1334 3413 1141 2547 
Q 1369 2813 1670 2948 
Q 1972 3084 2322 3084 
Q 2894 3084 3233 2754 
Q 3572 2425 3572 1869 
Q 3572 1413 3405 1020 
Q 3238 628 2919 331 
Q 2700 128 2409 18 
Q 2119 -91 1791 -91 
Q 1147 -91 775 318 
Q 403 728 403 1441 
Q 403 2103 573 2717 
Q 744 3331 1050 3781 
Q 1372 4256 1830 4503 
Q 2288 4750 2841 4750 
Q 3084 4750 3321 4701 
Q 3559 4653 3788 4556 
z
" transform="scale(0.015625)"/>
       </defs>
       <use xlink:href="#DejaVuSans-Oblique-36"/>
       <use xlink:href="#DejaVuSans-Oblique-30" x="63.623047"/>
      </g>
     </g>
    </g>
    <g id="xtick_8">
     <g id="line2d_8">
      <g>
       <use xlink:href="#m579f189ab7" x="509.166259" y="311.191859" style="stroke: #000000; stroke-width: 0.8"/>
      </g>
     </g>
     <g id="text_8">
      <!-- 70 -->
      <g transform="translate(502.803759 325.790297) scale(0.1 -0.1)">
       <defs>
        <path id="DejaVuSans-Oblique-37" d="M 819 4666 
L 4013 4666 
L 3956 4397 
L 1288 0 
L 594 0 
L 3116 4134 
L 716 4134 
L 819 4666 
z
" transform="scale(0.015625)"/>
       </defs>
       <use xlink:href="#DejaVuSans-Oblique-37"/>
       <use xlink:href="#DejaVuSans-Oblique-30" x="63.623047"/>
      </g>
     </g>
    </g>
    <g id="xtick_9">
     <g id="line2d_9">
      <g>
       <use xlink:href="#m579f189ab7" x="571.395258" y="311.191859" style="stroke: #000000; stroke-width: 0.8"/>
      </g>
     </g>
     <g id="text_9">
      <!-- 80 -->
      <g transform="translate(565.032758 325.790297) scale(0.1 -0.1)">
       <defs>
        <path id="DejaVuSans-Oblique-38" d="M 2847 1416 
Q 2847 1769 2600 1992 
Q 2353 2216 1953 2216 
Q 1466 2216 1148 1923 
Q 831 1631 831 1184 
Q 831 828 1073 618 
Q 1316 409 1728 409 
Q 2219 409 2533 693 
Q 2847 978 2847 1416 
z
M 3169 3591 
Q 3169 3888 2950 4069 
Q 2731 4250 2369 4250 
Q 1941 4250 1664 4009 
Q 1388 3769 1388 3406 
Q 1388 3094 1605 2903 
Q 1822 2713 2181 2713 
Q 2613 2713 2891 2961 
Q 3169 3209 3169 3591 
z
M 2741 2456 
Q 3094 2322 3281 2050 
Q 3469 1778 3469 1394 
Q 3469 747 2969 328 
Q 2469 -91 1678 -91 
Q 1006 -91 609 239 
Q 213 569 213 1119 
Q 213 1619 553 2008 
Q 894 2397 1441 2503 
Q 1113 2616 941 2852 
Q 769 3088 769 3425 
Q 769 3991 1239 4370 
Q 1709 4750 2431 4750 
Q 3034 4750 3414 4442 
Q 3794 4134 3794 3659 
Q 3794 3247 3511 2923 
Q 3228 2600 2741 2456 
z
" transform="scale(0.015625)"/>
       </defs>
       <use xlink:href="#DejaVuSans-Oblique-38"/>
       <use xlink:href="#DejaVuSans-Oblique-30" x="63.623047"/>
      </g>
     </g>
    </g>
    <g id="text_10">
     <!-- Iterations -->
     <g transform="translate(290.791875 340.988109) scale(0.12 -0.12)">
      <defs>
       <path id="DejaVuSans-Oblique-49" d="M 1081 4666 
L 1716 4666 
L 806 0 
L 172 0 
L 1081 4666 
z
" transform="scale(0.015625)"/>
       <path id="DejaVuSans-Oblique-74" d="M 2706 3500 
L 2619 3053 
L 1472 3053 
L 1100 1153 
Q 1081 1047 1072 975 
Q 1063 903 1063 863 
Q 1063 663 1183 572 
Q 1303 481 1569 481 
L 2150 481 
L 2053 0 
L 1503 0 
Q 991 0 739 200 
Q 488 400 488 806 
Q 488 878 497 964 
Q 506 1050 525 1153 
L 897 3053 
L 409 3053 
L 500 3500 
L 978 3500 
L 1172 4494 
L 1747 4494 
L 1556 3500 
L 2706 3500 
z
" transform="scale(0.015625)"/>
       <path id="DejaVuSans-Oblique-65" d="M 3078 2063 
Q 3088 2113 3092 2166 
Q 3097 2219 3097 2272 
Q 3097 2653 2873 2875 
Q 2650 3097 2266 3097 
Q 1838 3097 1509 2826 
Q 1181 2556 1013 2059 
L 3078 2063 
z
M 3578 1613 
L 903 1613 
Q 884 1494 878 1425 
Q 872 1356 872 1306 
Q 872 872 1139 634 
Q 1406 397 1894 397 
Q 2269 397 2603 481 
Q 2938 566 3225 728 
L 3116 159 
Q 2806 34 2476 -28 
Q 2147 -91 1806 -91 
Q 1078 -91 686 257 
Q 294 606 294 1247 
Q 294 1794 489 2264 
Q 684 2734 1063 3103 
Q 1306 3334 1642 3459 
Q 1978 3584 2356 3584 
Q 2950 3584 3301 3228 
Q 3653 2872 3653 2272 
Q 3653 2128 3634 1964 
Q 3616 1800 3578 1613 
z
" transform="scale(0.015625)"/>
       <path id="DejaVuSans-Oblique-72" d="M 2853 2969 
Q 2766 3016 2653 3041 
Q 2541 3066 2413 3066 
Q 1953 3066 1609 2717 
Q 1266 2369 1153 1784 
L 800 0 
L 225 0 
L 909 3500 
L 1484 3500 
L 1375 2956 
Q 1603 3259 1920 3421 
Q 2238 3584 2597 3584 
Q 2691 3584 2781 3573 
Q 2872 3563 2963 3538 
L 2853 2969 
z
" transform="scale(0.015625)"/>
       <path id="DejaVuSans-Oblique-61" d="M 3438 1997 
L 3047 0 
L 2472 0 
L 2578 531 
Q 2325 219 2001 64 
Q 1678 -91 1281 -91 
Q 834 -91 548 182 
Q 263 456 263 884 
Q 263 1497 752 1853 
Q 1241 2209 2100 2209 
L 2900 2209 
L 2931 2363 
Q 2938 2388 2941 2417 
Q 2944 2447 2944 2509 
Q 2944 2788 2717 2942 
Q 2491 3097 2081 3097 
Q 1800 3097 1504 3025 
Q 1209 2953 897 2809 
L 997 3341 
Q 1322 3463 1633 3523 
Q 1944 3584 2234 3584 
Q 2853 3584 3176 3315 
Q 3500 3047 3500 2534 
Q 3500 2431 3484 2292 
Q 3469 2153 3438 1997 
z
M 2816 1759 
L 2241 1759 
Q 1534 1759 1195 1570 
Q 856 1381 856 984 
Q 856 709 1029 553 
Q 1203 397 1509 397 
Q 1978 397 2328 733 
Q 2678 1069 2791 1631 
L 2816 1759 
z
" transform="scale(0.015625)"/>
       <path id="DejaVuSans-Oblique-69" d="M 1172 4863 
L 1747 4863 
L 1606 4134 
L 1031 4134 
L 1172 4863 
z
M 909 3500 
L 1484 3500 
L 800 0 
L 225 0 
L 909 3500 
z
" transform="scale(0.015625)"/>
       <path id="DejaVuSans-Oblique-6f" d="M 1625 -91 
Q 1009 -91 651 289 
Q 294 669 294 1325 
Q 294 1706 417 2101 
Q 541 2497 738 2766 
Q 1047 3184 1428 3384 
Q 1809 3584 2291 3584 
Q 2888 3584 3255 3212 
Q 3622 2841 3622 2241 
Q 3622 1825 3500 1412 
Q 3378 1000 3181 728 
Q 2875 309 2494 109 
Q 2113 -91 1625 -91 
z
M 891 1344 
Q 891 869 1089 633 
Q 1288 397 1691 397 
Q 2269 397 2648 901 
Q 3028 1406 3028 2181 
Q 3028 2634 2825 2865 
Q 2622 3097 2228 3097 
Q 1903 3097 1650 2945 
Q 1397 2794 1197 2484 
Q 1050 2253 970 1956 
Q 891 1659 891 1344 
z
" transform="scale(0.015625)"/>
       <path id="DejaVuSans-Oblique-6e" d="M 3566 2113 
L 3156 0 
L 2578 0 
L 2988 2091 
Q 3016 2238 3031 2350 
Q 3047 2463 3047 2528 
Q 3047 2791 2881 2937 
Q 2716 3084 2419 3084 
Q 1956 3084 1622 2776 
Q 1288 2469 1184 1941 
L 800 0 
L 225 0 
L 903 3500 
L 1478 3500 
L 1363 2950 
Q 1603 3253 1940 3418 
Q 2278 3584 2650 3584 
Q 3113 3584 3367 3334 
Q 3622 3084 3622 2631 
Q 3622 2519 3608 2391 
Q 3594 2263 3566 2113 
z
" transform="scale(0.015625)"/>
       <path id="DejaVuSans-Oblique-73" d="M 3200 3397 
L 3091 2853 
Q 2863 2978 2609 3040 
Q 2356 3103 2088 3103 
Q 1634 3103 1373 2948 
Q 1113 2794 1113 2528 
Q 1113 2219 1719 2053 
Q 1766 2041 1788 2034 
L 1972 1978 
Q 2547 1819 2739 1644 
Q 2931 1469 2931 1166 
Q 2931 609 2489 259 
Q 2047 -91 1331 -91 
Q 1053 -91 747 -37 
Q 441 16 72 128 
L 184 722 
Q 500 559 806 475 
Q 1113 391 1394 391 
Q 1816 391 2080 572 
Q 2344 753 2344 1031 
Q 2344 1331 1650 1516 
L 1591 1531 
L 1394 1581 
Q 956 1697 753 1886 
Q 550 2075 550 2369 
Q 550 2928 970 3256 
Q 1391 3584 2113 3584 
Q 2397 3584 2667 3537 
Q 2938 3491 3200 3397 
z
" transform="scale(0.015625)"/>
      </defs>
      <use xlink:href="#DejaVuSans-Oblique-49"/>
      <use xlink:href="#DejaVuSans-Oblique-74" x="29.492188"/>
      <use xlink:href="#DejaVuSans-Oblique-65" x="68.701172"/>
      <use xlink:href="#DejaVuSans-Oblique-72" x="130.224609"/>
      <use xlink:href="#DejaVuSans-Oblique-61" x="171.337891"/>
      <use xlink:href="#DejaVuSans-Oblique-74" x="232.617188"/>
      <use xlink:href="#DejaVuSans-Oblique-69" x="271.826172"/>
      <use xlink:href="#DejaVuSans-Oblique-6f" x="299.609375"/>
      <use xlink:href="#DejaVuSans-Oblique-6e" x="360.791016"/>
      <use xlink:href="#DejaVuSans-Oblique-73" x="424.169922"/>
     </g>
    </g>
   </g>
   <g id="matplotlib.axis_2">
    <g id="ytick_1">
     <g id="line2d_10">
      <defs>
       <path id="m052a2563e7" d="M 0 0 
L -3.5 0 
" style="stroke: #000000; stroke-width: 0.8"/>
      </defs>
      <g>
       <use xlink:href="#m052a2563e7" x="48.982813" y="280.974565" style="stroke: #000000; stroke-width: 0.8"/>
      </g>
     </g>
     <g id="text_11">
      <!-- −50 -->
      <g transform="translate(20.878125 284.773784) scale(0.1 -0.1)">
       <defs>
        <path id="DejaVuSans-Oblique-2212" d="M 678 2272 
L 4684 2272 
L 4684 1741 
L 678 1741 
L 678 2272 
z
" transform="scale(0.015625)"/>
       </defs>
       <use xlink:href="#DejaVuSans-Oblique-2212"/>
       <use xlink:href="#DejaVuSans-Oblique-35" x="83.789062"/>
       <use xlink:href="#DejaVuSans-Oblique-30" x="147.412109"/>
      </g>
     </g>
    </g>
    <g id="ytick_2">
     <g id="line2d_11">
      <g>
       <use xlink:href="#m052a2563e7" x="48.982813" y="234.157873" style="stroke: #000000; stroke-width: 0.8"/>
      </g>
     </g>
     <g id="text_12">
      <!-- −40 -->
      <g transform="translate(20.878125 237.957092) scale(0.1 -0.1)">
       <use xlink:href="#DejaVuSans-Oblique-2212"/>
       <use xlink:href="#DejaVuSans-Oblique-34" x="83.789062"/>
       <use xlink:href="#DejaVuSans-Oblique-30" x="147.412109"/>
      </g>
     </g>
    </g>
    <g id="ytick_3">
     <g id="line2d_12">
      <g>
       <use xlink:href="#m052a2563e7" x="48.982813" y="187.34118" style="stroke: #000000; stroke-width: 0.8"/>
      </g>
     </g>
     <g id="text_13">
      <!-- −30 -->
      <g transform="translate(20.878125 191.140399) scale(0.1 -0.1)">
       <use xlink:href="#DejaVuSans-Oblique-2212"/>
       <use xlink:href="#DejaVuSans-Oblique-33" x="83.789062"/>
       <use xlink:href="#DejaVuSans-Oblique-30" x="147.412109"/>
      </g>
     </g>
    </g>
    <g id="ytick_4">
     <g id="line2d_13">
      <g>
       <use xlink:href="#m052a2563e7" x="48.982813" y="140.524488" style="stroke: #000000; stroke-width: 0.8"/>
      </g>
     </g>
     <g id="text_14">
      <!-- −20 -->
      <g transform="translate(20.878125 144.323707) scale(0.1 -0.1)">
       <use xlink:href="#DejaVuSans-Oblique-2212"/>
       <use xlink:href="#DejaVuSans-Oblique-32" x="83.789062"/>
       <use xlink:href="#DejaVuSans-Oblique-30" x="147.412109"/>
      </g>
     </g>
    </g>
    <g id="ytick_5">
     <g id="line2d_14">
      <g>
       <use xlink:href="#m052a2563e7" x="48.982813" y="93.707795" style="stroke: #000000; stroke-width: 0.8"/>
      </g>
     </g>
     <g id="text_15">
      <!-- −10 -->
      <g transform="translate(20.878125 97.507014) scale(0.1 -0.1)">
       <use xlink:href="#DejaVuSans-Oblique-2212"/>
       <use xlink:href="#DejaVuSans-Oblique-31" x="83.789062"/>
       <use xlink:href="#DejaVuSans-Oblique-30" x="147.412109"/>
      </g>
     </g>
    </g>
    <g id="ytick_6">
     <g id="line2d_15">
      <g>
       <use xlink:href="#m052a2563e7" x="48.982813" y="46.891103" style="stroke: #000000; stroke-width: 0.8"/>
      </g>
     </g>
     <g id="text_16">
      <!-- 0 -->
      <g transform="translate(35.620312 50.690322) scale(0.1 -0.1)">
       <use xlink:href="#DejaVuSans-Oblique-30"/>
      </g>
     </g>
    </g>
    <g id="text_17">
     <!-- Loss -->
     <g transform="translate(14.798438 170.91762) rotate(-90) scale(0.1 -0.1)">
      <defs>
       <path id="DejaVuSans-Oblique-4c" d="M 1075 4666 
L 1709 4666 
L 909 525 
L 3181 525 
L 3078 0 
L 172 0 
L 1075 4666 
z
" transform="scale(0.015625)"/>
      </defs>
      <use xlink:href="#DejaVuSans-Oblique-4c"/>
      <use xlink:href="#DejaVuSans-Oblique-6f" x="55.712891"/>
      <use xlink:href="#DejaVuSans-Oblique-73" x="116.894531"/>
      <use xlink:href="#DejaVuSans-Oblique-73" x="168.994141"/>
     </g>
    </g>
   </g>
   <g id="line2d_16">
    <path d="M 73.563267 22.291181 
L 79.786167 28.321413 
L 86.009067 26.891028 
L 92.231967 28.907512 
L 98.454867 31.45823 
L 104.677766 36.130527 
L 110.900666 35.158616 
L 117.123566 40.175485 
L 123.346466 43.183092 
L 129.569366 44.453198 
L 135.792266 54.183967 
L 142.015166 55.842526 
L 148.238066 61.098734 
L 154.460966 72.334854 
L 160.683865 75.998581 
L 166.906765 83.744932 
L 173.129665 89.138719 
L 179.352565 99.026974 
L 185.575465 105.065425 
L 191.798365 110.119556 
L 198.021265 119.210699 
L 204.244165 123.97477 
L 210.467065 133.876919 
L 216.689964 140.730832 
L 222.912864 146.657874 
L 229.135764 155.995995 
L 235.358664 165.481999 
L 241.581564 168.172079 
L 247.804464 180.659751 
L 254.027364 186.938698 
L 260.250264 195.756073 
L 266.473163 199.839853 
L 272.696063 204.163393 
L 278.918963 209.5328 
L 285.141863 224.243151 
L 291.364763 228.991256 
L 297.587663 235.454233 
L 303.810563 242.296181 
L 310.033463 247.466333 
L 316.256363 249.950559 
L 322.479262 256.788935 
L 328.702162 259.994367 
L 334.925062 265.402314 
L 341.147962 266.608682 
L 347.370862 270.871483 
L 353.593762 272.999454 
L 359.816662 276.034742 
L 366.039562 276.349081 
L 372.262462 275.392259 
L 378.485361 279.244406 
L 384.708261 282.037328 
L 390.931161 283.012169 
L 397.154061 284.044375 
L 403.376961 283.092268 
L 409.599861 286.109143 
L 415.822761 283.051656 
L 422.045661 279.920393 
L 428.26856 284.912294 
L 434.49146 288.364039 
L 440.71436 278.095224 
L 446.93726 285.977235 
L 453.16016 283.474382 
L 459.38306 288.494643 
L 465.60596 286.615842 
L 471.82886 288.98443 
L 478.05176 292.554939 
L 484.274659 288.738349 
L 490.497559 291.209359 
L 496.720459 291.312228 
L 502.943359 290.49785 
L 509.166259 287.641368 
L 515.389159 295.695988 
L 521.612059 291.831179 
L 527.834959 293.00849 
L 534.057859 297.295561 
L 540.280758 291.845234 
L 546.503658 289.899944 
L 552.726558 294.686643 
L 558.949458 297.434684 
L 565.172358 289.349078 
" clip-path="url(#pb47063c45d)" style="fill: none; stroke: #808080; stroke-width: 2; stroke-linecap: square"/>
   </g>
   <g id="patch_3">
    <path d="M 48.982813 311.191859 
L 48.982813 8.534005 
" style="fill: none; stroke: #000000; stroke-width: 0.8; stroke-linejoin: miter; stroke-linecap: square"/>
   </g>
   <g id="patch_4">
    <path d="M 589.752813 311.191859 
L 589.752813 8.534005 
" style="fill: none; stroke: #000000; stroke-width: 0.8; stroke-linejoin: miter; stroke-linecap: square"/>
   </g>
   <g id="patch_5">
    <path d="M 48.982813 311.191859 
L 589.752813 311.191859 
" style="fill: none; stroke: #000000; stroke-width: 0.8; stroke-linejoin: miter; stroke-linecap: square"/>
   </g>
   <g id="patch_6">
    <path d="M 48.982813 8.534005 
L 589.752813 8.534005 
" style="fill: none; stroke: #000000; stroke-width: 0.8; stroke-linejoin: miter; stroke-linecap: square"/>
   </g>
  </g>
  <g id="axes_2">
   <g id="matplotlib.axis_3">
    <g id="ytick_7">
     <g id="line2d_17">
      <path d="M 48.982813 288.337639 
L 589.752813 288.337639 
" clip-path="url(#pb47063c45d)" style="fill: none; stroke-dasharray: 1.85,0.8; stroke-dashoffset: 0; stroke: #d3d3d3; stroke-width: 0.5"/>
     </g>
     <g id="line2d_18">
      <defs>
       <path id="m19d61cc939" d="M 0 0 
L 3.5 0 
" style="stroke: #000000; stroke-width: 0.8"/>
      </defs>
      <g>
       <use xlink:href="#m19d61cc939" x="589.752813" y="288.337639" style="stroke: #000000; stroke-width: 0.8"/>
      </g>
     </g>
     <g id="text_18">
      <!-- 0.40 -->
      <g transform="translate(596.752813 292.136857) scale(0.1 -0.1)">
       <defs>
        <path id="DejaVuSans-Oblique-2e" d="M 525 794 
L 1184 794 
L 1031 0 
L 372 0 
L 525 794 
z
" transform="scale(0.015625)"/>
       </defs>
       <use xlink:href="#DejaVuSans-Oblique-30"/>
       <use xlink:href="#DejaVuSans-Oblique-2e" x="63.623047"/>
       <use xlink:href="#DejaVuSans-Oblique-34" x="95.410156"/>
       <use xlink:href="#DejaVuSans-Oblique-30" x="159.033203"/>
      </g>
     </g>
    </g>
    <g id="ytick_8">
     <g id="line2d_19">
      <path d="M 48.982813 253.670336 
L 589.752813 253.670336 
" clip-path="url(#pb47063c45d)" style="fill: none; stroke-dasharray: 1.85,0.8; stroke-dashoffset: 0; stroke: #d3d3d3; stroke-width: 0.5"/>
     </g>
     <g id="line2d_20">
      <g>
       <use xlink:href="#m19d61cc939" x="589.752813" y="253.670336" style="stroke: #000000; stroke-width: 0.8"/>
      </g>
     </g>
     <g id="text_19">
      <!-- 0.45 -->
      <g transform="translate(596.752813 257.469555) scale(0.1 -0.1)">
       <use xlink:href="#DejaVuSans-Oblique-30"/>
       <use xlink:href="#DejaVuSans-Oblique-2e" x="63.623047"/>
       <use xlink:href="#DejaVuSans-Oblique-34" x="95.410156"/>
       <use xlink:href="#DejaVuSans-Oblique-35" x="159.033203"/>
      </g>
     </g>
    </g>
    <g id="ytick_9">
     <g id="line2d_21">
      <path d="M 48.982813 219.003034 
L 589.752813 219.003034 
" clip-path="url(#pb47063c45d)" style="fill: none; stroke-dasharray: 1.85,0.8; stroke-dashoffset: 0; stroke: #d3d3d3; stroke-width: 0.5"/>
     </g>
     <g id="line2d_22">
      <g>
       <use xlink:href="#m19d61cc939" x="589.752813" y="219.003034" style="stroke: #000000; stroke-width: 0.8"/>
      </g>
     </g>
     <g id="text_20">
      <!-- 0.50 -->
      <g transform="translate(596.752813 222.802252) scale(0.1 -0.1)">
       <use xlink:href="#DejaVuSans-Oblique-30"/>
       <use xlink:href="#DejaVuSans-Oblique-2e" x="63.623047"/>
       <use xlink:href="#DejaVuSans-Oblique-35" x="95.410156"/>
       <use xlink:href="#DejaVuSans-Oblique-30" x="159.033203"/>
      </g>
     </g>
    </g>
    <g id="ytick_10">
     <g id="line2d_23">
      <path d="M 48.982813 184.335731 
L 589.752813 184.335731 
" clip-path="url(#pb47063c45d)" style="fill: none; stroke-dasharray: 1.85,0.8; stroke-dashoffset: 0; stroke: #d3d3d3; stroke-width: 0.5"/>
     </g>
     <g id="line2d_24">
      <g>
       <use xlink:href="#m19d61cc939" x="589.752813" y="184.335731" style="stroke: #000000; stroke-width: 0.8"/>
      </g>
     </g>
     <g id="text_21">
      <!-- 0.55 -->
      <g transform="translate(596.752813 188.13495) scale(0.1 -0.1)">
       <use xlink:href="#DejaVuSans-Oblique-30"/>
       <use xlink:href="#DejaVuSans-Oblique-2e" x="63.623047"/>
       <use xlink:href="#DejaVuSans-Oblique-35" x="95.410156"/>
       <use xlink:href="#DejaVuSans-Oblique-35" x="159.033203"/>
      </g>
     </g>
    </g>
    <g id="ytick_11">
     <g id="line2d_25">
      <path d="M 48.982813 149.668429 
L 589.752813 149.668429 
" clip-path="url(#pb47063c45d)" style="fill: none; stroke-dasharray: 1.85,0.8; stroke-dashoffset: 0; stroke: #d3d3d3; stroke-width: 0.5"/>
     </g>
     <g id="line2d_26">
      <g>
       <use xlink:href="#m19d61cc939" x="589.752813" y="149.668429" style="stroke: #000000; stroke-width: 0.8"/>
      </g>
     </g>
     <g id="text_22">
      <!-- 0.60 -->
      <g transform="translate(596.752813 153.467647) scale(0.1 -0.1)">
       <use xlink:href="#DejaVuSans-Oblique-30"/>
       <use xlink:href="#DejaVuSans-Oblique-2e" x="63.623047"/>
       <use xlink:href="#DejaVuSans-Oblique-36" x="95.410156"/>
       <use xlink:href="#DejaVuSans-Oblique-30" x="159.033203"/>
      </g>
     </g>
    </g>
    <g id="ytick_12">
     <g id="line2d_27">
      <path d="M 48.982813 115.001126 
L 589.752813 115.001126 
" clip-path="url(#pb47063c45d)" style="fill: none; stroke-dasharray: 1.85,0.8; stroke-dashoffset: 0; stroke: #d3d3d3; stroke-width: 0.5"/>
     </g>
     <g id="line2d_28">
      <g>
       <use xlink:href="#m19d61cc939" x="589.752813" y="115.001126" style="stroke: #000000; stroke-width: 0.8"/>
      </g>
     </g>
     <g id="text_23">
      <!-- 0.65 -->
      <g transform="translate(596.752813 118.800345) scale(0.1 -0.1)">
       <use xlink:href="#DejaVuSans-Oblique-30"/>
       <use xlink:href="#DejaVuSans-Oblique-2e" x="63.623047"/>
       <use xlink:href="#DejaVuSans-Oblique-36" x="95.410156"/>
       <use xlink:href="#DejaVuSans-Oblique-35" x="159.033203"/>
      </g>
     </g>
    </g>
    <g id="ytick_13">
     <g id="line2d_29">
      <path d="M 48.982813 80.333824 
L 589.752813 80.333824 
" clip-path="url(#pb47063c45d)" style="fill: none; stroke-dasharray: 1.85,0.8; stroke-dashoffset: 0; stroke: #d3d3d3; stroke-width: 0.5"/>
     </g>
     <g id="line2d_30">
      <g>
       <use xlink:href="#m19d61cc939" x="589.752813" y="80.333824" style="stroke: #000000; stroke-width: 0.8"/>
      </g>
     </g>
     <g id="text_24">
      <!-- 0.70 -->
      <g transform="translate(596.752813 84.133042) scale(0.1 -0.1)">
       <use xlink:href="#DejaVuSans-Oblique-30"/>
       <use xlink:href="#DejaVuSans-Oblique-2e" x="63.623047"/>
       <use xlink:href="#DejaVuSans-Oblique-37" x="95.410156"/>
       <use xlink:href="#DejaVuSans-Oblique-30" x="159.033203"/>
      </g>
     </g>
    </g>
    <g id="ytick_14">
     <g id="line2d_31">
      <path d="M 48.982813 45.666521 
L 589.752813 45.666521 
" clip-path="url(#pb47063c45d)" style="fill: none; stroke-dasharray: 1.85,0.8; stroke-dashoffset: 0; stroke: #d3d3d3; stroke-width: 0.5"/>
     </g>
     <g id="line2d_32">
      <g>
       <use xlink:href="#m19d61cc939" x="589.752813" y="45.666521" style="stroke: #000000; stroke-width: 0.8"/>
      </g>
     </g>
     <g id="text_25">
      <!-- 0.75 -->
      <g transform="translate(596.752813 49.46574) scale(0.1 -0.1)">
       <use xlink:href="#DejaVuSans-Oblique-30"/>
       <use xlink:href="#DejaVuSans-Oblique-2e" x="63.623047"/>
       <use xlink:href="#DejaVuSans-Oblique-37" x="95.410156"/>
       <use xlink:href="#DejaVuSans-Oblique-35" x="159.033203"/>
      </g>
     </g>
    </g>
    <g id="ytick_15">
     <g id="line2d_33">
      <path d="M 48.982813 10.999219 
L 589.752813 10.999219 
" clip-path="url(#pb47063c45d)" style="fill: none; stroke-dasharray: 1.85,0.8; stroke-dashoffset: 0; stroke: #d3d3d3; stroke-width: 0.5"/>
     </g>
     <g id="line2d_34">
      <g>
       <use xlink:href="#m19d61cc939" x="589.752813" y="10.999219" style="stroke: #000000; stroke-width: 0.8"/>
      </g>
     </g>
     <g id="text_26">
      <!-- 0.80 -->
      <g transform="translate(596.752813 14.798438) scale(0.1 -0.1)">
       <use xlink:href="#DejaVuSans-Oblique-30"/>
       <use xlink:href="#DejaVuSans-Oblique-2e" x="63.623047"/>
       <use xlink:href="#DejaVuSans-Oblique-38" x="95.410156"/>
       <use xlink:href="#DejaVuSans-Oblique-30" x="159.033203"/>
      </g>
     </g>
    </g>
    <g id="text_27">
     <!-- Accuracy -->
     <g transform="translate(630.616875 182.778557) rotate(-90) scale(0.1 -0.1)">
      <defs>
       <path id="DejaVuSans-Oblique-41" d="M 2356 4666 
L 3072 4666 
L 3938 0 
L 3278 0 
L 3084 1197 
L 984 1197 
L 325 0 
L -341 0 
L 2356 4666 
z
M 2584 4044 
L 1275 1722 
L 2988 1722 
L 2584 4044 
z
" transform="scale(0.015625)"/>
       <path id="DejaVuSans-Oblique-63" d="M 3431 3366 
L 3316 2797 
Q 3109 2947 2876 3022 
Q 2644 3097 2394 3097 
Q 2119 3097 1870 3000 
Q 1622 2903 1453 2725 
Q 1184 2453 1037 2087 
Q 891 1722 891 1331 
Q 891 859 1127 628 
Q 1363 397 1844 397 
Q 2081 397 2348 469 
Q 2616 541 2906 684 
L 2797 116 
Q 2547 13 2283 -39 
Q 2019 -91 1741 -91 
Q 1044 -91 669 257 
Q 294 606 294 1253 
Q 294 1797 489 2255 
Q 684 2713 1069 3078 
Q 1331 3328 1684 3456 
Q 2038 3584 2456 3584 
Q 2700 3584 2940 3529 
Q 3181 3475 3431 3366 
z
" transform="scale(0.015625)"/>
       <path id="DejaVuSans-Oblique-75" d="M 428 1388 
L 838 3500 
L 1416 3500 
L 1006 1409 
Q 975 1256 961 1147 
Q 947 1038 947 966 
Q 947 700 1109 554 
Q 1272 409 1569 409 
Q 2031 409 2368 721 
Q 2706 1034 2809 1563 
L 3194 3500 
L 3769 3500 
L 3091 0 
L 2516 0 
L 2631 550 
Q 2388 244 2052 76 
Q 1716 -91 1338 -91 
Q 878 -91 622 161 
Q 366 413 366 863 
Q 366 956 381 1097 
Q 397 1238 428 1388 
z
" transform="scale(0.015625)"/>
       <path id="DejaVuSans-Oblique-79" d="M 1588 -325 
Q 1188 -997 936 -1164 
Q 684 -1331 294 -1331 
L -159 -1331 
L -63 -850 
L 269 -850 
Q 509 -850 678 -719 
Q 847 -588 1056 -206 
L 1234 128 
L 459 3500 
L 1069 3500 
L 1650 819 
L 3256 3500 
L 3859 3500 
L 1588 -325 
z
" transform="scale(0.015625)"/>
      </defs>
      <use xlink:href="#DejaVuSans-Oblique-41"/>
      <use xlink:href="#DejaVuSans-Oblique-63" x="68.408203"/>
      <use xlink:href="#DejaVuSans-Oblique-63" x="123.388672"/>
      <use xlink:href="#DejaVuSans-Oblique-75" x="178.369141"/>
      <use xlink:href="#DejaVuSans-Oblique-72" x="241.748047"/>
      <use xlink:href="#DejaVuSans-Oblique-61" x="282.861328"/>
      <use xlink:href="#DejaVuSans-Oblique-63" x="344.140625"/>
      <use xlink:href="#DejaVuSans-Oblique-79" x="399.121094"/>
     </g>
    </g>
   </g>
   <g id="line2d_35">
    <path d="M 73.563267 121.12437 
L 79.786167 122.023556 
L 86.009067 118.560249 
L 92.231967 121.727081 
L 98.454867 123.249726 
L 104.677766 123.530983 
L 110.900666 123.703036 
L 117.123566 121.744014 
L 123.346466 119.720287 
L 129.569366 122.76263 
L 135.792266 120.046472 
L 142.015166 119.734356 
L 148.238066 118.698146 
L 154.460966 116.160689 
L 160.683865 114.419375 
L 166.906765 112.935334 
L 173.129665 111.327796 
L 179.352565 109.222936 
L 185.575465 108.095355 
L 191.798365 110.647645 
L 198.021265 112.310341 
L 204.244165 110.357942 
L 210.467065 111.367689 
L 216.689964 112.379052 
L 222.912864 112.091901 
L 229.135764 111.438869 
L 235.358664 112.186204 
L 241.581564 112.89899 
L 247.804464 112.967516 
L 254.027364 114.45754 
L 260.250264 115.3123 
L 266.473163 114.751985 
L 272.696063 113.698257 
L 278.918963 113.92297 
L 285.141863 113.887503 
L 291.364763 113.504839 
L 297.587663 112.321965 
L 303.810563 111.589628 
L 310.033463 110.880316 
L 316.256363 110.494463 
L 322.479262 110.422889 
L 328.702162 110.345394 
L 334.925062 109.088979 
L 341.147962 111.307477 
L 347.370862 110.763793 
L 353.593762 110.891706 
L 359.816662 111.454145 
L 366.039562 111.841561 
L 372.262462 112.22978 
L 378.485361 112.204591 
L 384.708261 112.328494 
L 390.931161 112.212108 
L 397.154061 111.367673 
L 403.376961 110.625701 
L 409.599861 109.881762 
L 415.822761 109.160558 
L 422.045661 108.993344 
L 428.26856 108.788844 
L 434.49146 108.122168 
L 440.71436 107.672924 
L 446.93726 107.237619 
L 453.16016 107.082176 
L 459.38306 107.029792 
L 465.60596 106.280103 
L 471.82886 105.815284 
L 478.05176 105.960123 
L 484.274659 105.948857 
L 490.497559 105.112257 
L 496.720459 104.52904 
L 502.943359 103.866266 
L 509.166259 103.538157 
L 515.389159 103.09573 
L 521.612059 102.598865 
L 527.834959 102.774017 
L 534.057859 102.804824 
L 540.280758 102.578803 
L 546.503658 102.638666 
L 552.726558 103.43839 
L 558.949458 103.602465 
L 565.172358 103.048765 
" clip-path="url(#pb47063c45d)" style="fill: none; stroke-dasharray: 7.4,3.2; stroke-dashoffset: 0; stroke: #000000; stroke-width: 2"/>
   </g>
   <g id="line2d_36">
    <path d="M 73.563267 22.935648 
L 79.786167 24.12924 
L 86.009067 23.394214 
L 92.231967 22.796807 
L 98.454867 22.291181 
L 104.677766 23.564532 
L 110.900666 23.054349 
L 117.123566 22.783524 
L 123.346466 23.018015 
L 129.569366 23.096358 
L 135.792266 22.590248 
L 142.015166 22.688518 
L 148.238066 23.380656 
L 154.460966 23.498413 
L 160.683865 23.79078 
L 166.906765 23.829509 
L 173.129665 23.559029 
L 179.352565 23.206322 
L 185.575465 22.730718 
L 191.798365 25.220528 
L 198.021265 24.862044 
L 204.244165 24.503176 
L 210.467065 24.604279 
L 216.689964 24.192604 
L 222.912864 24.157638 
L 229.135764 24.371221 
L 235.358664 24.454828 
L 241.581564 24.86231 
L 247.804464 24.850195 
L 254.027364 24.548983 
L 260.250264 24.694421 
L 266.473163 24.686234 
L 272.696063 24.716394 
L 278.918963 24.904958 
L 285.141863 24.573484 
L 291.364763 24.597496 
L 297.587663 24.344139 
L 303.810563 24.496488 
L 310.033463 24.562757 
L 316.256363 24.33181 
L 322.479262 24.381853 
L 328.702162 24.68073 
L 334.925062 24.421089 
L 341.147962 25.733164 
L 347.370862 25.451222 
L 353.593762 25.604498 
L 359.816662 25.617387 
L 366.039562 25.732317 
L 372.262462 25.530481 
L 378.485361 25.360595 
L 384.708261 25.081913 
L 390.931161 24.844064 
L 397.154061 24.90397 
L 403.376961 24.689814 
L 409.599861 24.474038 
L 415.822761 24.533027 
L 422.045661 24.926721 
L 428.26856 24.727955 
L 434.49146 24.459982 
L 440.71436 24.251401 
L 446.93726 24.068334 
L 453.16016 23.898674 
L 459.38306 23.735309 
L 465.60596 23.540924 
L 471.82886 23.519298 
L 478.05176 23.80031 
L 484.274659 23.607667 
L 490.497559 23.645504 
L 496.720459 23.473345 
L 502.943359 23.29483 
L 509.166259 23.371995 
L 515.389159 23.384802 
L 521.612059 23.24453 
L 527.834959 23.058497 
L 534.057859 22.889885 
L 540.280758 22.734331 
L 546.503658 22.963174 
L 552.726558 23.052442 
L 558.949458 23.164698 
L 565.172358 23.047442 
" clip-path="url(#pb47063c45d)" style="fill: none; stroke-dasharray: 7.4,3.2; stroke-dashoffset: 0; stroke: #696969; stroke-width: 2"/>
   </g>
   <g id="line2d_37">
    <path d="M 73.563267 286.820857 
L 79.786167 289.113264 
L 86.009067 282.124485 
L 92.231967 287.864399 
L 98.454867 294.08525 
L 104.677766 291.898869 
L 110.900666 297.434684 
L 117.123566 291.466123 
L 123.346466 285.886406 
L 129.569366 291.901462 
L 135.792266 285.119346 
L 142.015166 282.54252 
L 148.238066 278.070608 
L 154.460966 271.101777 
L 160.683865 266.271371 
L 166.906765 263.03036 
L 173.129665 258.816322 
L 179.352565 253.269934 
L 185.575465 249.564563 
L 191.798365 253.491995 
L 198.021265 258.69232 
L 204.244165 253.834499 
L 210.467065 255.257787 
L 216.689964 260.689387 
L 222.912864 258.702113 
L 229.135764 255.3947 
L 235.358664 255.757286 
L 241.581564 257.443653 
L 247.804464 257.760697 
L 254.027364 261.741281 
L 260.250264 263.293926 
L 266.473163 261.884258 
L 272.696063 259.226822 
L 278.918963 260.794179 
L 285.141863 261.109347 
L 291.364763 259.040127 
L 297.587663 255.812153 
L 303.810563 253.659138 
L 310.033463 251.516978 
L 316.256363 249.366802 
L 322.479262 250.198562 
L 328.702162 250.465425 
L 334.925062 247.73636 
L 341.147962 249.485094 
L 347.370862 249.079582 
L 353.593762 250.204115 
L 359.816662 250.612673 
L 366.039562 251.957015 
L 372.262462 252.256476 
L 378.485361 253.260873 
L 384.708261 253.683533 
L 390.931161 254.079151 
L 397.154061 251.752403 
L 403.376961 250.372395 
L 409.599861 248.0396 
L 415.822761 246.407141 
L 422.045661 245.462231 
L 428.26856 244.454448 
L 434.49146 242.938642 
L 440.71436 242.24237 
L 446.93726 240.94064 
L 453.16016 241.212769 
L 459.38306 240.92306 
L 465.60596 239.288602 
L 471.82886 237.752977 
L 478.05176 236.85172 
L 484.274659 238.060641 
L 490.497559 235.874345 
L 496.720459 234.446098 
L 502.943359 233.52575 
L 509.166259 232.787054 
L 515.389159 231.960631 
L 521.612059 231.16975 
L 527.834959 232.464342 
L 534.057859 232.475338 
L 540.280758 232.361779 
L 546.503658 231.788674 
L 552.726558 234.536158 
L 558.949458 234.340309 
L 565.172358 233.157822 
" clip-path="url(#pb47063c45d)" style="fill: none; stroke-dasharray: 7.4,3.2; stroke-dashoffset: 0; stroke: #a9a9a9; stroke-width: 2"/>
   </g>
   <g id="line2d_38">
    <path d="M 73.563267 87.370487 
L 79.786167 87.425861 
L 86.009067 84.361149 
L 92.231967 88.123559 
L 98.454867 88.311237 
L 104.677766 89.330266 
L 110.900666 87.161555 
L 117.123566 86.363204 
L 123.346466 84.988363 
L 129.569366 88.02635 
L 135.792266 86.238148 
L 142.015166 86.853194 
L 148.238066 86.670661 
L 154.460966 85.021282 
L 160.683865 83.807674 
L 166.906765 82.440733 
L 173.129665 81.467916 
L 179.352565 80.207745 
L 185.575465 80.043069 
L 191.798365 81.939028 
L 198.021265 82.8435 
L 204.244165 81.547046 
L 210.467065 82.804345 
L 216.689964 82.317109 
L 222.912864 82.753926 
L 229.135764 82.994777 
L 235.358664 84.266352 
L 241.581564 84.644999 
L 247.804464 84.629586 
L 254.027364 85.769948 
L 260.250264 86.630426 
L 266.473163 86.218725 
L 272.696063 85.424906 
L 278.918963 84.996371 
L 285.141863 84.933592 
L 291.364763 85.190866 
L 297.587663 84.565784 
L 303.810563 84.101444 
L 310.033463 83.720765 
L 316.256363 84.139621 
L 322.479262 83.555572 
L 328.702162 83.117711 
L 334.925062 82.099233 
L 341.147962 85.005826 
L 347.370862 84.262185 
L 353.593762 83.879105 
L 359.816662 84.793261 
L 366.039562 84.838457 
L 372.262462 85.566081 
L 378.485361 85.098447 
L 384.708261 85.274266 
L 390.931161 84.962608 
L 397.154061 84.407159 
L 403.376961 83.720297 
L 409.599861 83.506704 
L 415.822761 82.851033 
L 422.045661 82.792212 
L 428.26856 82.986486 
L 434.49146 82.545024 
L 440.71436 82.098962 
L 446.93726 81.970751 
L 453.16016 81.60863 
L 459.38306 81.730399 
L 465.60596 81.145444 
L 471.82886 80.99443 
L 478.05176 81.594232 
L 484.274659 81.06356 
L 490.497559 80.46459 
L 496.720459 80.098359 
L 502.943359 79.322241 
L 509.166259 78.996789 
L 515.389159 78.518744 
L 521.612059 77.990591 
L 527.834959 77.786614 
L 534.057859 77.927037 
L 540.280758 77.609551 
L 546.503658 77.901408 
L 552.726558 78.082479 
L 558.949458 78.452427 
L 565.172358 77.994898 
" clip-path="url(#pb47063c45d)" style="fill: none; stroke-dasharray: 7.4,3.2; stroke-dashoffset: 0; stroke: #c0c0c0; stroke-width: 2"/>
   </g>
   <g id="patch_7">
    <path d="M 48.982813 311.191859 
L 48.982813 8.534005 
" style="fill: none; stroke: #000000; stroke-width: 0.8; stroke-linejoin: miter; stroke-linecap: square"/>
   </g>
   <g id="patch_8">
    <path d="M 589.752813 311.191859 
L 589.752813 8.534005 
" style="fill: none; stroke: #000000; stroke-width: 0.8; stroke-linejoin: miter; stroke-linecap: square"/>
   </g>
   <g id="patch_9">
    <path d="M 48.982813 311.191859 
L 589.752813 311.191859 
" style="fill: none; stroke: #000000; stroke-width: 0.8; stroke-linejoin: miter; stroke-linecap: square"/>
   </g>
   <g id="patch_10">
    <path d="M 48.982813 8.534005 
L 589.752813 8.534005 
" style="fill: none; stroke: #000000; stroke-width: 0.8; stroke-linejoin: miter; stroke-linecap: square"/>
   </g>
  </g>
  <g id="legend_1">
   <g id="line2d_39">
    <path d="M 147.878594 359.452172 
L 157.878594 359.452172 
L 167.878594 359.452172 
" style="fill: none; stroke: #808080; stroke-width: 2; stroke-linecap: square"/>
   </g>
   <g id="text_28">
    <!-- Loss -->
    <g transform="translate(175.878594 362.952172) scale(0.1 -0.1)">
     <use xlink:href="#DejaVuSans-Oblique-4c"/>
     <use xlink:href="#DejaVuSans-Oblique-6f" x="55.712891"/>
     <use xlink:href="#DejaVuSans-Oblique-73" x="116.894531"/>
     <use xlink:href="#DejaVuSans-Oblique-73" x="168.994141"/>
    </g>
   </g>
   <g id="line2d_40">
    <path d="M 217.987969 359.452172 
L 227.987969 359.452172 
L 237.987969 359.452172 
" style="fill: none; stroke-dasharray: 7.4,3.2; stroke-dashoffset: 0; stroke: #000000; stroke-width: 2"/>
   </g>
   <g id="text_29">
    <!-- Mean -->
    <g transform="translate(245.987969 362.952172) scale(0.1 -0.1)">
     <defs>
      <path id="DejaVuSans-Oblique-4d" d="M 1081 4666 
L 2028 4666 
L 2572 1522 
L 4378 4666 
L 5350 4666 
L 4441 0 
L 3828 0 
L 4622 4091 
L 2791 897 
L 2175 897 
L 1581 4103 
L 788 0 
L 172 0 
L 1081 4666 
z
" transform="scale(0.015625)"/>
     </defs>
     <use xlink:href="#DejaVuSans-Oblique-4d"/>
     <use xlink:href="#DejaVuSans-Oblique-65" x="86.279297"/>
     <use xlink:href="#DejaVuSans-Oblique-61" x="147.802734"/>
     <use xlink:href="#DejaVuSans-Oblique-6e" x="209.082031"/>
    </g>
   </g>
   <g id="line2d_41">
    <path d="M 293.234844 359.452172 
L 303.234844 359.452172 
L 313.234844 359.452172 
" style="fill: none; stroke-dasharray: 7.4,3.2; stroke-dashoffset: 0; stroke: #696969; stroke-width: 2"/>
   </g>
   <g id="text_30">
    <!-- Max -->
    <g transform="translate(321.234844 362.952172) scale(0.1 -0.1)">
     <defs>
      <path id="DejaVuSans-Oblique-78" d="M 3841 3500 
L 2234 1784 
L 3219 0 
L 2559 0 
L 1819 1388 
L 531 0 
L -166 0 
L 1556 1844 
L 641 3500 
L 1300 3500 
L 1972 2234 
L 3144 3500 
L 3841 3500 
z
" transform="scale(0.015625)"/>
     </defs>
     <use xlink:href="#DejaVuSans-Oblique-4d"/>
     <use xlink:href="#DejaVuSans-Oblique-61" x="86.279297"/>
     <use xlink:href="#DejaVuSans-Oblique-78" x="147.558594"/>
    </g>
   </g>
   <g id="line2d_42">
    <path d="M 361.909844 359.452172 
L 371.909844 359.452172 
L 381.909844 359.452172 
" style="fill: none; stroke-dasharray: 7.4,3.2; stroke-dashoffset: 0; stroke: #a9a9a9; stroke-width: 2"/>
   </g>
   <g id="text_31">
    <!-- Min -->
    <g transform="translate(389.909844 362.952172) scale(0.1 -0.1)">
     <use xlink:href="#DejaVuSans-Oblique-4d"/>
     <use xlink:href="#DejaVuSans-Oblique-69" x="86.279297"/>
     <use xlink:href="#DejaVuSans-Oblique-6e" x="114.0625"/>
    </g>
   </g>
   <g id="line2d_43">
    <path d="M 427.653594 359.452172 
L 437.653594 359.452172 
L 447.653594 359.452172 
" style="fill: none; stroke-dasharray: 7.4,3.2; stroke-dashoffset: 0; stroke: #c0c0c0; stroke-width: 2"/>
   </g>
   <g id="text_32">
    <!-- Median -->
    <g transform="translate(455.653594 362.952172) scale(0.1 -0.1)">
     <defs>
      <path id="DejaVuSans-Oblique-64" d="M 2675 525 
Q 2444 222 2128 65 
Q 1813 -91 1428 -91 
Q 903 -91 598 267 
Q 294 625 294 1247 
Q 294 1766 478 2236 
Q 663 2706 1013 3078 
Q 1244 3325 1534 3454 
Q 1825 3584 2144 3584 
Q 2481 3584 2739 3421 
Q 2997 3259 3138 2956 
L 3513 4863 
L 4091 4863 
L 3144 0 
L 2566 0 
L 2675 525 
z
M 891 1350 
Q 891 897 1095 644 
Q 1300 391 1663 391 
Q 1931 391 2161 520 
Q 2391 650 2566 903 
Q 2750 1166 2856 1509 
Q 2963 1853 2963 2188 
Q 2963 2622 2758 2865 
Q 2553 3109 2194 3109 
Q 1922 3109 1687 2981 
Q 1453 2853 1288 2613 
Q 1106 2353 998 2009 
Q 891 1666 891 1350 
z
" transform="scale(0.015625)"/>
     </defs>
     <use xlink:href="#DejaVuSans-Oblique-4d"/>
     <use xlink:href="#DejaVuSans-Oblique-65" x="86.279297"/>
     <use xlink:href="#DejaVuSans-Oblique-64" x="147.802734"/>
     <use xlink:href="#DejaVuSans-Oblique-69" x="211.279297"/>
     <use xlink:href="#DejaVuSans-Oblique-61" x="239.0625"/>
     <use xlink:href="#DejaVuSans-Oblique-6e" x="300.341797"/>
    </g>
   </g>
  </g>
 </g>
 <defs>
  <clipPath id="pb47063c45d">
   <rect x="48.982813" y="8.534005" width="540.77" height="302.657854"/>
  </clipPath>
 </defs>
</svg>
