<?xml version="1.0" encoding="utf-8" standalone="no"?>
<!DOCTYPE svg PUBLIC "-//W3C//DTD SVG 1.1//EN"
  "http://www.w3.org/Graphics/SVG/1.1/DTD/svg11.dtd">
<svg xmlns:xlink="http://www.w3.org/1999/xlink" width="637.94375pt" height="376.405089pt" viewBox="0 0 637.94375 376.405089" xmlns="http://www.w3.org/2000/svg" version="1.1">
 <metadata>
  <rdf:RDF xmlns:dc="http://purl.org/dc/elements/1.1/" xmlns:cc="http://creativecommons.org/ns#" xmlns:rdf="http://www.w3.org/1999/02/22-rdf-syntax-ns#">
   <cc:Work>
    <dc:type rdf:resource="http://purl.org/dc/dcmitype/StillImage"/>
    <dc:date>2025-06-05T17:18:09.274217</dc:date>
    <dc:format>image/svg+xml</dc:format>
    <dc:creator>
     <cc:Agent>
      <dc:title>Matplotlib v3.7.5, https://matplotlib.org/</dc:title>
     </cc:Agent>
    </dc:creator>
   </cc:Work>
  </rdf:RDF>
 </metadata>
 <defs>
  <style type="text/css">*{stroke-linejoin: round; stroke-linecap: butt}</style>
 </defs>
 <g id="figure_1">
  <g id="patch_1">
   <path d="M 0 376.405089 
L 637.94375 376.405089 
L 637.94375 0 
L 0 0 
z
" style="fill: #ffffff"/>
  </g>
  <g id="axes_1">
   <g id="patch_2">
    <path d="M 58.441875 311.365089 
L 579.501875 311.365089 
L 579.501875 10.564218 
L 58.441875 10.564218 
z
" style="fill: #ffffff"/>
   </g>
   <g id="matplotlib.axis_1">
    <g id="xtick_1">
     <g id="line2d_1">
      <defs>
       <path id="m6144d0104d" d="M 0 0 
L 0 3.5 
" style="stroke: #000000; stroke-width: 0.8"/>
      </defs>
      <g>
       <use xlink:href="#m6144d0104d" x="82.12642" y="311.365089" style="stroke: #000000; stroke-width: 0.8"/>
      </g>
     </g>
     <g id="text_1">
      <!-- 0 -->
      <g transform="translate(78.94517 325.963526) scale(0.1 -0.1)">
       <defs>
        <path id="DejaVuSans-Oblique-30" d="M 2444 4750 
Q 3078 4750 3414 4328 
Q 3750 3906 3750 3116 
Q 3750 2516 3592 1923 
Q 3434 1331 3150 863 
Q 2859 394 2467 151 
Q 2075 -91 1600 -91 
Q 988 -91 653 334 
Q 319 759 319 1544 
Q 319 2138 480 2733 
Q 641 3328 928 3794 
Q 1216 4263 1602 4506 
Q 1988 4750 2444 4750 
z
M 2406 4250 
Q 2169 4250 1955 4123 
Q 1741 3997 1569 3750 
Q 1281 3338 1111 2720 
Q 941 2103 941 1453 
Q 941 938 1123 673 
Q 1306 409 1663 409 
Q 1913 409 2125 536 
Q 2338 663 2509 909 
Q 2794 1319 2961 1936 
Q 3128 2553 3128 3206 
Q 3128 3722 2945 3986 
Q 2763 4250 2406 4250 
z
" transform="scale(0.015625)"/>
       </defs>
       <use xlink:href="#DejaVuSans-Oblique-30"/>
      </g>
     </g>
    </g>
    <g id="xtick_2">
     <g id="line2d_2">
      <g>
       <use xlink:href="#m6144d0104d" x="142.087295" y="311.365089" style="stroke: #000000; stroke-width: 0.8"/>
      </g>
     </g>
     <g id="text_2">
      <!-- 10 -->
      <g transform="translate(135.724795 325.963526) scale(0.1 -0.1)">
       <defs>
        <path id="DejaVuSans-Oblique-31" d="M 416 531 
L 1447 531 
L 2144 4122 
L 978 3897 
L 1088 4441 
L 2247 4666 
L 2881 4666 
L 2075 531 
L 3103 531 
L 3003 0 
L 313 0 
L 416 531 
z
" transform="scale(0.015625)"/>
       </defs>
       <use xlink:href="#DejaVuSans-Oblique-31"/>
       <use xlink:href="#DejaVuSans-Oblique-30" x="63.623047"/>
      </g>
     </g>
    </g>
    <g id="xtick_3">
     <g id="line2d_3">
      <g>
       <use xlink:href="#m6144d0104d" x="202.04817" y="311.365089" style="stroke: #000000; stroke-width: 0.8"/>
      </g>
     </g>
     <g id="text_3">
      <!-- 20 -->
      <g transform="translate(195.68567 325.963526) scale(0.1 -0.1)">
       <defs>
        <path id="DejaVuSans-Oblique-32" d="M 2950 2253 
L 934 525 
L 3163 525 
L 3053 0 
L 25 0 
L 128 531 
L 2234 2338 
Q 2656 2703 2832 2979 
Q 3009 3256 3009 3547 
Q 3009 3850 2796 4040 
Q 2584 4231 2241 4231 
Q 1944 4231 1581 4125 
Q 1219 4019 806 3816 
L 922 4441 
Q 1309 4594 1662 4672 
Q 2016 4750 2316 4750 
Q 2928 4750 3301 4425 
Q 3675 4100 3675 3572 
Q 3675 3216 3497 2892 
Q 3319 2569 2950 2253 
z
" transform="scale(0.015625)"/>
       </defs>
       <use xlink:href="#DejaVuSans-Oblique-32"/>
       <use xlink:href="#DejaVuSans-Oblique-30" x="63.623047"/>
      </g>
     </g>
    </g>
    <g id="xtick_4">
     <g id="line2d_4">
      <g>
       <use xlink:href="#m6144d0104d" x="262.009044" y="311.365089" style="stroke: #000000; stroke-width: 0.8"/>
      </g>
     </g>
     <g id="text_4">
      <!-- 30 -->
      <g transform="translate(255.646544 325.963526) scale(0.1 -0.1)">
       <defs>
        <path id="DejaVuSans-Oblique-33" d="M 1013 4550 
Q 1356 4650 1679 4700 
Q 2003 4750 2316 4750 
Q 2934 4750 3296 4475 
Q 3659 4200 3659 3738 
Q 3659 3284 3373 2959 
Q 3088 2634 2584 2516 
Q 2978 2403 3162 2165 
Q 3347 1928 3347 1538 
Q 3347 1163 3167 834 
Q 2988 506 2650 269 
Q 2394 88 2037 -1 
Q 1681 -91 1216 -91 
Q 922 -91 622 -33 
Q 322 25 13 141 
L 128 738 
Q 422 575 720 495 
Q 1019 416 1331 416 
Q 1947 416 2330 733 
Q 2713 1050 2713 1556 
Q 2713 1881 2469 2057 
Q 2225 2234 1772 2234 
L 1228 2234 
L 1325 2747 
L 1900 2747 
Q 2419 2747 2717 2984 
Q 3016 3222 3016 3628 
Q 3016 3922 2797 4083 
Q 2578 4244 2181 4244 
Q 1881 4244 1567 4180 
Q 1253 4116 916 3988 
L 1013 4550 
z
" transform="scale(0.015625)"/>
       </defs>
       <use xlink:href="#DejaVuSans-Oblique-33"/>
       <use xlink:href="#DejaVuSans-Oblique-30" x="63.623047"/>
      </g>
     </g>
    </g>
    <g id="xtick_5">
     <g id="line2d_5">
      <g>
       <use xlink:href="#m6144d0104d" x="321.969919" y="311.365089" style="stroke: #000000; stroke-width: 0.8"/>
      </g>
     </g>
     <g id="text_5">
      <!-- 40 -->
      <g transform="translate(315.607419 325.963526) scale(0.1 -0.1)">
       <defs>
        <path id="DejaVuSans-Oblique-34" d="M 2753 4666 
L 3547 4666 
L 2950 1625 
L 3616 1625 
L 3513 1100 
L 2847 1100 
L 2638 0 
L 2009 0 
L 2222 1100 
L 116 1100 
L 238 1709 
L 2753 4666 
z
M 2809 4116 
L 728 1625 
L 2322 1625 
L 2809 4116 
z
" transform="scale(0.015625)"/>
       </defs>
       <use xlink:href="#DejaVuSans-Oblique-34"/>
       <use xlink:href="#DejaVuSans-Oblique-30" x="63.623047"/>
      </g>
     </g>
    </g>
    <g id="xtick_6">
     <g id="line2d_6">
      <g>
       <use xlink:href="#m6144d0104d" x="381.930793" y="311.365089" style="stroke: #000000; stroke-width: 0.8"/>
      </g>
     </g>
     <g id="text_6">
      <!-- 50 -->
      <g transform="translate(375.568293 325.963526) scale(0.1 -0.1)">
       <defs>
        <path id="DejaVuSans-Oblique-35" d="M 3719 4666 
L 3622 4141 
L 1691 4141 
L 1466 2988 
Q 1609 3034 1757 3056 
Q 1906 3078 2059 3078 
Q 2706 3078 3081 2731 
Q 3456 2384 3456 1791 
Q 3456 1375 3264 994 
Q 3072 613 2719 325 
Q 2469 125 2108 17 
Q 1747 -91 1319 -91 
Q 1038 -91 744 -41 
Q 450 9 128 109 
L 244 697 
Q 531 556 820 486 
Q 1109 416 1403 416 
Q 2013 416 2411 781 
Q 2809 1147 2809 1697 
Q 2809 2103 2548 2328 
Q 2288 2553 1819 2553 
Q 1572 2553 1305 2495 
Q 1038 2438 756 2322 
L 1209 4666 
L 3719 4666 
z
" transform="scale(0.015625)"/>
       </defs>
       <use xlink:href="#DejaVuSans-Oblique-35"/>
       <use xlink:href="#DejaVuSans-Oblique-30" x="63.623047"/>
      </g>
     </g>
    </g>
    <g id="xtick_7">
     <g id="line2d_7">
      <g>
       <use xlink:href="#m6144d0104d" x="441.891668" y="311.365089" style="stroke: #000000; stroke-width: 0.8"/>
      </g>
     </g>
     <g id="text_7">
      <!-- 60 -->
      <g transform="translate(435.529168 325.963526) scale(0.1 -0.1)">
       <defs>
        <path id="DejaVuSans-Oblique-36" d="M 2938 1728 
Q 2938 2125 2734 2354 
Q 2531 2584 2181 2584 
Q 1697 2584 1367 2211 
Q 1038 1838 1038 1288 
Q 1038 875 1239 642 
Q 1441 409 1797 409 
Q 2284 409 2611 792 
Q 2938 1175 2938 1728 
z
M 3788 4556 
L 3681 3981 
Q 3500 4100 3265 4162 
Q 3031 4225 2766 4225 
Q 2119 4225 1726 3819 
Q 1334 3413 1141 2547 
Q 1369 2813 1670 2948 
Q 1972 3084 2322 3084 
Q 2894 3084 3233 2754 
Q 3572 2425 3572 1869 
Q 3572 1413 3405 1020 
Q 3238 628 2919 331 
Q 2700 128 2409 18 
Q 2119 -91 1791 -91 
Q 1147 -91 775 318 
Q 403 728 403 1441 
Q 403 2103 573 2717 
Q 744 3331 1050 3781 
Q 1372 4256 1830 4503 
Q 2288 4750 2841 4750 
Q 3084 4750 3321 4701 
Q 3559 4653 3788 4556 
z
" transform="scale(0.015625)"/>
       </defs>
       <use xlink:href="#DejaVuSans-Oblique-36"/>
       <use xlink:href="#DejaVuSans-Oblique-30" x="63.623047"/>
      </g>
     </g>
    </g>
    <g id="xtick_8">
     <g id="line2d_8">
      <g>
       <use xlink:href="#m6144d0104d" x="501.852542" y="311.365089" style="stroke: #000000; stroke-width: 0.8"/>
      </g>
     </g>
     <g id="text_8">
      <!-- 70 -->
      <g transform="translate(495.490042 325.963526) scale(0.1 -0.1)">
       <defs>
        <path id="DejaVuSans-Oblique-37" d="M 819 4666 
L 4013 4666 
L 3956 4397 
L 1288 0 
L 594 0 
L 3116 4134 
L 716 4134 
L 819 4666 
z
" transform="scale(0.015625)"/>
       </defs>
       <use xlink:href="#DejaVuSans-Oblique-37"/>
       <use xlink:href="#DejaVuSans-Oblique-30" x="63.623047"/>
      </g>
     </g>
    </g>
    <g id="xtick_9">
     <g id="line2d_9">
      <g>
       <use xlink:href="#m6144d0104d" x="561.813417" y="311.365089" style="stroke: #000000; stroke-width: 0.8"/>
      </g>
     </g>
     <g id="text_9">
      <!-- 80 -->
      <g transform="translate(555.450917 325.963526) scale(0.1 -0.1)">
       <defs>
        <path id="DejaVuSans-Oblique-38" d="M 2847 1416 
Q 2847 1769 2600 1992 
Q 2353 2216 1953 2216 
Q 1466 2216 1148 1923 
Q 831 1631 831 1184 
Q 831 828 1073 618 
Q 1316 409 1728 409 
Q 2219 409 2533 693 
Q 2847 978 2847 1416 
z
M 3169 3591 
Q 3169 3888 2950 4069 
Q 2731 4250 2369 4250 
Q 1941 4250 1664 4009 
Q 1388 3769 1388 3406 
Q 1388 3094 1605 2903 
Q 1822 2713 2181 2713 
Q 2613 2713 2891 2961 
Q 3169 3209 3169 3591 
z
M 2741 2456 
Q 3094 2322 3281 2050 
Q 3469 1778 3469 1394 
Q 3469 747 2969 328 
Q 2469 -91 1678 -91 
Q 1006 -91 609 239 
Q 213 569 213 1119 
Q 213 1619 553 2008 
Q 894 2397 1441 2503 
Q 1113 2616 941 2852 
Q 769 3088 769 3425 
Q 769 3991 1239 4370 
Q 1709 4750 2431 4750 
Q 3034 4750 3414 4442 
Q 3794 4134 3794 3659 
Q 3794 3247 3511 2923 
Q 3228 2600 2741 2456 
z
" transform="scale(0.015625)"/>
       </defs>
       <use xlink:href="#DejaVuSans-Oblique-38"/>
       <use xlink:href="#DejaVuSans-Oblique-30" x="63.623047"/>
      </g>
     </g>
    </g>
    <g id="text_10">
     <!-- Iterations -->
     <g transform="translate(290.395937 341.161339) scale(0.12 -0.12)">
      <defs>
       <path id="DejaVuSans-Oblique-49" d="M 1081 4666 
L 1716 4666 
L 806 0 
L 172 0 
L 1081 4666 
z
" transform="scale(0.015625)"/>
       <path id="DejaVuSans-Oblique-74" d="M 2706 3500 
L 2619 3053 
L 1472 3053 
L 1100 1153 
Q 1081 1047 1072 975 
Q 1063 903 1063 863 
Q 1063 663 1183 572 
Q 1303 481 1569 481 
L 2150 481 
L 2053 0 
L 1503 0 
Q 991 0 739 200 
Q 488 400 488 806 
Q 488 878 497 964 
Q 506 1050 525 1153 
L 897 3053 
L 409 3053 
L 500 3500 
L 978 3500 
L 1172 4494 
L 1747 4494 
L 1556 3500 
L 2706 3500 
z
" transform="scale(0.015625)"/>
       <path id="DejaVuSans-Oblique-65" d="M 3078 2063 
Q 3088 2113 3092 2166 
Q 3097 2219 3097 2272 
Q 3097 2653 2873 2875 
Q 2650 3097 2266 3097 
Q 1838 3097 1509 2826 
Q 1181 2556 1013 2059 
L 3078 2063 
z
M 3578 1613 
L 903 1613 
Q 884 1494 878 1425 
Q 872 1356 872 1306 
Q 872 872 1139 634 
Q 1406 397 1894 397 
Q 2269 397 2603 481 
Q 2938 566 3225 728 
L 3116 159 
Q 2806 34 2476 -28 
Q 2147 -91 1806 -91 
Q 1078 -91 686 257 
Q 294 606 294 1247 
Q 294 1794 489 2264 
Q 684 2734 1063 3103 
Q 1306 3334 1642 3459 
Q 1978 3584 2356 3584 
Q 2950 3584 3301 3228 
Q 3653 2872 3653 2272 
Q 3653 2128 3634 1964 
Q 3616 1800 3578 1613 
z
" transform="scale(0.015625)"/>
       <path id="DejaVuSans-Oblique-72" d="M 2853 2969 
Q 2766 3016 2653 3041 
Q 2541 3066 2413 3066 
Q 1953 3066 1609 2717 
Q 1266 2369 1153 1784 
L 800 0 
L 225 0 
L 909 3500 
L 1484 3500 
L 1375 2956 
Q 1603 3259 1920 3421 
Q 2238 3584 2597 3584 
Q 2691 3584 2781 3573 
Q 2872 3563 2963 3538 
L 2853 2969 
z
" transform="scale(0.015625)"/>
       <path id="DejaVuSans-Oblique-61" d="M 3438 1997 
L 3047 0 
L 2472 0 
L 2578 531 
Q 2325 219 2001 64 
Q 1678 -91 1281 -91 
Q 834 -91 548 182 
Q 263 456 263 884 
Q 263 1497 752 1853 
Q 1241 2209 2100 2209 
L 2900 2209 
L 2931 2363 
Q 2938 2388 2941 2417 
Q 2944 2447 2944 2509 
Q 2944 2788 2717 2942 
Q 2491 3097 2081 3097 
Q 1800 3097 1504 3025 
Q 1209 2953 897 2809 
L 997 3341 
Q 1322 3463 1633 3523 
Q 1944 3584 2234 3584 
Q 2853 3584 3176 3315 
Q 3500 3047 3500 2534 
Q 3500 2431 3484 2292 
Q 3469 2153 3438 1997 
z
M 2816 1759 
L 2241 1759 
Q 1534 1759 1195 1570 
Q 856 1381 856 984 
Q 856 709 1029 553 
Q 1203 397 1509 397 
Q 1978 397 2328 733 
Q 2678 1069 2791 1631 
L 2816 1759 
z
" transform="scale(0.015625)"/>
       <path id="DejaVuSans-Oblique-69" d="M 1172 4863 
L 1747 4863 
L 1606 4134 
L 1031 4134 
L 1172 4863 
z
M 909 3500 
L 1484 3500 
L 800 0 
L 225 0 
L 909 3500 
z
" transform="scale(0.015625)"/>
       <path id="DejaVuSans-Oblique-6f" d="M 1625 -91 
Q 1009 -91 651 289 
Q 294 669 294 1325 
Q 294 1706 417 2101 
Q 541 2497 738 2766 
Q 1047 3184 1428 3384 
Q 1809 3584 2291 3584 
Q 2888 3584 3255 3212 
Q 3622 2841 3622 2241 
Q 3622 1825 3500 1412 
Q 3378 1000 3181 728 
Q 2875 309 2494 109 
Q 2113 -91 1625 -91 
z
M 891 1344 
Q 891 869 1089 633 
Q 1288 397 1691 397 
Q 2269 397 2648 901 
Q 3028 1406 3028 2181 
Q 3028 2634 2825 2865 
Q 2622 3097 2228 3097 
Q 1903 3097 1650 2945 
Q 1397 2794 1197 2484 
Q 1050 2253 970 1956 
Q 891 1659 891 1344 
z
" transform="scale(0.015625)"/>
       <path id="DejaVuSans-Oblique-6e" d="M 3566 2113 
L 3156 0 
L 2578 0 
L 2988 2091 
Q 3016 2238 3031 2350 
Q 3047 2463 3047 2528 
Q 3047 2791 2881 2937 
Q 2716 3084 2419 3084 
Q 1956 3084 1622 2776 
Q 1288 2469 1184 1941 
L 800 0 
L 225 0 
L 903 3500 
L 1478 3500 
L 1363 2950 
Q 1603 3253 1940 3418 
Q 2278 3584 2650 3584 
Q 3113 3584 3367 3334 
Q 3622 3084 3622 2631 
Q 3622 2519 3608 2391 
Q 3594 2263 3566 2113 
z
" transform="scale(0.015625)"/>
       <path id="DejaVuSans-Oblique-73" d="M 3200 3397 
L 3091 2853 
Q 2863 2978 2609 3040 
Q 2356 3103 2088 3103 
Q 1634 3103 1373 2948 
Q 1113 2794 1113 2528 
Q 1113 2219 1719 2053 
Q 1766 2041 1788 2034 
L 1972 1978 
Q 2547 1819 2739 1644 
Q 2931 1469 2931 1166 
Q 2931 609 2489 259 
Q 2047 -91 1331 -91 
Q 1053 -91 747 -37 
Q 441 16 72 128 
L 184 722 
Q 500 559 806 475 
Q 1113 391 1394 391 
Q 1816 391 2080 572 
Q 2344 753 2344 1031 
Q 2344 1331 1650 1516 
L 1591 1531 
L 1394 1581 
Q 956 1697 753 1886 
Q 550 2075 550 2369 
Q 550 2928 970 3256 
Q 1391 3584 2113 3584 
Q 2397 3584 2667 3537 
Q 2938 3491 3200 3397 
z
" transform="scale(0.015625)"/>
      </defs>
      <use xlink:href="#DejaVuSans-Oblique-49"/>
      <use xlink:href="#DejaVuSans-Oblique-74" x="29.492188"/>
      <use xlink:href="#DejaVuSans-Oblique-65" x="68.701172"/>
      <use xlink:href="#DejaVuSans-Oblique-72" x="130.224609"/>
      <use xlink:href="#DejaVuSans-Oblique-61" x="171.337891"/>
      <use xlink:href="#DejaVuSans-Oblique-74" x="232.617188"/>
      <use xlink:href="#DejaVuSans-Oblique-69" x="271.826172"/>
      <use xlink:href="#DejaVuSans-Oblique-6f" x="299.609375"/>
      <use xlink:href="#DejaVuSans-Oblique-6e" x="360.791016"/>
      <use xlink:href="#DejaVuSans-Oblique-73" x="424.169922"/>
     </g>
    </g>
   </g>
   <g id="matplotlib.axis_2">
    <g id="ytick_1">
     <g id="line2d_10">
      <defs>
       <path id="m77eb0b2562" d="M 0 0 
L -3.5 0 
" style="stroke: #000000; stroke-width: 0.8"/>
      </defs>
      <g>
       <use xlink:href="#m77eb0b2562" x="58.441875" y="292.989824" style="stroke: #000000; stroke-width: 0.8"/>
      </g>
     </g>
     <g id="text_11">
      <!-- 0.120 -->
      <g transform="translate(22.81375 296.789043) scale(0.1 -0.1)">
       <defs>
        <path id="DejaVuSans-Oblique-2e" d="M 525 794 
L 1184 794 
L 1031 0 
L 372 0 
L 525 794 
z
" transform="scale(0.015625)"/>
       </defs>
       <use xlink:href="#DejaVuSans-Oblique-30"/>
       <use xlink:href="#DejaVuSans-Oblique-2e" x="63.623047"/>
       <use xlink:href="#DejaVuSans-Oblique-31" x="95.410156"/>
       <use xlink:href="#DejaVuSans-Oblique-32" x="159.033203"/>
       <use xlink:href="#DejaVuSans-Oblique-30" x="222.65625"/>
      </g>
     </g>
    </g>
    <g id="ytick_2">
     <g id="line2d_11">
      <g>
       <use xlink:href="#m77eb0b2562" x="58.441875" y="257.807923" style="stroke: #000000; stroke-width: 0.8"/>
      </g>
     </g>
     <g id="text_12">
      <!-- 0.125 -->
      <g transform="translate(22.81375 261.607142) scale(0.1 -0.1)">
       <use xlink:href="#DejaVuSans-Oblique-30"/>
       <use xlink:href="#DejaVuSans-Oblique-2e" x="63.623047"/>
       <use xlink:href="#DejaVuSans-Oblique-31" x="95.410156"/>
       <use xlink:href="#DejaVuSans-Oblique-32" x="159.033203"/>
       <use xlink:href="#DejaVuSans-Oblique-35" x="222.65625"/>
      </g>
     </g>
    </g>
    <g id="ytick_3">
     <g id="line2d_12">
      <g>
       <use xlink:href="#m77eb0b2562" x="58.441875" y="222.626023" style="stroke: #000000; stroke-width: 0.8"/>
      </g>
     </g>
     <g id="text_13">
      <!-- 0.130 -->
      <g transform="translate(22.81375 226.425242) scale(0.1 -0.1)">
       <use xlink:href="#DejaVuSans-Oblique-30"/>
       <use xlink:href="#DejaVuSans-Oblique-2e" x="63.623047"/>
       <use xlink:href="#DejaVuSans-Oblique-31" x="95.410156"/>
       <use xlink:href="#DejaVuSans-Oblique-33" x="159.033203"/>
       <use xlink:href="#DejaVuSans-Oblique-30" x="222.65625"/>
      </g>
     </g>
    </g>
    <g id="ytick_4">
     <g id="line2d_13">
      <g>
       <use xlink:href="#m77eb0b2562" x="58.441875" y="187.444122" style="stroke: #000000; stroke-width: 0.8"/>
      </g>
     </g>
     <g id="text_14">
      <!-- 0.135 -->
      <g transform="translate(22.81375 191.243341) scale(0.1 -0.1)">
       <use xlink:href="#DejaVuSans-Oblique-30"/>
       <use xlink:href="#DejaVuSans-Oblique-2e" x="63.623047"/>
       <use xlink:href="#DejaVuSans-Oblique-31" x="95.410156"/>
       <use xlink:href="#DejaVuSans-Oblique-33" x="159.033203"/>
       <use xlink:href="#DejaVuSans-Oblique-35" x="222.65625"/>
      </g>
     </g>
    </g>
    <g id="ytick_5">
     <g id="line2d_14">
      <g>
       <use xlink:href="#m77eb0b2562" x="58.441875" y="152.262222" style="stroke: #000000; stroke-width: 0.8"/>
      </g>
     </g>
     <g id="text_15">
      <!-- 0.140 -->
      <g transform="translate(22.81375 156.061441) scale(0.1 -0.1)">
       <use xlink:href="#DejaVuSans-Oblique-30"/>
       <use xlink:href="#DejaVuSans-Oblique-2e" x="63.623047"/>
       <use xlink:href="#DejaVuSans-Oblique-31" x="95.410156"/>
       <use xlink:href="#DejaVuSans-Oblique-34" x="159.033203"/>
       <use xlink:href="#DejaVuSans-Oblique-30" x="222.65625"/>
      </g>
     </g>
    </g>
    <g id="ytick_6">
     <g id="line2d_15">
      <g>
       <use xlink:href="#m77eb0b2562" x="58.441875" y="117.080321" style="stroke: #000000; stroke-width: 0.8"/>
      </g>
     </g>
     <g id="text_16">
      <!-- 0.145 -->
      <g transform="translate(22.81375 120.87954) scale(0.1 -0.1)">
       <use xlink:href="#DejaVuSans-Oblique-30"/>
       <use xlink:href="#DejaVuSans-Oblique-2e" x="63.623047"/>
       <use xlink:href="#DejaVuSans-Oblique-31" x="95.410156"/>
       <use xlink:href="#DejaVuSans-Oblique-34" x="159.033203"/>
       <use xlink:href="#DejaVuSans-Oblique-35" x="222.65625"/>
      </g>
     </g>
    </g>
    <g id="ytick_7">
     <g id="line2d_16">
      <g>
       <use xlink:href="#m77eb0b2562" x="58.441875" y="81.898421" style="stroke: #000000; stroke-width: 0.8"/>
      </g>
     </g>
     <g id="text_17">
      <!-- 0.150 -->
      <g transform="translate(22.81375 85.69764) scale(0.1 -0.1)">
       <use xlink:href="#DejaVuSans-Oblique-30"/>
       <use xlink:href="#DejaVuSans-Oblique-2e" x="63.623047"/>
       <use xlink:href="#DejaVuSans-Oblique-31" x="95.410156"/>
       <use xlink:href="#DejaVuSans-Oblique-35" x="159.033203"/>
       <use xlink:href="#DejaVuSans-Oblique-30" x="222.65625"/>
      </g>
     </g>
    </g>
    <g id="ytick_8">
     <g id="line2d_17">
      <g>
       <use xlink:href="#m77eb0b2562" x="58.441875" y="46.71652" style="stroke: #000000; stroke-width: 0.8"/>
      </g>
     </g>
     <g id="text_18">
      <!-- 0.155 -->
      <g transform="translate(22.81375 50.515739) scale(0.1 -0.1)">
       <use xlink:href="#DejaVuSans-Oblique-30"/>
       <use xlink:href="#DejaVuSans-Oblique-2e" x="63.623047"/>
       <use xlink:href="#DejaVuSans-Oblique-31" x="95.410156"/>
       <use xlink:href="#DejaVuSans-Oblique-35" x="159.033203"/>
       <use xlink:href="#DejaVuSans-Oblique-35" x="222.65625"/>
      </g>
     </g>
    </g>
    <g id="ytick_9">
     <g id="line2d_18">
      <g>
       <use xlink:href="#m77eb0b2562" x="58.441875" y="11.53462" style="stroke: #000000; stroke-width: 0.8"/>
      </g>
     </g>
     <g id="text_19">
      <!-- 0.160 -->
      <g transform="translate(22.81375 15.333839) scale(0.1 -0.1)">
       <use xlink:href="#DejaVuSans-Oblique-30"/>
       <use xlink:href="#DejaVuSans-Oblique-2e" x="63.623047"/>
       <use xlink:href="#DejaVuSans-Oblique-31" x="95.410156"/>
       <use xlink:href="#DejaVuSans-Oblique-36" x="159.033203"/>
       <use xlink:href="#DejaVuSans-Oblique-30" x="222.65625"/>
      </g>
     </g>
    </g>
    <g id="text_20">
     <!-- Standard Deviation -->
     <g transform="translate(16.318125 218.973403) rotate(-90) scale(0.12 -0.12)">
      <defs>
       <path id="DejaVuSans-Oblique-53" d="M 3859 4513 
L 3738 3897 
Q 3422 4066 3111 4152 
Q 2800 4238 2509 4238 
Q 1944 4238 1609 3991 
Q 1275 3744 1275 3334 
Q 1275 3109 1398 2989 
Q 1522 2869 2034 2731 
L 2413 2638 
Q 3053 2472 3303 2217 
Q 3553 1963 3553 1503 
Q 3553 797 2998 353 
Q 2444 -91 1538 -91 
Q 1166 -91 791 -17 
Q 416 56 38 206 
L 166 856 
Q 513 641 861 531 
Q 1209 422 1556 422 
Q 2147 422 2503 684 
Q 2859 947 2859 1369 
Q 2859 1650 2717 1795 
Q 2575 1941 2106 2059 
L 1728 2156 
Q 1081 2325 845 2545 
Q 609 2766 609 3163 
Q 609 3859 1145 4304 
Q 1681 4750 2541 4750 
Q 2875 4750 3203 4690 
Q 3531 4631 3859 4513 
z
" transform="scale(0.015625)"/>
       <path id="DejaVuSans-Oblique-64" d="M 2675 525 
Q 2444 222 2128 65 
Q 1813 -91 1428 -91 
Q 903 -91 598 267 
Q 294 625 294 1247 
Q 294 1766 478 2236 
Q 663 2706 1013 3078 
Q 1244 3325 1534 3454 
Q 1825 3584 2144 3584 
Q 2481 3584 2739 3421 
Q 2997 3259 3138 2956 
L 3513 4863 
L 4091 4863 
L 3144 0 
L 2566 0 
L 2675 525 
z
M 891 1350 
Q 891 897 1095 644 
Q 1300 391 1663 391 
Q 1931 391 2161 520 
Q 2391 650 2566 903 
Q 2750 1166 2856 1509 
Q 2963 1853 2963 2188 
Q 2963 2622 2758 2865 
Q 2553 3109 2194 3109 
Q 1922 3109 1687 2981 
Q 1453 2853 1288 2613 
Q 1106 2353 998 2009 
Q 891 1666 891 1350 
z
" transform="scale(0.015625)"/>
       <path id="DejaVuSans-Oblique-20" transform="scale(0.015625)"/>
       <path id="DejaVuSans-Oblique-44" d="M 1081 4666 
L 2438 4666 
Q 3519 4666 4070 4208 
Q 4622 3750 4622 2847 
Q 4622 2250 4412 1698 
Q 4203 1147 3834 769 
Q 3463 381 2891 190 
Q 2319 0 1538 0 
L 172 0 
L 1081 4666 
z
M 1613 4147 
L 909 519 
L 1734 519 
Q 2794 519 3375 1128 
Q 3956 1738 3956 2847 
Q 3956 3519 3581 3833 
Q 3206 4147 2406 4147 
L 1613 4147 
z
" transform="scale(0.015625)"/>
       <path id="DejaVuSans-Oblique-76" d="M 459 3500 
L 1069 3500 
L 1581 525 
L 3256 3500 
L 3866 3500 
L 1875 0 
L 1100 0 
L 459 3500 
z
" transform="scale(0.015625)"/>
      </defs>
      <use xlink:href="#DejaVuSans-Oblique-53"/>
      <use xlink:href="#DejaVuSans-Oblique-74" x="63.476562"/>
      <use xlink:href="#DejaVuSans-Oblique-61" x="102.685547"/>
      <use xlink:href="#DejaVuSans-Oblique-6e" x="163.964844"/>
      <use xlink:href="#DejaVuSans-Oblique-64" x="227.34375"/>
      <use xlink:href="#DejaVuSans-Oblique-61" x="290.820312"/>
      <use xlink:href="#DejaVuSans-Oblique-72" x="352.099609"/>
      <use xlink:href="#DejaVuSans-Oblique-64" x="393.212891"/>
      <use xlink:href="#DejaVuSans-Oblique-20" x="456.689453"/>
      <use xlink:href="#DejaVuSans-Oblique-44" x="488.476562"/>
      <use xlink:href="#DejaVuSans-Oblique-65" x="565.478516"/>
      <use xlink:href="#DejaVuSans-Oblique-76" x="627.001953"/>
      <use xlink:href="#DejaVuSans-Oblique-69" x="686.181641"/>
      <use xlink:href="#DejaVuSans-Oblique-61" x="713.964844"/>
      <use xlink:href="#DejaVuSans-Oblique-74" x="775.244141"/>
      <use xlink:href="#DejaVuSans-Oblique-69" x="814.453125"/>
      <use xlink:href="#DejaVuSans-Oblique-6f" x="842.236328"/>
      <use xlink:href="#DejaVuSans-Oblique-6e" x="903.417969"/>
     </g>
    </g>
   </g>
   <g id="line2d_19">
    <path d="M 82.12642 62.021738 
L 88.122508 57.181283 
L 94.118595 82.064702 
L 100.114683 63.996366 
L 106.11077 38.775709 
L 112.106858 52.082455 
L 118.102945 24.236985 
L 124.099033 45.587518 
L 130.09512 69.140081 
L 136.091208 50.704205 
L 142.087295 75.716322 
L 148.083382 85.552113 
L 154.07947 106.105091 
L 160.075557 134.87112 
L 166.071645 155.477608 
L 172.067732 168.212314 
L 178.06382 183.952872 
L 184.059907 205.413706 
L 190.055995 217.992943 
L 196.052082 211.382952 
L 202.04817 189.816991 
L 208.044257 208.462984 
L 214.040345 205.802564 
L 220.036432 181.53071 
L 226.032519 189.504765 
L 232.028607 203.572156 
L 238.024694 204.781529 
L 244.020782 200.084421 
L 250.016869 198.326105 
L 256.012957 183.635009 
L 262.009044 179.866646 
L 268.005132 186.111173 
L 274.001219 196.660111 
L 279.997307 190.211192 
L 285.993394 187.581325 
L 291.989481 196.729024 
L 297.985569 208.982405 
L 303.981656 218.021175 
L 309.977744 226.792138 
L 315.973831 234.387111 
L 321.969919 230.447703 
L 327.966006 229.788273 
L 333.962094 239.662149 
L 339.958181 239.324386 
L 345.954269 239.742778 
L 351.950356 235.067323 
L 357.946443 230.76088 
L 363.942531 225.445447 
L 369.938618 224.979932 
L 375.934706 220.058503 
L 381.930793 216.767831 
L 387.926881 214.710222 
L 393.922968 224.339681 
L 399.919056 229.169755 
L 405.915143 237.597059 
L 411.911231 244.11347 
L 417.907318 249.313825 
L 423.903405 252.956194 
L 429.899493 257.497107 
L 435.89558 259.780956 
L 441.891668 264.474481 
L 447.887755 262.730718 
L 453.883843 262.644441 
L 459.87993 268.296706 
L 465.876018 273.584243 
L 471.872105 278.161385 
L 477.868193 271.993292 
L 483.86428 280.934047 
L 489.860368 286.20777 
L 495.856455 288.713322 
L 501.852542 291.938927 
L 507.84863 295.088879 
L 513.844717 297.692322 
L 519.840805 291.380844 
L 525.836892 290.384806 
L 531.83298 290.369158 
L 537.829067 294.199989 
L 543.825155 282.928232 
L 549.821242 284.279841 
L 555.81733 288.737147 
" clip-path="url(#p54b268ec4e)" style="fill: none; stroke: #808080; stroke-width: 2; stroke-linecap: square"/>
   </g>
   <g id="patch_3">
    <path d="M 58.441875 311.365089 
L 58.441875 10.564218 
" style="fill: none; stroke: #000000; stroke-width: 0.8; stroke-linejoin: miter; stroke-linecap: square"/>
   </g>
   <g id="patch_4">
    <path d="M 579.501875 311.365089 
L 579.501875 10.564218 
" style="fill: none; stroke: #000000; stroke-width: 0.8; stroke-linejoin: miter; stroke-linecap: square"/>
   </g>
   <g id="patch_5">
    <path d="M 58.441875 311.365089 
L 579.501875 311.365089 
" style="fill: none; stroke: #000000; stroke-width: 0.8; stroke-linejoin: miter; stroke-linecap: square"/>
   </g>
   <g id="patch_6">
    <path d="M 58.441875 10.564218 
L 579.501875 10.564218 
" style="fill: none; stroke: #000000; stroke-width: 0.8; stroke-linejoin: miter; stroke-linecap: square"/>
   </g>
  </g>
  <g id="axes_2">
   <g id="matplotlib.axis_3">
    <g id="ytick_10">
     <g id="line2d_20">
      <path d="M 58.441875 285.521843 
L 579.501875 285.521843 
" clip-path="url(#p54b268ec4e)" style="fill: none; stroke-dasharray: 1.85,0.8; stroke-dashoffset: 0; stroke: #d3d3d3; stroke-width: 0.5"/>
     </g>
     <g id="line2d_21">
      <defs>
       <path id="m55a13233b6" d="M 0 0 
L 3.5 0 
" style="stroke: #000000; stroke-width: 0.8"/>
      </defs>
      <g>
       <use xlink:href="#m55a13233b6" x="579.501875" y="285.521843" style="stroke: #000000; stroke-width: 0.8"/>
      </g>
     </g>
     <g id="text_21">
      <!-- 0.020 -->
      <g transform="translate(586.501875 289.321062) scale(0.1 -0.1)">
       <use xlink:href="#DejaVuSans-Oblique-30"/>
       <use xlink:href="#DejaVuSans-Oblique-2e" x="63.623047"/>
       <use xlink:href="#DejaVuSans-Oblique-30" x="95.410156"/>
       <use xlink:href="#DejaVuSans-Oblique-32" x="159.033203"/>
       <use xlink:href="#DejaVuSans-Oblique-30" x="222.65625"/>
      </g>
     </g>
    </g>
    <g id="ytick_11">
     <g id="line2d_22">
      <path d="M 58.441875 239.768073 
L 579.501875 239.768073 
" clip-path="url(#p54b268ec4e)" style="fill: none; stroke-dasharray: 1.85,0.8; stroke-dashoffset: 0; stroke: #d3d3d3; stroke-width: 0.5"/>
     </g>
     <g id="line2d_23">
      <g>
       <use xlink:href="#m55a13233b6" x="579.501875" y="239.768073" style="stroke: #000000; stroke-width: 0.8"/>
      </g>
     </g>
     <g id="text_22">
      <!-- 0.022 -->
      <g transform="translate(586.501875 243.567291) scale(0.1 -0.1)">
       <use xlink:href="#DejaVuSans-Oblique-30"/>
       <use xlink:href="#DejaVuSans-Oblique-2e" x="63.623047"/>
       <use xlink:href="#DejaVuSans-Oblique-30" x="95.410156"/>
       <use xlink:href="#DejaVuSans-Oblique-32" x="159.033203"/>
       <use xlink:href="#DejaVuSans-Oblique-32" x="222.65625"/>
      </g>
     </g>
    </g>
    <g id="ytick_12">
     <g id="line2d_24">
      <path d="M 58.441875 194.014302 
L 579.501875 194.014302 
" clip-path="url(#p54b268ec4e)" style="fill: none; stroke-dasharray: 1.85,0.8; stroke-dashoffset: 0; stroke: #d3d3d3; stroke-width: 0.5"/>
     </g>
     <g id="line2d_25">
      <g>
       <use xlink:href="#m55a13233b6" x="579.501875" y="194.014302" style="stroke: #000000; stroke-width: 0.8"/>
      </g>
     </g>
     <g id="text_23">
      <!-- 0.024 -->
      <g transform="translate(586.501875 197.813521) scale(0.1 -0.1)">
       <use xlink:href="#DejaVuSans-Oblique-30"/>
       <use xlink:href="#DejaVuSans-Oblique-2e" x="63.623047"/>
       <use xlink:href="#DejaVuSans-Oblique-30" x="95.410156"/>
       <use xlink:href="#DejaVuSans-Oblique-32" x="159.033203"/>
       <use xlink:href="#DejaVuSans-Oblique-34" x="222.65625"/>
      </g>
     </g>
    </g>
    <g id="ytick_13">
     <g id="line2d_26">
      <path d="M 58.441875 148.260531 
L 579.501875 148.260531 
" clip-path="url(#p54b268ec4e)" style="fill: none; stroke-dasharray: 1.85,0.8; stroke-dashoffset: 0; stroke: #d3d3d3; stroke-width: 0.5"/>
     </g>
     <g id="line2d_27">
      <g>
       <use xlink:href="#m55a13233b6" x="579.501875" y="148.260531" style="stroke: #000000; stroke-width: 0.8"/>
      </g>
     </g>
     <g id="text_24">
      <!-- 0.026 -->
      <g transform="translate(586.501875 152.05975) scale(0.1 -0.1)">
       <use xlink:href="#DejaVuSans-Oblique-30"/>
       <use xlink:href="#DejaVuSans-Oblique-2e" x="63.623047"/>
       <use xlink:href="#DejaVuSans-Oblique-30" x="95.410156"/>
       <use xlink:href="#DejaVuSans-Oblique-32" x="159.033203"/>
       <use xlink:href="#DejaVuSans-Oblique-36" x="222.65625"/>
      </g>
     </g>
    </g>
    <g id="ytick_14">
     <g id="line2d_28">
      <path d="M 58.441875 102.50676 
L 579.501875 102.50676 
" clip-path="url(#p54b268ec4e)" style="fill: none; stroke-dasharray: 1.85,0.8; stroke-dashoffset: 0; stroke: #d3d3d3; stroke-width: 0.5"/>
     </g>
     <g id="line2d_29">
      <g>
       <use xlink:href="#m55a13233b6" x="579.501875" y="102.50676" style="stroke: #000000; stroke-width: 0.8"/>
      </g>
     </g>
     <g id="text_25">
      <!-- 0.028 -->
      <g transform="translate(586.501875 106.305979) scale(0.1 -0.1)">
       <use xlink:href="#DejaVuSans-Oblique-30"/>
       <use xlink:href="#DejaVuSans-Oblique-2e" x="63.623047"/>
       <use xlink:href="#DejaVuSans-Oblique-30" x="95.410156"/>
       <use xlink:href="#DejaVuSans-Oblique-32" x="159.033203"/>
       <use xlink:href="#DejaVuSans-Oblique-38" x="222.65625"/>
      </g>
     </g>
    </g>
    <g id="ytick_15">
     <g id="line2d_30">
      <path d="M 58.441875 56.75299 
L 579.501875 56.75299 
" clip-path="url(#p54b268ec4e)" style="fill: none; stroke-dasharray: 1.85,0.8; stroke-dashoffset: 0; stroke: #d3d3d3; stroke-width: 0.5"/>
     </g>
     <g id="line2d_31">
      <g>
       <use xlink:href="#m55a13233b6" x="579.501875" y="56.75299" style="stroke: #000000; stroke-width: 0.8"/>
      </g>
     </g>
     <g id="text_26">
      <!-- 0.030 -->
      <g transform="translate(586.501875 60.552208) scale(0.1 -0.1)">
       <use xlink:href="#DejaVuSans-Oblique-30"/>
       <use xlink:href="#DejaVuSans-Oblique-2e" x="63.623047"/>
       <use xlink:href="#DejaVuSans-Oblique-30" x="95.410156"/>
       <use xlink:href="#DejaVuSans-Oblique-33" x="159.033203"/>
       <use xlink:href="#DejaVuSans-Oblique-30" x="222.65625"/>
      </g>
     </g>
    </g>
    <g id="ytick_16">
     <g id="line2d_32">
      <path d="M 58.441875 10.999219 
L 579.501875 10.999219 
" clip-path="url(#p54b268ec4e)" style="fill: none; stroke-dasharray: 1.85,0.8; stroke-dashoffset: 0; stroke: #d3d3d3; stroke-width: 0.5"/>
     </g>
     <g id="line2d_33">
      <g>
       <use xlink:href="#m55a13233b6" x="579.501875" y="10.999219" style="stroke: #000000; stroke-width: 0.8"/>
      </g>
     </g>
     <g id="text_27">
      <!-- 0.032 -->
      <g transform="translate(586.501875 14.798438) scale(0.1 -0.1)">
       <use xlink:href="#DejaVuSans-Oblique-30"/>
       <use xlink:href="#DejaVuSans-Oblique-2e" x="63.623047"/>
       <use xlink:href="#DejaVuSans-Oblique-30" x="95.410156"/>
       <use xlink:href="#DejaVuSans-Oblique-33" x="159.033203"/>
       <use xlink:href="#DejaVuSans-Oblique-32" x="222.65625"/>
      </g>
     </g>
    </g>
    <g id="text_28">
     <!-- Variance -->
     <g transform="translate(628.248125 186.967153) rotate(-90) scale(0.12 -0.12)">
      <defs>
       <path id="DejaVuSans-Oblique-56" d="M 1319 0 
L 500 4666 
L 1119 4666 
L 1797 653 
L 4063 4666 
L 4750 4666 
L 2053 0 
L 1319 0 
z
" transform="scale(0.015625)"/>
       <path id="DejaVuSans-Oblique-63" d="M 3431 3366 
L 3316 2797 
Q 3109 2947 2876 3022 
Q 2644 3097 2394 3097 
Q 2119 3097 1870 3000 
Q 1622 2903 1453 2725 
Q 1184 2453 1037 2087 
Q 891 1722 891 1331 
Q 891 859 1127 628 
Q 1363 397 1844 397 
Q 2081 397 2348 469 
Q 2616 541 2906 684 
L 2797 116 
Q 2547 13 2283 -39 
Q 2019 -91 1741 -91 
Q 1044 -91 669 257 
Q 294 606 294 1253 
Q 294 1797 489 2255 
Q 684 2713 1069 3078 
Q 1331 3328 1684 3456 
Q 2038 3584 2456 3584 
Q 2700 3584 2940 3529 
Q 3181 3475 3431 3366 
z
" transform="scale(0.015625)"/>
      </defs>
      <use xlink:href="#DejaVuSans-Oblique-56"/>
      <use xlink:href="#DejaVuSans-Oblique-61" x="62.033203"/>
      <use xlink:href="#DejaVuSans-Oblique-72" x="123.3125"/>
      <use xlink:href="#DejaVuSans-Oblique-69" x="164.425781"/>
      <use xlink:href="#DejaVuSans-Oblique-61" x="192.208984"/>
      <use xlink:href="#DejaVuSans-Oblique-6e" x="253.488281"/>
      <use xlink:href="#DejaVuSans-Oblique-63" x="316.867188"/>
      <use xlink:href="#DejaVuSans-Oblique-65" x="371.847656"/>
     </g>
    </g>
   </g>
   <g id="line2d_34">
    <path d="M 82.12642 54.643524 
L 88.122508 56.600504 
L 94.118595 81.265105 
L 100.114683 66.158726 
L 106.11077 39.576817 
L 112.106858 56.56781 
L 118.102945 24.236985 
L 124.099033 45.527279 
L 130.09512 66.918151 
L 136.091208 48.970713 
L 142.087295 69.916477 
L 148.083382 82.897189 
L 154.07947 100.948249 
L 160.075557 119.795405 
L 166.071645 136.558622 
L 172.067732 149.889371 
L 178.06382 164.053155 
L 184.059907 179.058967 
L 190.055995 191.212695 
L 196.052082 188.821835 
L 202.04817 165.411769 
L 208.044257 178.867924 
L 214.040345 180.292578 
L 220.036432 151.097681 
L 226.032519 160.592878 
L 232.028607 172.346636 
L 238.024694 176.929097 
L 244.020782 175.814246 
L 250.016869 177.513858 
L 256.012957 162.941247 
L 262.009044 162.419407 
L 268.005132 170.027683 
L 274.001219 179.498916 
L 279.997307 175.719536 
L 285.993394 176.02072 
L 291.989481 184.567086 
L 297.985569 193.88974 
L 303.981656 202.057116 
L 309.977744 209.962004 
L 315.973831 217.25361 
L 321.969919 215.972637 
L 327.966006 217.779309 
L 333.962094 225.519216 
L 339.958181 227.504203 
L 345.954269 230.044974 
L 351.950356 227.632294 
L 357.946443 225.545762 
L 363.942531 222.230338 
L 369.938618 223.810691 
L 375.934706 220.800921 
L 381.930793 219.536001 
L 387.926881 219.477123 
L 393.922968 226.343982 
L 399.919056 231.399208 
L 405.915143 237.751571 
L 411.911231 243.405538 
L 417.907318 248.437165 
L 423.903405 252.617815 
L 429.899493 257.209747 
L 435.89558 260.475748 
L 441.891668 265.022261 
L 447.887755 265.036841 
L 453.883843 266.467562 
L 459.87993 271.261511 
L 465.876018 275.854909 
L 471.872105 280.09998 
L 477.868193 275.073824 
L 483.86428 280.359425 
L 489.860368 284.780508 
L 495.856455 287.862869 
L 501.852542 291.300376 
L 507.84863 294.660316 
L 513.844717 297.692322 
L 519.840805 292.337099 
L 525.836892 292.77843 
L 531.83298 294.003861 
L 537.829067 297.556744 
L 543.825155 284.214951 
L 549.821242 286.426077 
L 555.81733 290.225716 
" clip-path="url(#p54b268ec4e)" style="fill: none; stroke-dasharray: 7.4,3.2; stroke-dashoffset: 0; stroke: #000000; stroke-width: 2"/>
   </g>
   <g id="patch_7">
    <path d="M 58.441875 311.365089 
L 58.441875 10.564218 
" style="fill: none; stroke: #000000; stroke-width: 0.8; stroke-linejoin: miter; stroke-linecap: square"/>
   </g>
   <g id="patch_8">
    <path d="M 579.501875 311.365089 
L 579.501875 10.564218 
" style="fill: none; stroke: #000000; stroke-width: 0.8; stroke-linejoin: miter; stroke-linecap: square"/>
   </g>
   <g id="patch_9">
    <path d="M 58.441875 311.365089 
L 579.501875 311.365089 
" style="fill: none; stroke: #000000; stroke-width: 0.8; stroke-linejoin: miter; stroke-linecap: square"/>
   </g>
   <g id="patch_10">
    <path d="M 58.441875 10.564218 
L 579.501875 10.564218 
" style="fill: none; stroke: #000000; stroke-width: 0.8; stroke-linejoin: miter; stroke-linecap: square"/>
   </g>
  </g>
  <g id="legend_1">
   <g id="line2d_35">
    <path d="M 210.9625 359.625401 
L 220.9625 359.625401 
L 230.9625 359.625401 
" style="fill: none; stroke: #808080; stroke-width: 2; stroke-linecap: square"/>
   </g>
   <g id="text_29">
    <!-- Standard Deviation -->
    <g transform="translate(238.9625 363.125401) scale(0.1 -0.1)">
     <use xlink:href="#DejaVuSans-Oblique-53"/>
     <use xlink:href="#DejaVuSans-Oblique-74" x="63.476562"/>
     <use xlink:href="#DejaVuSans-Oblique-61" x="102.685547"/>
     <use xlink:href="#DejaVuSans-Oblique-6e" x="163.964844"/>
     <use xlink:href="#DejaVuSans-Oblique-64" x="227.34375"/>
     <use xlink:href="#DejaVuSans-Oblique-61" x="290.820312"/>
     <use xlink:href="#DejaVuSans-Oblique-72" x="352.099609"/>
     <use xlink:href="#DejaVuSans-Oblique-64" x="393.212891"/>
     <use xlink:href="#DejaVuSans-Oblique-20" x="456.689453"/>
     <use xlink:href="#DejaVuSans-Oblique-44" x="488.476562"/>
     <use xlink:href="#DejaVuSans-Oblique-65" x="565.478516"/>
     <use xlink:href="#DejaVuSans-Oblique-76" x="627.001953"/>
     <use xlink:href="#DejaVuSans-Oblique-69" x="686.181641"/>
     <use xlink:href="#DejaVuSans-Oblique-61" x="713.964844"/>
     <use xlink:href="#DejaVuSans-Oblique-74" x="775.244141"/>
     <use xlink:href="#DejaVuSans-Oblique-69" x="814.453125"/>
     <use xlink:href="#DejaVuSans-Oblique-6f" x="842.236328"/>
     <use xlink:href="#DejaVuSans-Oblique-6e" x="903.417969"/>
    </g>
   </g>
   <g id="line2d_36">
    <path d="M 355.64375 359.625401 
L 365.64375 359.625401 
L 375.64375 359.625401 
" style="fill: none; stroke-dasharray: 7.4,3.2; stroke-dashoffset: 0; stroke: #000000; stroke-width: 2"/>
   </g>
   <g id="text_30">
    <!-- Variance -->
    <g transform="translate(383.64375 363.125401) scale(0.1 -0.1)">
     <use xlink:href="#DejaVuSans-Oblique-56"/>
     <use xlink:href="#DejaVuSans-Oblique-61" x="62.033203"/>
     <use xlink:href="#DejaVuSans-Oblique-72" x="123.3125"/>
     <use xlink:href="#DejaVuSans-Oblique-69" x="164.425781"/>
     <use xlink:href="#DejaVuSans-Oblique-61" x="192.208984"/>
     <use xlink:href="#DejaVuSans-Oblique-6e" x="253.488281"/>
     <use xlink:href="#DejaVuSans-Oblique-63" x="316.867188"/>
     <use xlink:href="#DejaVuSans-Oblique-65" x="371.847656"/>
    </g>
   </g>
  </g>
 </g>
 <defs>
  <clipPath id="p54b268ec4e">
   <rect x="58.441875" y="10.564218" width="521.06" height="300.800871"/>
  </clipPath>
 </defs>
</svg>
