<?xml version="1.0" encoding="utf-8" standalone="no"?>
<!DOCTYPE svg PUBLIC "-//W3C//DTD SVG 1.1//EN"
  "http://www.w3.org/Graphics/SVG/1.1/DTD/svg11.dtd">
<svg xmlns:xlink="http://www.w3.org/1999/xlink" width="631.065469pt" height="352.346519pt" viewBox="0 0 631.065469 352.346519" xmlns="http://www.w3.org/2000/svg" version="1.1">
 <metadata>
  <rdf:RDF xmlns:dc="http://purl.org/dc/elements/1.1/" xmlns:cc="http://creativecommons.org/ns#" xmlns:rdf="http://www.w3.org/1999/02/22-rdf-syntax-ns#">
   <cc:Work>
    <dc:type rdf:resource="http://purl.org/dc/dcmitype/StillImage"/>
    <dc:date>2025-06-07T15:22:25.761976</dc:date>
    <dc:format>image/svg+xml</dc:format>
    <dc:creator>
     <cc:Agent>
      <dc:title>Matplotlib v3.7.5, https://matplotlib.org/</dc:title>
     </cc:Agent>
    </dc:creator>
   </cc:Work>
  </rdf:RDF>
 </metadata>
 <defs>
  <style type="text/css">*{stroke-linejoin: round; stroke-linecap: butt}</style>
 </defs>
 <g id="figure_1">
  <g id="patch_1">
   <path d="M 0 352.346519 
L 631.065469 352.346519 
L 631.065469 0 
L 0 0 
z
" style="fill: #ffffff"/>
  </g>
  <g id="axes_1">
   <g id="patch_2">
    <path d="M 49.852813 294.269498 
L 610.982812 294.269498 
L 610.982812 17.38439 
L 49.852813 17.38439 
z
" style="fill: #ffffff"/>
   </g>
   <g id="matplotlib.axis_1">
    <g id="xtick_1">
     <g id="line2d_1">
      <path d="M 49.852812 294.269498 
L 49.852812 17.38439 
" clip-path="url(#p30e522be6f)" style="fill: none; stroke-dasharray: 1.85,0.8; stroke-dashoffset: 0; stroke: #cccccc; stroke-width: 0.5"/>
     </g>
     <g id="text_1">
      <!-- 0.750 -->
      <g style="fill: #262626" transform="translate(36.970156 308.108091) scale(0.09 -0.09)">
       <defs>
        <path id="DejaVuSans-Oblique-30" d="M 2444 4750 
Q 3078 4750 3414 4328 
Q 3750 3906 3750 3116 
Q 3750 2516 3592 1923 
Q 3434 1331 3150 863 
Q 2859 394 2467 151 
Q 2075 -91 1600 -91 
Q 988 -91 653 334 
Q 319 759 319 1544 
Q 319 2138 480 2733 
Q 641 3328 928 3794 
Q 1216 4263 1602 4506 
Q 1988 4750 2444 4750 
z
M 2406 4250 
Q 2169 4250 1955 4123 
Q 1741 3997 1569 3750 
Q 1281 3338 1111 2720 
Q 941 2103 941 1453 
Q 941 938 1123 673 
Q 1306 409 1663 409 
Q 1913 409 2125 536 
Q 2338 663 2509 909 
Q 2794 1319 2961 1936 
Q 3128 2553 3128 3206 
Q 3128 3722 2945 3986 
Q 2763 4250 2406 4250 
z
" transform="scale(0.015625)"/>
        <path id="DejaVuSans-Oblique-2e" d="M 525 794 
L 1184 794 
L 1031 0 
L 372 0 
L 525 794 
z
" transform="scale(0.015625)"/>
        <path id="DejaVuSans-Oblique-37" d="M 819 4666 
L 4013 4666 
L 3956 4397 
L 1288 0 
L 594 0 
L 3116 4134 
L 716 4134 
L 819 4666 
z
" transform="scale(0.015625)"/>
        <path id="DejaVuSans-Oblique-35" d="M 3719 4666 
L 3622 4141 
L 1691 4141 
L 1466 2988 
Q 1609 3034 1757 3056 
Q 1906 3078 2059 3078 
Q 2706 3078 3081 2731 
Q 3456 2384 3456 1791 
Q 3456 1375 3264 994 
Q 3072 613 2719 325 
Q 2469 125 2108 17 
Q 1747 -91 1319 -91 
Q 1038 -91 744 -41 
Q 450 9 128 109 
L 244 697 
Q 531 556 820 486 
Q 1109 416 1403 416 
Q 2013 416 2411 781 
Q 2809 1147 2809 1697 
Q 2809 2103 2548 2328 
Q 2288 2553 1819 2553 
Q 1572 2553 1305 2495 
Q 1038 2438 756 2322 
L 1209 4666 
L 3719 4666 
z
" transform="scale(0.015625)"/>
       </defs>
       <use xlink:href="#DejaVuSans-Oblique-30"/>
       <use xlink:href="#DejaVuSans-Oblique-2e" x="63.623047"/>
       <use xlink:href="#DejaVuSans-Oblique-37" x="95.410156"/>
       <use xlink:href="#DejaVuSans-Oblique-35" x="159.033203"/>
       <use xlink:href="#DejaVuSans-Oblique-30" x="222.65625"/>
      </g>
     </g>
    </g>
    <g id="xtick_2">
     <g id="line2d_2">
      <path d="M 119.994062 294.269498 
L 119.994062 17.38439 
" clip-path="url(#p30e522be6f)" style="fill: none; stroke-dasharray: 1.85,0.8; stroke-dashoffset: 0; stroke: #cccccc; stroke-width: 0.5"/>
     </g>
     <g id="text_2">
      <!-- 0.775 -->
      <g style="fill: #262626" transform="translate(107.111406 308.108091) scale(0.09 -0.09)">
       <use xlink:href="#DejaVuSans-Oblique-30"/>
       <use xlink:href="#DejaVuSans-Oblique-2e" x="63.623047"/>
       <use xlink:href="#DejaVuSans-Oblique-37" x="95.410156"/>
       <use xlink:href="#DejaVuSans-Oblique-37" x="159.033203"/>
       <use xlink:href="#DejaVuSans-Oblique-35" x="222.65625"/>
      </g>
     </g>
    </g>
    <g id="xtick_3">
     <g id="line2d_3">
      <path d="M 190.135312 294.269498 
L 190.135312 17.38439 
" clip-path="url(#p30e522be6f)" style="fill: none; stroke-dasharray: 1.85,0.8; stroke-dashoffset: 0; stroke: #cccccc; stroke-width: 0.5"/>
     </g>
     <g id="text_3">
      <!-- 0.800 -->
      <g style="fill: #262626" transform="translate(177.252656 308.108091) scale(0.09 -0.09)">
       <defs>
        <path id="DejaVuSans-Oblique-38" d="M 2847 1416 
Q 2847 1769 2600 1992 
Q 2353 2216 1953 2216 
Q 1466 2216 1148 1923 
Q 831 1631 831 1184 
Q 831 828 1073 618 
Q 1316 409 1728 409 
Q 2219 409 2533 693 
Q 2847 978 2847 1416 
z
M 3169 3591 
Q 3169 3888 2950 4069 
Q 2731 4250 2369 4250 
Q 1941 4250 1664 4009 
Q 1388 3769 1388 3406 
Q 1388 3094 1605 2903 
Q 1822 2713 2181 2713 
Q 2613 2713 2891 2961 
Q 3169 3209 3169 3591 
z
M 2741 2456 
Q 3094 2322 3281 2050 
Q 3469 1778 3469 1394 
Q 3469 747 2969 328 
Q 2469 -91 1678 -91 
Q 1006 -91 609 239 
Q 213 569 213 1119 
Q 213 1619 553 2008 
Q 894 2397 1441 2503 
Q 1113 2616 941 2852 
Q 769 3088 769 3425 
Q 769 3991 1239 4370 
Q 1709 4750 2431 4750 
Q 3034 4750 3414 4442 
Q 3794 4134 3794 3659 
Q 3794 3247 3511 2923 
Q 3228 2600 2741 2456 
z
" transform="scale(0.015625)"/>
       </defs>
       <use xlink:href="#DejaVuSans-Oblique-30"/>
       <use xlink:href="#DejaVuSans-Oblique-2e" x="63.623047"/>
       <use xlink:href="#DejaVuSans-Oblique-38" x="95.410156"/>
       <use xlink:href="#DejaVuSans-Oblique-30" x="159.033203"/>
       <use xlink:href="#DejaVuSans-Oblique-30" x="222.65625"/>
      </g>
     </g>
    </g>
    <g id="xtick_4">
     <g id="line2d_4">
      <path d="M 260.276562 294.269498 
L 260.276562 17.38439 
" clip-path="url(#p30e522be6f)" style="fill: none; stroke-dasharray: 1.85,0.8; stroke-dashoffset: 0; stroke: #cccccc; stroke-width: 0.5"/>
     </g>
     <g id="text_4">
      <!-- 0.825 -->
      <g style="fill: #262626" transform="translate(247.393906 308.108091) scale(0.09 -0.09)">
       <defs>
        <path id="DejaVuSans-Oblique-32" d="M 2950 2253 
L 934 525 
L 3163 525 
L 3053 0 
L 25 0 
L 128 531 
L 2234 2338 
Q 2656 2703 2832 2979 
Q 3009 3256 3009 3547 
Q 3009 3850 2796 4040 
Q 2584 4231 2241 4231 
Q 1944 4231 1581 4125 
Q 1219 4019 806 3816 
L 922 4441 
Q 1309 4594 1662 4672 
Q 2016 4750 2316 4750 
Q 2928 4750 3301 4425 
Q 3675 4100 3675 3572 
Q 3675 3216 3497 2892 
Q 3319 2569 2950 2253 
z
" transform="scale(0.015625)"/>
       </defs>
       <use xlink:href="#DejaVuSans-Oblique-30"/>
       <use xlink:href="#DejaVuSans-Oblique-2e" x="63.623047"/>
       <use xlink:href="#DejaVuSans-Oblique-38" x="95.410156"/>
       <use xlink:href="#DejaVuSans-Oblique-32" x="159.033203"/>
       <use xlink:href="#DejaVuSans-Oblique-35" x="222.65625"/>
      </g>
     </g>
    </g>
    <g id="xtick_5">
     <g id="line2d_5">
      <path d="M 330.417812 294.269498 
L 330.417812 17.38439 
" clip-path="url(#p30e522be6f)" style="fill: none; stroke-dasharray: 1.85,0.8; stroke-dashoffset: 0; stroke: #cccccc; stroke-width: 0.5"/>
     </g>
     <g id="text_5">
      <!-- 0.850 -->
      <g style="fill: #262626" transform="translate(317.535156 308.108091) scale(0.09 -0.09)">
       <use xlink:href="#DejaVuSans-Oblique-30"/>
       <use xlink:href="#DejaVuSans-Oblique-2e" x="63.623047"/>
       <use xlink:href="#DejaVuSans-Oblique-38" x="95.410156"/>
       <use xlink:href="#DejaVuSans-Oblique-35" x="159.033203"/>
       <use xlink:href="#DejaVuSans-Oblique-30" x="222.65625"/>
      </g>
     </g>
    </g>
    <g id="xtick_6">
     <g id="line2d_6">
      <path d="M 400.559062 294.269498 
L 400.559062 17.38439 
" clip-path="url(#p30e522be6f)" style="fill: none; stroke-dasharray: 1.85,0.8; stroke-dashoffset: 0; stroke: #cccccc; stroke-width: 0.5"/>
     </g>
     <g id="text_6">
      <!-- 0.875 -->
      <g style="fill: #262626" transform="translate(387.676406 308.108091) scale(0.09 -0.09)">
       <use xlink:href="#DejaVuSans-Oblique-30"/>
       <use xlink:href="#DejaVuSans-Oblique-2e" x="63.623047"/>
       <use xlink:href="#DejaVuSans-Oblique-38" x="95.410156"/>
       <use xlink:href="#DejaVuSans-Oblique-37" x="159.033203"/>
       <use xlink:href="#DejaVuSans-Oblique-35" x="222.65625"/>
      </g>
     </g>
    </g>
    <g id="xtick_7">
     <g id="line2d_7">
      <path d="M 470.700313 294.269498 
L 470.700313 17.38439 
" clip-path="url(#p30e522be6f)" style="fill: none; stroke-dasharray: 1.85,0.8; stroke-dashoffset: 0; stroke: #cccccc; stroke-width: 0.5"/>
     </g>
     <g id="text_7">
      <!-- 0.900 -->
      <g style="fill: #262626" transform="translate(457.817656 308.108091) scale(0.09 -0.09)">
       <defs>
        <path id="DejaVuSans-Oblique-39" d="M 281 103 
L 397 678 
Q 578 559 809 496 
Q 1041 434 1306 434 
Q 1953 434 2348 843 
Q 2744 1253 2938 2119 
Q 2706 1853 2401 1714 
Q 2097 1575 1747 1575 
Q 1178 1575 842 1904 
Q 506 2234 506 2791 
Q 506 3247 672 3639 
Q 838 4031 1159 4325 
Q 1378 4531 1665 4640 
Q 1953 4750 2278 4750 
Q 2925 4750 3300 4339 
Q 3675 3928 3675 3219 
Q 3675 2559 3501 1943 
Q 3328 1328 3022 878 
Q 2697 403 2240 156 
Q 1784 -91 1228 -91 
Q 988 -91 748 -42 
Q 509 6 281 103 
z
M 1131 2938 
Q 1131 2541 1337 2308 
Q 1544 2075 1894 2075 
Q 2378 2075 2706 2447 
Q 3034 2819 3034 3372 
Q 3034 3784 2831 4017 
Q 2628 4250 2272 4250 
Q 1788 4250 1459 3870 
Q 1131 3491 1131 2938 
z
" transform="scale(0.015625)"/>
       </defs>
       <use xlink:href="#DejaVuSans-Oblique-30"/>
       <use xlink:href="#DejaVuSans-Oblique-2e" x="63.623047"/>
       <use xlink:href="#DejaVuSans-Oblique-39" x="95.410156"/>
       <use xlink:href="#DejaVuSans-Oblique-30" x="159.033203"/>
       <use xlink:href="#DejaVuSans-Oblique-30" x="222.65625"/>
      </g>
     </g>
    </g>
    <g id="xtick_8">
     <g id="line2d_8">
      <path d="M 540.841562 294.269498 
L 540.841562 17.38439 
" clip-path="url(#p30e522be6f)" style="fill: none; stroke-dasharray: 1.85,0.8; stroke-dashoffset: 0; stroke: #cccccc; stroke-width: 0.5"/>
     </g>
     <g id="text_8">
      <!-- 0.925 -->
      <g style="fill: #262626" transform="translate(527.958906 308.108091) scale(0.09 -0.09)">
       <use xlink:href="#DejaVuSans-Oblique-30"/>
       <use xlink:href="#DejaVuSans-Oblique-2e" x="63.623047"/>
       <use xlink:href="#DejaVuSans-Oblique-39" x="95.410156"/>
       <use xlink:href="#DejaVuSans-Oblique-32" x="159.033203"/>
       <use xlink:href="#DejaVuSans-Oblique-35" x="222.65625"/>
      </g>
     </g>
    </g>
    <g id="xtick_9">
     <g id="line2d_9">
      <path d="M 610.982812 294.269498 
L 610.982812 17.38439 
" clip-path="url(#p30e522be6f)" style="fill: none; stroke-dasharray: 1.85,0.8; stroke-dashoffset: 0; stroke: #cccccc; stroke-width: 0.5"/>
     </g>
     <g id="text_9">
      <!-- 0.950 -->
      <g style="fill: #262626" transform="translate(598.100156 308.108091) scale(0.09 -0.09)">
       <use xlink:href="#DejaVuSans-Oblique-30"/>
       <use xlink:href="#DejaVuSans-Oblique-2e" x="63.623047"/>
       <use xlink:href="#DejaVuSans-Oblique-39" x="95.410156"/>
       <use xlink:href="#DejaVuSans-Oblique-35" x="159.033203"/>
       <use xlink:href="#DejaVuSans-Oblique-30" x="222.65625"/>
      </g>
     </g>
    </g>
    <g id="text_10">
     <!-- Normalized Frequency -->
     <g style="fill: #262626" transform="translate(262.81375 323.097935) scale(0.12 -0.12)">
      <defs>
       <path id="DejaVuSans-Oblique-4e" d="M 1081 4666 
L 1931 4666 
L 3219 666 
L 4000 4666 
L 4616 4666 
L 3706 0 
L 2853 0 
L 1569 4025 
L 788 0 
L 172 0 
L 1081 4666 
z
" transform="scale(0.015625)"/>
       <path id="DejaVuSans-Oblique-6f" d="M 1625 -91 
Q 1009 -91 651 289 
Q 294 669 294 1325 
Q 294 1706 417 2101 
Q 541 2497 738 2766 
Q 1047 3184 1428 3384 
Q 1809 3584 2291 3584 
Q 2888 3584 3255 3212 
Q 3622 2841 3622 2241 
Q 3622 1825 3500 1412 
Q 3378 1000 3181 728 
Q 2875 309 2494 109 
Q 2113 -91 1625 -91 
z
M 891 1344 
Q 891 869 1089 633 
Q 1288 397 1691 397 
Q 2269 397 2648 901 
Q 3028 1406 3028 2181 
Q 3028 2634 2825 2865 
Q 2622 3097 2228 3097 
Q 1903 3097 1650 2945 
Q 1397 2794 1197 2484 
Q 1050 2253 970 1956 
Q 891 1659 891 1344 
z
" transform="scale(0.015625)"/>
       <path id="DejaVuSans-Oblique-72" d="M 2853 2969 
Q 2766 3016 2653 3041 
Q 2541 3066 2413 3066 
Q 1953 3066 1609 2717 
Q 1266 2369 1153 1784 
L 800 0 
L 225 0 
L 909 3500 
L 1484 3500 
L 1375 2956 
Q 1603 3259 1920 3421 
Q 2238 3584 2597 3584 
Q 2691 3584 2781 3573 
Q 2872 3563 2963 3538 
L 2853 2969 
z
" transform="scale(0.015625)"/>
       <path id="DejaVuSans-Oblique-6d" d="M 5747 2113 
L 5338 0 
L 4763 0 
L 5166 2094 
Q 5191 2228 5203 2325 
Q 5216 2422 5216 2491 
Q 5216 2772 5059 2928 
Q 4903 3084 4622 3084 
Q 4203 3084 3875 2770 
Q 3547 2456 3450 1953 
L 3066 0 
L 2491 0 
L 2900 2094 
Q 2925 2209 2937 2307 
Q 2950 2406 2950 2484 
Q 2950 2769 2794 2926 
Q 2638 3084 2363 3084 
Q 1938 3084 1609 2770 
Q 1281 2456 1184 1953 
L 800 0 
L 225 0 
L 909 3500 
L 1484 3500 
L 1375 2956 
Q 1609 3263 1923 3423 
Q 2238 3584 2597 3584 
Q 2978 3584 3223 3384 
Q 3469 3184 3519 2828 
Q 3781 3197 4126 3390 
Q 4472 3584 4856 3584 
Q 5306 3584 5551 3325 
Q 5797 3066 5797 2591 
Q 5797 2488 5784 2364 
Q 5772 2241 5747 2113 
z
" transform="scale(0.015625)"/>
       <path id="DejaVuSans-Oblique-61" d="M 3438 1997 
L 3047 0 
L 2472 0 
L 2578 531 
Q 2325 219 2001 64 
Q 1678 -91 1281 -91 
Q 834 -91 548 182 
Q 263 456 263 884 
Q 263 1497 752 1853 
Q 1241 2209 2100 2209 
L 2900 2209 
L 2931 2363 
Q 2938 2388 2941 2417 
Q 2944 2447 2944 2509 
Q 2944 2788 2717 2942 
Q 2491 3097 2081 3097 
Q 1800 3097 1504 3025 
Q 1209 2953 897 2809 
L 997 3341 
Q 1322 3463 1633 3523 
Q 1944 3584 2234 3584 
Q 2853 3584 3176 3315 
Q 3500 3047 3500 2534 
Q 3500 2431 3484 2292 
Q 3469 2153 3438 1997 
z
M 2816 1759 
L 2241 1759 
Q 1534 1759 1195 1570 
Q 856 1381 856 984 
Q 856 709 1029 553 
Q 1203 397 1509 397 
Q 1978 397 2328 733 
Q 2678 1069 2791 1631 
L 2816 1759 
z
" transform="scale(0.015625)"/>
       <path id="DejaVuSans-Oblique-6c" d="M 1172 4863 
L 1747 4863 
L 800 0 
L 225 0 
L 1172 4863 
z
" transform="scale(0.015625)"/>
       <path id="DejaVuSans-Oblique-69" d="M 1172 4863 
L 1747 4863 
L 1606 4134 
L 1031 4134 
L 1172 4863 
z
M 909 3500 
L 1484 3500 
L 800 0 
L 225 0 
L 909 3500 
z
" transform="scale(0.015625)"/>
       <path id="DejaVuSans-Oblique-7a" d="M 744 3500 
L 3475 3500 
L 3372 2975 
L 738 459 
L 2913 459 
L 2822 0 
L -19 0 
L 84 525 
L 2719 3041 
L 653 3041 
L 744 3500 
z
" transform="scale(0.015625)"/>
       <path id="DejaVuSans-Oblique-65" d="M 3078 2063 
Q 3088 2113 3092 2166 
Q 3097 2219 3097 2272 
Q 3097 2653 2873 2875 
Q 2650 3097 2266 3097 
Q 1838 3097 1509 2826 
Q 1181 2556 1013 2059 
L 3078 2063 
z
M 3578 1613 
L 903 1613 
Q 884 1494 878 1425 
Q 872 1356 872 1306 
Q 872 872 1139 634 
Q 1406 397 1894 397 
Q 2269 397 2603 481 
Q 2938 566 3225 728 
L 3116 159 
Q 2806 34 2476 -28 
Q 2147 -91 1806 -91 
Q 1078 -91 686 257 
Q 294 606 294 1247 
Q 294 1794 489 2264 
Q 684 2734 1063 3103 
Q 1306 3334 1642 3459 
Q 1978 3584 2356 3584 
Q 2950 3584 3301 3228 
Q 3653 2872 3653 2272 
Q 3653 2128 3634 1964 
Q 3616 1800 3578 1613 
z
" transform="scale(0.015625)"/>
       <path id="DejaVuSans-Oblique-64" d="M 2675 525 
Q 2444 222 2128 65 
Q 1813 -91 1428 -91 
Q 903 -91 598 267 
Q 294 625 294 1247 
Q 294 1766 478 2236 
Q 663 2706 1013 3078 
Q 1244 3325 1534 3454 
Q 1825 3584 2144 3584 
Q 2481 3584 2739 3421 
Q 2997 3259 3138 2956 
L 3513 4863 
L 4091 4863 
L 3144 0 
L 2566 0 
L 2675 525 
z
M 891 1350 
Q 891 897 1095 644 
Q 1300 391 1663 391 
Q 1931 391 2161 520 
Q 2391 650 2566 903 
Q 2750 1166 2856 1509 
Q 2963 1853 2963 2188 
Q 2963 2622 2758 2865 
Q 2553 3109 2194 3109 
Q 1922 3109 1687 2981 
Q 1453 2853 1288 2613 
Q 1106 2353 998 2009 
Q 891 1666 891 1350 
z
" transform="scale(0.015625)"/>
       <path id="DejaVuSans-Oblique-20" transform="scale(0.015625)"/>
       <path id="DejaVuSans-Oblique-46" d="M 1081 4666 
L 3756 4666 
L 3653 4134 
L 1606 4134 
L 1338 2759 
L 3188 2759 
L 3084 2228 
L 1234 2228 
L 800 0 
L 172 0 
L 1081 4666 
z
" transform="scale(0.015625)"/>
       <path id="DejaVuSans-Oblique-71" d="M 2669 525 
Q 2438 222 2123 65 
Q 1809 -91 1428 -91 
Q 897 -91 595 267 
Q 294 625 294 1253 
Q 294 1759 480 2231 
Q 666 2703 1013 3078 
Q 1238 3322 1530 3453 
Q 1822 3584 2144 3584 
Q 2531 3584 2781 3431 
Q 3031 3278 3144 2969 
L 3244 3494 
L 3822 3494 
L 2888 -1319 
L 2309 -1319 
L 2669 525 
z
M 891 1338 
Q 891 875 1084 633 
Q 1278 391 1644 391 
Q 2188 391 2572 911 
Q 2956 1431 2956 2175 
Q 2956 2625 2757 2864 
Q 2559 3103 2188 3103 
Q 1916 3103 1684 2976 
Q 1453 2850 1281 2606 
Q 1100 2350 995 2006 
Q 891 1663 891 1338 
z
" transform="scale(0.015625)"/>
       <path id="DejaVuSans-Oblique-75" d="M 428 1388 
L 838 3500 
L 1416 3500 
L 1006 1409 
Q 975 1256 961 1147 
Q 947 1038 947 966 
Q 947 700 1109 554 
Q 1272 409 1569 409 
Q 2031 409 2368 721 
Q 2706 1034 2809 1563 
L 3194 3500 
L 3769 3500 
L 3091 0 
L 2516 0 
L 2631 550 
Q 2388 244 2052 76 
Q 1716 -91 1338 -91 
Q 878 -91 622 161 
Q 366 413 366 863 
Q 366 956 381 1097 
Q 397 1238 428 1388 
z
" transform="scale(0.015625)"/>
       <path id="DejaVuSans-Oblique-6e" d="M 3566 2113 
L 3156 0 
L 2578 0 
L 2988 2091 
Q 3016 2238 3031 2350 
Q 3047 2463 3047 2528 
Q 3047 2791 2881 2937 
Q 2716 3084 2419 3084 
Q 1956 3084 1622 2776 
Q 1288 2469 1184 1941 
L 800 0 
L 225 0 
L 903 3500 
L 1478 3500 
L 1363 2950 
Q 1603 3253 1940 3418 
Q 2278 3584 2650 3584 
Q 3113 3584 3367 3334 
Q 3622 3084 3622 2631 
Q 3622 2519 3608 2391 
Q 3594 2263 3566 2113 
z
" transform="scale(0.015625)"/>
       <path id="DejaVuSans-Oblique-63" d="M 3431 3366 
L 3316 2797 
Q 3109 2947 2876 3022 
Q 2644 3097 2394 3097 
Q 2119 3097 1870 3000 
Q 1622 2903 1453 2725 
Q 1184 2453 1037 2087 
Q 891 1722 891 1331 
Q 891 859 1127 628 
Q 1363 397 1844 397 
Q 2081 397 2348 469 
Q 2616 541 2906 684 
L 2797 116 
Q 2547 13 2283 -39 
Q 2019 -91 1741 -91 
Q 1044 -91 669 257 
Q 294 606 294 1253 
Q 294 1797 489 2255 
Q 684 2713 1069 3078 
Q 1331 3328 1684 3456 
Q 2038 3584 2456 3584 
Q 2700 3584 2940 3529 
Q 3181 3475 3431 3366 
z
" transform="scale(0.015625)"/>
       <path id="DejaVuSans-Oblique-79" d="M 1588 -325 
Q 1188 -997 936 -1164 
Q 684 -1331 294 -1331 
L -159 -1331 
L -63 -850 
L 269 -850 
Q 509 -850 678 -719 
Q 847 -588 1056 -206 
L 1234 128 
L 459 3500 
L 1069 3500 
L 1650 819 
L 3256 3500 
L 3859 3500 
L 1588 -325 
z
" transform="scale(0.015625)"/>
      </defs>
      <use xlink:href="#DejaVuSans-Oblique-4e"/>
      <use xlink:href="#DejaVuSans-Oblique-6f" x="74.804688"/>
      <use xlink:href="#DejaVuSans-Oblique-72" x="135.986328"/>
      <use xlink:href="#DejaVuSans-Oblique-6d" x="177.099609"/>
      <use xlink:href="#DejaVuSans-Oblique-61" x="274.511719"/>
      <use xlink:href="#DejaVuSans-Oblique-6c" x="335.791016"/>
      <use xlink:href="#DejaVuSans-Oblique-69" x="363.574219"/>
      <use xlink:href="#DejaVuSans-Oblique-7a" x="391.357422"/>
      <use xlink:href="#DejaVuSans-Oblique-65" x="443.847656"/>
      <use xlink:href="#DejaVuSans-Oblique-64" x="505.371094"/>
      <use xlink:href="#DejaVuSans-Oblique-20" x="568.847656"/>
      <use xlink:href="#DejaVuSans-Oblique-46" x="600.634766"/>
      <use xlink:href="#DejaVuSans-Oblique-72" x="658.154297"/>
      <use xlink:href="#DejaVuSans-Oblique-65" x="699.267578"/>
      <use xlink:href="#DejaVuSans-Oblique-71" x="760.791016"/>
      <use xlink:href="#DejaVuSans-Oblique-75" x="824.267578"/>
      <use xlink:href="#DejaVuSans-Oblique-65" x="887.646484"/>
      <use xlink:href="#DejaVuSans-Oblique-6e" x="949.169922"/>
      <use xlink:href="#DejaVuSans-Oblique-63" x="1012.548828"/>
      <use xlink:href="#DejaVuSans-Oblique-79" x="1067.529297"/>
     </g>
    </g>
   </g>
   <g id="matplotlib.axis_2">
    <g id="ytick_1">
     <g id="line2d_10">
      <path d="M 49.852813 294.269498 
L 610.982812 294.269498 
" clip-path="url(#p30e522be6f)" style="fill: none; stroke-dasharray: 1.85,0.8; stroke-dashoffset: 0; stroke: #cccccc; stroke-width: 0.5"/>
     </g>
     <g id="text_11">
      <!-- 0.50 -->
      <g style="fill: #262626" transform="translate(22.81375 297.688795) scale(0.09 -0.09)">
       <use xlink:href="#DejaVuSans-Oblique-30"/>
       <use xlink:href="#DejaVuSans-Oblique-2e" x="63.623047"/>
       <use xlink:href="#DejaVuSans-Oblique-35" x="95.410156"/>
       <use xlink:href="#DejaVuSans-Oblique-30" x="159.033203"/>
      </g>
     </g>
    </g>
    <g id="ytick_2">
     <g id="line2d_11">
      <path d="M 49.852813 242.994478 
L 610.982812 242.994478 
" clip-path="url(#p30e522be6f)" style="fill: none; stroke-dasharray: 1.85,0.8; stroke-dashoffset: 0; stroke: #cccccc; stroke-width: 0.5"/>
     </g>
     <g id="text_12">
      <!-- 0.55 -->
      <g style="fill: #262626" transform="translate(22.81375 246.413775) scale(0.09 -0.09)">
       <use xlink:href="#DejaVuSans-Oblique-30"/>
       <use xlink:href="#DejaVuSans-Oblique-2e" x="63.623047"/>
       <use xlink:href="#DejaVuSans-Oblique-35" x="95.410156"/>
       <use xlink:href="#DejaVuSans-Oblique-35" x="159.033203"/>
      </g>
     </g>
    </g>
    <g id="ytick_3">
     <g id="line2d_12">
      <path d="M 49.852813 191.719458 
L 610.982812 191.719458 
" clip-path="url(#p30e522be6f)" style="fill: none; stroke-dasharray: 1.85,0.8; stroke-dashoffset: 0; stroke: #cccccc; stroke-width: 0.5"/>
     </g>
     <g id="text_13">
      <!-- 0.60 -->
      <g style="fill: #262626" transform="translate(22.81375 195.138755) scale(0.09 -0.09)">
       <defs>
        <path id="DejaVuSans-Oblique-36" d="M 2938 1728 
Q 2938 2125 2734 2354 
Q 2531 2584 2181 2584 
Q 1697 2584 1367 2211 
Q 1038 1838 1038 1288 
Q 1038 875 1239 642 
Q 1441 409 1797 409 
Q 2284 409 2611 792 
Q 2938 1175 2938 1728 
z
M 3788 4556 
L 3681 3981 
Q 3500 4100 3265 4162 
Q 3031 4225 2766 4225 
Q 2119 4225 1726 3819 
Q 1334 3413 1141 2547 
Q 1369 2813 1670 2948 
Q 1972 3084 2322 3084 
Q 2894 3084 3233 2754 
Q 3572 2425 3572 1869 
Q 3572 1413 3405 1020 
Q 3238 628 2919 331 
Q 2700 128 2409 18 
Q 2119 -91 1791 -91 
Q 1147 -91 775 318 
Q 403 728 403 1441 
Q 403 2103 573 2717 
Q 744 3331 1050 3781 
Q 1372 4256 1830 4503 
Q 2288 4750 2841 4750 
Q 3084 4750 3321 4701 
Q 3559 4653 3788 4556 
z
" transform="scale(0.015625)"/>
       </defs>
       <use xlink:href="#DejaVuSans-Oblique-30"/>
       <use xlink:href="#DejaVuSans-Oblique-2e" x="63.623047"/>
       <use xlink:href="#DejaVuSans-Oblique-36" x="95.410156"/>
       <use xlink:href="#DejaVuSans-Oblique-30" x="159.033203"/>
      </g>
     </g>
    </g>
    <g id="ytick_4">
     <g id="line2d_13">
      <path d="M 49.852813 140.444438 
L 610.982812 140.444438 
" clip-path="url(#p30e522be6f)" style="fill: none; stroke-dasharray: 1.85,0.8; stroke-dashoffset: 0; stroke: #cccccc; stroke-width: 0.5"/>
     </g>
     <g id="text_14">
      <!-- 0.65 -->
      <g style="fill: #262626" transform="translate(22.81375 143.863735) scale(0.09 -0.09)">
       <use xlink:href="#DejaVuSans-Oblique-30"/>
       <use xlink:href="#DejaVuSans-Oblique-2e" x="63.623047"/>
       <use xlink:href="#DejaVuSans-Oblique-36" x="95.410156"/>
       <use xlink:href="#DejaVuSans-Oblique-35" x="159.033203"/>
      </g>
     </g>
    </g>
    <g id="ytick_5">
     <g id="line2d_14">
      <path d="M 49.852813 89.169418 
L 610.982812 89.169418 
" clip-path="url(#p30e522be6f)" style="fill: none; stroke-dasharray: 1.85,0.8; stroke-dashoffset: 0; stroke: #cccccc; stroke-width: 0.5"/>
     </g>
     <g id="text_15">
      <!-- 0.70 -->
      <g style="fill: #262626" transform="translate(22.81375 92.588715) scale(0.09 -0.09)">
       <use xlink:href="#DejaVuSans-Oblique-30"/>
       <use xlink:href="#DejaVuSans-Oblique-2e" x="63.623047"/>
       <use xlink:href="#DejaVuSans-Oblique-37" x="95.410156"/>
       <use xlink:href="#DejaVuSans-Oblique-30" x="159.033203"/>
      </g>
     </g>
    </g>
    <g id="ytick_6">
     <g id="line2d_15">
      <path d="M 49.852813 37.894398 
L 610.982812 37.894398 
" clip-path="url(#p30e522be6f)" style="fill: none; stroke-dasharray: 1.85,0.8; stroke-dashoffset: 0; stroke: #cccccc; stroke-width: 0.5"/>
     </g>
     <g id="text_16">
      <!-- 0.75 -->
      <g style="fill: #262626" transform="translate(22.81375 41.313695) scale(0.09 -0.09)">
       <use xlink:href="#DejaVuSans-Oblique-30"/>
       <use xlink:href="#DejaVuSans-Oblique-2e" x="63.623047"/>
       <use xlink:href="#DejaVuSans-Oblique-37" x="95.410156"/>
       <use xlink:href="#DejaVuSans-Oblique-35" x="159.033203"/>
      </g>
     </g>
    </g>
    <g id="text_17">
     <!-- Mean Accuracy -->
     <g style="fill: #262626" transform="translate(16.318125 201.580694) rotate(-90) scale(0.12 -0.12)">
      <defs>
       <path id="DejaVuSans-Oblique-4d" d="M 1081 4666 
L 2028 4666 
L 2572 1522 
L 4378 4666 
L 5350 4666 
L 4441 0 
L 3828 0 
L 4622 4091 
L 2791 897 
L 2175 897 
L 1581 4103 
L 788 0 
L 172 0 
L 1081 4666 
z
" transform="scale(0.015625)"/>
       <path id="DejaVuSans-Oblique-41" d="M 2356 4666 
L 3072 4666 
L 3938 0 
L 3278 0 
L 3084 1197 
L 984 1197 
L 325 0 
L -341 0 
L 2356 4666 
z
M 2584 4044 
L 1275 1722 
L 2988 1722 
L 2584 4044 
z
" transform="scale(0.015625)"/>
      </defs>
      <use xlink:href="#DejaVuSans-Oblique-4d"/>
      <use xlink:href="#DejaVuSans-Oblique-65" x="86.279297"/>
      <use xlink:href="#DejaVuSans-Oblique-61" x="147.802734"/>
      <use xlink:href="#DejaVuSans-Oblique-6e" x="209.082031"/>
      <use xlink:href="#DejaVuSans-Oblique-20" x="272.460938"/>
      <use xlink:href="#DejaVuSans-Oblique-41" x="304.248047"/>
      <use xlink:href="#DejaVuSans-Oblique-63" x="372.65625"/>
      <use xlink:href="#DejaVuSans-Oblique-63" x="427.636719"/>
      <use xlink:href="#DejaVuSans-Oblique-75" x="482.617188"/>
      <use xlink:href="#DejaVuSans-Oblique-72" x="545.996094"/>
      <use xlink:href="#DejaVuSans-Oblique-61" x="587.109375"/>
      <use xlink:href="#DejaVuSans-Oblique-63" x="648.388672"/>
      <use xlink:href="#DejaVuSans-Oblique-79" x="703.369141"/>
     </g>
    </g>
   </g>
   <g id="PathCollection_1">
    <path d="M 605.121234 126.329349 
C 607.901127 126.329349 610.567537 125.224886 612.533218 123.259205 
C 614.498899 121.293524 615.603362 118.627114 615.603362 115.847221 
C 615.603362 113.067329 614.498899 110.400919 612.533218 108.435238 
C 610.567537 106.469557 607.901127 105.365094 605.121234 105.365094 
C 602.341341 105.365094 599.674931 106.469557 597.70925 108.435238 
C 595.743569 110.400919 594.639106 113.067329 594.639106 115.847221 
C 594.639106 118.627114 595.743569 121.293524 597.70925 123.259205 
C 599.674931 125.224886 602.341341 126.329349 605.121234 126.329349 
z
" clip-path="url(#p30e522be6f)" style="fill: #5f5f5f; fill-opacity: 0.8; stroke: #000000; stroke-opacity: 0.8; stroke-width: 0.3"/>
    <path d="M 513.87042 134.915621 
C 516.41243 134.915621 518.850668 133.90567 520.648141 132.108198 
C 522.445613 130.310725 523.455565 127.872487 523.455565 125.330477 
C 523.455565 122.788467 522.445613 120.350228 520.648141 118.552756 
C 518.850668 116.755283 516.41243 115.745332 513.87042 115.745332 
C 511.32841 115.745332 508.890172 116.755283 507.092699 118.552756 
C 505.295227 120.350228 504.285275 122.788467 504.285275 125.330477 
C 504.285275 127.872487 505.295227 130.310725 507.092699 132.108198 
C 508.890172 133.90567 511.32841 134.915621 513.87042 134.915621 
z
" clip-path="url(#p30e522be6f)" style="fill: #757575; fill-opacity: 0.8; stroke: #000000; stroke-opacity: 0.8; stroke-width: 0.3"/>
    <path d="M 426.646948 110.567382 
C 428.983522 110.567382 431.224709 109.639052 432.876916 107.986845 
C 434.529123 106.334638 435.457453 104.09345 435.457453 101.756877 
C 435.457453 99.420304 434.529123 97.179116 432.876916 95.526909 
C 431.224709 93.874702 428.983522 92.946372 426.646948 92.946372 
C 424.310375 92.946372 422.069187 93.874702 420.41698 95.526909 
C 418.764774 97.179116 417.836443 99.420304 417.836443 101.756877 
C 417.836443 104.09345 418.764774 106.334638 420.41698 107.986845 
C 422.069187 109.639052 424.310375 110.567382 426.646948 110.567382 
z
" clip-path="url(#p30e522be6f)" style="fill: #494949; fill-opacity: 0.8; stroke: #000000; stroke-opacity: 0.8; stroke-width: 0.3"/>
    <path d="M 474.546393 74.74449 
C 476.993242 74.74449 479.340204 73.772347 481.070388 72.042163 
C 482.800571 70.31198 483.772714 67.965018 483.772714 65.518169 
C 483.772714 63.07132 482.800571 60.724358 481.070388 58.994175 
C 479.340204 57.263991 476.993242 56.291848 474.546393 56.291848 
C 472.099544 56.291848 469.752583 57.263991 468.022399 58.994175 
C 466.292216 60.724358 465.320072 63.07132 465.320072 65.518169 
C 465.320072 67.965018 466.292216 70.31198 468.022399 72.042163 
C 469.752583 73.772347 472.099544 74.74449 474.546393 74.74449 
z
" clip-path="url(#p30e522be6f)" style="fill: #a0a0a0; fill-opacity: 0.8; stroke: #000000; stroke-opacity: 0.8; stroke-width: 0.3"/>
    <path d="M 122.787866 116.450657 
C 124.552015 116.450657 126.244146 115.749753 127.491588 114.502311 
C 128.739029 113.25487 129.439933 111.562738 129.439933 109.798589 
C 129.439933 108.034441 128.739029 106.342309 127.491588 105.094868 
C 126.244146 103.847426 124.552015 103.146522 122.787866 103.146522 
C 121.023717 103.146522 119.331586 103.847426 118.084144 105.094868 
C 116.836702 106.342309 116.135798 108.034441 116.135798 109.798589 
C 116.135798 111.562738 116.836702 113.25487 118.084144 114.502311 
C 119.331586 115.749753 121.023717 116.450657 122.787866 116.450657 
z
" clip-path="url(#p30e522be6f)" style="fill: #8a8a8a; fill-opacity: 0.8; stroke: #000000; stroke-opacity: 0.8; stroke-width: 0.3"/>
    <path d="M 251.858186 34.752132 
C 253.840568 34.752132 255.742024 33.964523 257.14378 32.562767 
C 258.545536 31.161012 259.333144 29.259556 259.333144 27.277174 
C 259.333144 25.294792 258.545536 23.393336 257.14378 21.99158 
C 255.742024 20.589824 253.840568 19.802216 251.858186 19.802216 
C 249.875804 19.802216 247.974348 20.589824 246.572592 21.99158 
C 245.170837 23.393336 244.383228 25.294792 244.383228 27.277174 
C 244.383228 29.259556 245.170837 31.161012 246.572592 32.562767 
C 247.974348 33.964523 249.875804 34.752132 251.858186 34.752132 
z
" clip-path="url(#p30e522be6f)" style="fill: #333333; fill-opacity: 0.8; stroke: #000000; stroke-opacity: 0.8; stroke-width: 0.3"/>
    <path d="M 488.020317 150.558424 
C 490.499292 150.558424 492.877068 149.573517 494.629969 147.820616 
C 496.382869 146.067716 497.367776 143.68994 497.367776 141.210964 
C 497.367776 138.731989 496.382869 136.354213 494.629969 134.601312 
C 492.877068 132.848412 490.499292 131.863505 488.020317 131.863505 
C 485.541341 131.863505 483.163565 132.848412 481.410665 134.601312 
C 479.657764 136.354213 478.672857 138.731989 478.672857 141.210964 
C 478.672857 143.68994 479.657764 146.067716 481.410665 147.820616 
C 483.163565 149.573517 485.541341 150.558424 488.020317 150.558424 
z
" clip-path="url(#p30e522be6f)" style="fill: #494949; fill-opacity: 0.8; stroke: #000000; stroke-opacity: 0.8; stroke-width: 0.3"/>
    <path d="M 441.531975 193.104175 
C 443.902169 193.104175 446.175606 192.162487 447.851587 190.486506 
C 449.527568 188.810525 450.469256 186.537088 450.469256 184.166894 
C 450.469256 181.796699 449.527568 179.523262 447.851587 177.847281 
C 446.175606 176.1713 443.902169 175.229612 441.531975 175.229612 
C 439.16178 175.229612 436.888343 176.1713 435.212362 177.847281 
C 433.536382 179.523262 432.594693 181.796699 432.594693 184.166894 
C 432.594693 186.537088 433.536382 188.810525 435.212362 190.486506 
C 436.888343 192.162487 439.16178 193.104175 441.531975 193.104175 
z
" clip-path="url(#p30e522be6f)" style="fill: #a0a0a0; fill-opacity: 0.8; stroke: #000000; stroke-opacity: 0.8; stroke-width: 0.3"/>
    <path d="M 310.087451 78.237505 
C 312.179868 78.237505 314.186867 77.406179 315.666429 75.926616 
C 317.145991 74.447054 317.977318 72.440055 317.977318 70.347638 
C 317.977318 68.255221 317.145991 66.248222 315.666429 64.76866 
C 314.186867 63.289097 312.179868 62.457771 310.087451 62.457771 
C 307.995033 62.457771 305.988035 63.289097 304.508472 64.76866 
C 303.02891 66.248222 302.197584 68.255221 302.197584 70.347638 
C 302.197584 72.440055 303.02891 74.447054 304.508472 75.926616 
C 305.988035 77.406179 307.995033 78.237505 310.087451 78.237505 
z
" clip-path="url(#p30e522be6f)" style="fill: #333333; fill-opacity: 0.8; stroke: #000000; stroke-opacity: 0.8; stroke-width: 0.3"/>
    <path d="M 127.549725 147.246238 
C 129.321334 147.246238 131.02062 146.542371 132.273336 145.289655 
C 133.526053 144.036938 134.22992 142.337652 134.22992 140.566044 
C 134.22992 138.794435 133.526053 137.095149 132.273336 135.842433 
C 131.02062 134.589717 129.321334 133.885849 127.549725 133.885849 
C 125.778117 133.885849 124.078831 134.589717 122.826114 135.842433 
C 121.573398 137.095149 120.869531 138.794435 120.869531 140.566044 
C 120.869531 142.337652 121.573398 144.036938 122.826114 145.289655 
C 124.078831 146.542371 125.778117 147.246238 127.549725 147.246238 
z
" clip-path="url(#p30e522be6f)" style="fill: #5f5f5f; fill-opacity: 0.8; stroke: #000000; stroke-opacity: 0.8; stroke-width: 0.3"/>
    <path d="M 395.395995 128.020539 
C 397.66383 128.020539 399.839086 127.119519 401.442688 125.515917 
C 403.04629 123.912315 403.94731 121.737059 403.94731 119.469224 
C 403.94731 117.201388 403.04629 115.026132 401.442688 113.42253 
C 399.839086 111.818929 397.66383 110.917908 395.395995 110.917908 
C 393.128159 110.917908 390.952903 111.818929 389.349301 113.42253 
C 387.7457 115.026132 386.844679 117.201388 386.844679 119.469224 
C 386.844679 121.737059 387.7457 123.912315 389.349301 125.515917 
C 390.952903 127.119519 393.128159 128.020539 395.395995 128.020539 
z
" clip-path="url(#p30e522be6f)" style="fill: #757575; fill-opacity: 0.8; stroke: #000000; stroke-opacity: 0.8; stroke-width: 0.3"/>
    <path d="M 209.968983 86.093914 
C 211.876787 86.093914 213.706709 85.335935 215.05573 83.986914 
C 216.404751 82.637893 217.16273 80.807971 217.16273 78.900166 
C 217.16273 76.992362 216.404751 75.16244 215.05573 73.813419 
C 213.706709 72.464398 211.876787 71.706419 209.968983 71.706419 
C 208.061179 71.706419 206.231257 72.464398 204.882235 73.813419 
C 203.533214 75.16244 202.775236 76.992362 202.775236 78.900166 
C 202.775236 80.807971 203.533214 82.637893 204.882235 83.986914 
C 206.231257 85.335935 208.061179 86.093914 209.968983 86.093914 
z
" clip-path="url(#p30e522be6f)" style="fill: #b6b6b6; fill-opacity: 0.8; stroke: #000000; stroke-opacity: 0.8; stroke-width: 0.3"/>
    <path d="M 201.938264 152.209553 
C 203.832193 152.209553 205.648807 151.457087 206.988017 150.117877 
C 208.327227 148.778667 209.079693 146.962053 209.079693 145.068124 
C 209.079693 143.174195 208.327227 141.357582 206.988017 140.018372 
C 205.648807 138.679162 203.832193 137.926696 201.938264 137.926696 
C 200.044336 137.926696 198.227722 138.679162 196.888512 140.018372 
C 195.549302 141.357582 194.796836 143.174195 194.796836 145.068124 
C 194.796836 146.962053 195.549302 148.778667 196.888512 150.117877 
C 198.227722 151.457087 200.044336 152.209553 201.938264 152.209553 
z
" clip-path="url(#p30e522be6f)" style="fill: #8a8a8a; fill-opacity: 0.8; stroke: #000000; stroke-opacity: 0.8; stroke-width: 0.3"/>
    <path d="M 88.043433 112.985861 
C 89.754455 112.985861 91.395629 112.306064 92.605504 111.096188 
C 93.81538 109.886313 94.495176 108.245139 94.495176 106.534117 
C 94.495176 104.823094 93.81538 103.18192 92.605504 101.972045 
C 91.395629 100.762169 89.754455 100.082373 88.043433 100.082373 
C 86.33241 100.082373 84.691236 100.762169 83.481361 101.972045 
C 82.271485 103.18192 81.591689 104.823094 81.591689 106.534117 
C 81.591689 108.245139 82.271485 109.886313 83.481361 111.096188 
C 84.691236 112.306064 86.33241 112.985861 88.043433 112.985861 
z
" clip-path="url(#p30e522be6f)" style="fill: #8a8a8a; fill-opacity: 0.8; stroke: #000000; stroke-opacity: 0.8; stroke-width: 0.3"/>
    <path d="M 237.050699 289.909628 
C 239.00629 289.909628 240.88205 289.132663 242.264862 287.74985 
C 243.647674 286.367038 244.424639 284.491279 244.424639 282.535687 
C 244.424639 280.580095 243.647674 278.704336 242.264862 277.321524 
C 240.88205 275.938711 239.00629 275.161746 237.050699 275.161746 
C 235.095107 275.161746 233.219347 275.938711 231.836535 277.321524 
C 230.453723 278.704336 229.676758 280.580095 229.676758 282.535687 
C 229.676758 284.491279 230.453723 286.367038 231.836535 287.74985 
C 233.219347 289.132663 235.095107 289.909628 237.050699 289.909628 
z
" clip-path="url(#p30e522be6f)" style="fill: #333333; fill-opacity: 0.8; stroke: #000000; stroke-opacity: 0.8; stroke-width: 0.3"/>
    <path d="M 108.208222 131.02699 
C 109.949801 131.02699 111.620284 130.335054 112.851766 129.103572 
C 114.083248 127.872089 114.775185 126.201607 114.775185 124.460028 
C 114.775185 122.718449 114.083248 121.047966 112.851766 119.816484 
C 111.620284 118.585002 109.949801 117.893065 108.208222 117.893065 
C 106.466643 117.893065 104.79616 118.585002 103.564678 119.816484 
C 102.333196 121.047966 101.641259 122.718449 101.641259 124.460028 
C 101.641259 126.201607 102.333196 127.872089 103.564678 129.103572 
C 104.79616 130.335054 106.466643 131.02699 108.208222 131.02699 
z
" clip-path="url(#p30e522be6f)" style="fill: #8a8a8a; fill-opacity: 0.8; stroke: #000000; stroke-opacity: 0.8; stroke-width: 0.3"/>
    <path d="M 61.567213 107.712953 
C 63.239255 107.712953 64.84304 107.048644 66.025352 105.866332 
C 67.207664 104.68402 67.871973 103.080235 67.871973 101.408193 
C 67.871973 99.736151 67.207664 98.132367 66.025352 96.950054 
C 64.84304 95.767742 63.239255 95.103433 61.567213 95.103433 
C 59.895171 95.103433 58.291387 95.767742 57.109075 96.950054 
C 55.926763 98.132367 55.262453 99.736151 55.262453 101.408193 
C 55.262453 103.080235 55.926763 104.68402 57.109075 105.866332 
C 58.291387 107.048644 59.895171 107.712953 61.567213 107.712953 
z
" clip-path="url(#p30e522be6f)" style="fill: #cccccc; fill-opacity: 0.8; stroke: #000000; stroke-opacity: 0.8; stroke-width: 0.3"/>
    <path d="M 332.128682 125.127458 
C 334.264761 125.127458 336.313639 124.278785 337.824075 122.768349 
C 339.334511 121.257914 340.183184 119.209035 340.183184 117.072957 
C 340.183184 114.936878 339.334511 112.888 337.824075 111.377564 
C 336.313639 109.867128 334.264761 109.018455 332.128682 109.018455 
C 329.992603 109.018455 327.943725 109.867128 326.433289 111.377564 
C 324.922854 112.888 324.07418 114.936878 324.07418 117.072957 
C 324.07418 119.209035 324.922854 121.257914 326.433289 122.768349 
C 327.943725 124.278785 329.992603 125.127458 332.128682 125.127458 
z
" clip-path="url(#p30e522be6f)" style="fill: #b6b6b6; fill-opacity: 0.8; stroke: #000000; stroke-opacity: 0.8; stroke-width: 0.3"/>
   </g>
   <g id="LineCollection_1">
    <path d="M 605.121234 353.346519 
L 605.121234 115.847221 
" clip-path="url(#p30e522be6f)" style="fill: none; stroke-dasharray: 1.85,0.8; stroke-dashoffset: 0; stroke: #eaeaea; stroke-width: 0.5"/>
   </g>
   <g id="LineCollection_2">
    <path d="M 49.852812 115.847221 
L 605.121234 115.847221 
" clip-path="url(#p30e522be6f)" style="fill: none; stroke-dasharray: 1.85,0.8; stroke-dashoffset: 0; stroke: #eaeaea; stroke-width: 0.5"/>
   </g>
   <g id="LineCollection_3">
    <path d="M 513.87042 353.346519 
L 513.87042 125.330477 
" clip-path="url(#p30e522be6f)" style="fill: none; stroke-dasharray: 1.85,0.8; stroke-dashoffset: 0; stroke: #eaeaea; stroke-width: 0.5"/>
   </g>
   <g id="LineCollection_4">
    <path d="M 49.852812 125.330477 
L 513.87042 125.330477 
" clip-path="url(#p30e522be6f)" style="fill: none; stroke-dasharray: 1.85,0.8; stroke-dashoffset: 0; stroke: #eaeaea; stroke-width: 0.5"/>
   </g>
   <g id="LineCollection_5">
    <path d="M 426.646948 353.346519 
L 426.646948 101.756877 
" clip-path="url(#p30e522be6f)" style="fill: none; stroke-dasharray: 1.85,0.8; stroke-dashoffset: 0; stroke: #eaeaea; stroke-width: 0.5"/>
   </g>
   <g id="LineCollection_6">
    <path d="M 49.852812 101.756877 
L 426.646948 101.756877 
" clip-path="url(#p30e522be6f)" style="fill: none; stroke-dasharray: 1.85,0.8; stroke-dashoffset: 0; stroke: #eaeaea; stroke-width: 0.5"/>
   </g>
   <g id="LineCollection_7">
    <path d="M 474.546393 353.346519 
L 474.546393 65.518169 
" clip-path="url(#p30e522be6f)" style="fill: none; stroke-dasharray: 1.85,0.8; stroke-dashoffset: 0; stroke: #eaeaea; stroke-width: 0.5"/>
   </g>
   <g id="LineCollection_8">
    <path d="M 49.852812 65.518169 
L 474.546393 65.518169 
" clip-path="url(#p30e522be6f)" style="fill: none; stroke-dasharray: 1.85,0.8; stroke-dashoffset: 0; stroke: #eaeaea; stroke-width: 0.5"/>
   </g>
   <g id="LineCollection_9">
    <path d="M 122.787866 353.346519 
L 122.787866 109.798589 
" clip-path="url(#p30e522be6f)" style="fill: none; stroke-dasharray: 1.85,0.8; stroke-dashoffset: 0; stroke: #eaeaea; stroke-width: 0.5"/>
   </g>
   <g id="LineCollection_10">
    <path d="M 49.852812 109.798589 
L 122.787866 109.798589 
" clip-path="url(#p30e522be6f)" style="fill: none; stroke-dasharray: 1.85,0.8; stroke-dashoffset: 0; stroke: #eaeaea; stroke-width: 0.5"/>
   </g>
   <g id="LineCollection_11">
    <path d="M 251.858186 353.346519 
L 251.858186 27.277174 
" clip-path="url(#p30e522be6f)" style="fill: none; stroke-dasharray: 1.85,0.8; stroke-dashoffset: 0; stroke: #eaeaea; stroke-width: 0.5"/>
   </g>
   <g id="LineCollection_12">
    <path d="M 49.852812 27.277174 
L 251.858186 27.277174 
" clip-path="url(#p30e522be6f)" style="fill: none; stroke-dasharray: 1.85,0.8; stroke-dashoffset: 0; stroke: #eaeaea; stroke-width: 0.5"/>
   </g>
   <g id="LineCollection_13">
    <path d="M 488.020317 353.346519 
L 488.020317 141.210964 
" clip-path="url(#p30e522be6f)" style="fill: none; stroke-dasharray: 1.85,0.8; stroke-dashoffset: 0; stroke: #eaeaea; stroke-width: 0.5"/>
   </g>
   <g id="LineCollection_14">
    <path d="M 49.852812 141.210964 
L 488.020317 141.210964 
" clip-path="url(#p30e522be6f)" style="fill: none; stroke-dasharray: 1.85,0.8; stroke-dashoffset: 0; stroke: #eaeaea; stroke-width: 0.5"/>
   </g>
   <g id="LineCollection_15">
    <path d="M 441.531975 353.346519 
L 441.531975 184.166894 
" clip-path="url(#p30e522be6f)" style="fill: none; stroke-dasharray: 1.85,0.8; stroke-dashoffset: 0; stroke: #eaeaea; stroke-width: 0.5"/>
   </g>
   <g id="LineCollection_16">
    <path d="M 49.852812 184.166894 
L 441.531975 184.166894 
" clip-path="url(#p30e522be6f)" style="fill: none; stroke-dasharray: 1.85,0.8; stroke-dashoffset: 0; stroke: #eaeaea; stroke-width: 0.5"/>
   </g>
   <g id="LineCollection_17">
    <path d="M 310.087451 353.346519 
L 310.087451 70.347638 
" clip-path="url(#p30e522be6f)" style="fill: none; stroke-dasharray: 1.85,0.8; stroke-dashoffset: 0; stroke: #eaeaea; stroke-width: 0.5"/>
   </g>
   <g id="LineCollection_18">
    <path d="M 49.852812 70.347638 
L 310.087451 70.347638 
" clip-path="url(#p30e522be6f)" style="fill: none; stroke-dasharray: 1.85,0.8; stroke-dashoffset: 0; stroke: #eaeaea; stroke-width: 0.5"/>
   </g>
   <g id="LineCollection_19">
    <path d="M 127.549725 353.346519 
L 127.549725 140.566044 
" clip-path="url(#p30e522be6f)" style="fill: none; stroke-dasharray: 1.85,0.8; stroke-dashoffset: 0; stroke: #eaeaea; stroke-width: 0.5"/>
   </g>
   <g id="LineCollection_20">
    <path d="M 49.852812 140.566044 
L 127.549725 140.566044 
" clip-path="url(#p30e522be6f)" style="fill: none; stroke-dasharray: 1.85,0.8; stroke-dashoffset: 0; stroke: #eaeaea; stroke-width: 0.5"/>
   </g>
   <g id="LineCollection_21">
    <path d="M 395.395995 353.346519 
L 395.395995 119.469224 
" clip-path="url(#p30e522be6f)" style="fill: none; stroke-dasharray: 1.85,0.8; stroke-dashoffset: 0; stroke: #eaeaea; stroke-width: 0.5"/>
   </g>
   <g id="LineCollection_22">
    <path d="M 49.852812 119.469224 
L 395.395995 119.469224 
" clip-path="url(#p30e522be6f)" style="fill: none; stroke-dasharray: 1.85,0.8; stroke-dashoffset: 0; stroke: #eaeaea; stroke-width: 0.5"/>
   </g>
   <g id="LineCollection_23">
    <path d="M 209.968983 353.346519 
L 209.968983 78.900166 
" clip-path="url(#p30e522be6f)" style="fill: none; stroke-dasharray: 1.85,0.8; stroke-dashoffset: 0; stroke: #eaeaea; stroke-width: 0.5"/>
   </g>
   <g id="LineCollection_24">
    <path d="M 49.852812 78.900166 
L 209.968983 78.900166 
" clip-path="url(#p30e522be6f)" style="fill: none; stroke-dasharray: 1.85,0.8; stroke-dashoffset: 0; stroke: #eaeaea; stroke-width: 0.5"/>
   </g>
   <g id="LineCollection_25">
    <path d="M 201.938264 353.346519 
L 201.938264 145.068124 
" clip-path="url(#p30e522be6f)" style="fill: none; stroke-dasharray: 1.85,0.8; stroke-dashoffset: 0; stroke: #eaeaea; stroke-width: 0.5"/>
   </g>
   <g id="LineCollection_26">
    <path d="M 49.852812 145.068124 
L 201.938264 145.068124 
" clip-path="url(#p30e522be6f)" style="fill: none; stroke-dasharray: 1.85,0.8; stroke-dashoffset: 0; stroke: #eaeaea; stroke-width: 0.5"/>
   </g>
   <g id="LineCollection_27">
    <path d="M 88.043433 353.346519 
L 88.043433 106.534117 
" clip-path="url(#p30e522be6f)" style="fill: none; stroke-dasharray: 1.85,0.8; stroke-dashoffset: 0; stroke: #eaeaea; stroke-width: 0.5"/>
   </g>
   <g id="LineCollection_28">
    <path d="M 49.852812 106.534117 
L 88.043433 106.534117 
" clip-path="url(#p30e522be6f)" style="fill: none; stroke-dasharray: 1.85,0.8; stroke-dashoffset: 0; stroke: #eaeaea; stroke-width: 0.5"/>
   </g>
   <g id="LineCollection_29">
    <path d="M 237.050699 353.346519 
L 237.050699 282.535687 
" clip-path="url(#p30e522be6f)" style="fill: none; stroke-dasharray: 1.85,0.8; stroke-dashoffset: 0; stroke: #eaeaea; stroke-width: 0.5"/>
   </g>
   <g id="LineCollection_30">
    <path d="M 49.852812 282.535687 
L 237.050699 282.535687 
" clip-path="url(#p30e522be6f)" style="fill: none; stroke-dasharray: 1.85,0.8; stroke-dashoffset: 0; stroke: #eaeaea; stroke-width: 0.5"/>
   </g>
   <g id="LineCollection_31">
    <path d="M 108.208222 353.346519 
L 108.208222 124.460028 
" clip-path="url(#p30e522be6f)" style="fill: none; stroke-dasharray: 1.85,0.8; stroke-dashoffset: 0; stroke: #eaeaea; stroke-width: 0.5"/>
   </g>
   <g id="LineCollection_32">
    <path d="M 49.852812 124.460028 
L 108.208222 124.460028 
" clip-path="url(#p30e522be6f)" style="fill: none; stroke-dasharray: 1.85,0.8; stroke-dashoffset: 0; stroke: #eaeaea; stroke-width: 0.5"/>
   </g>
   <g id="LineCollection_33">
    <path d="M 61.567213 353.346519 
L 61.567213 101.408193 
" clip-path="url(#p30e522be6f)" style="fill: none; stroke-dasharray: 1.85,0.8; stroke-dashoffset: 0; stroke: #eaeaea; stroke-width: 0.5"/>
   </g>
   <g id="LineCollection_34">
    <path d="M 49.852812 101.408193 
L 61.567213 101.408193 
" clip-path="url(#p30e522be6f)" style="fill: none; stroke-dasharray: 1.85,0.8; stroke-dashoffset: 0; stroke: #eaeaea; stroke-width: 0.5"/>
   </g>
   <g id="LineCollection_35">
    <path d="M 332.128682 353.346519 
L 332.128682 117.072957 
" clip-path="url(#p30e522be6f)" style="fill: none; stroke-dasharray: 1.85,0.8; stroke-dashoffset: 0; stroke: #eaeaea; stroke-width: 0.5"/>
   </g>
   <g id="LineCollection_36">
    <path d="M 49.852812 117.072957 
L 332.128682 117.072957 
" clip-path="url(#p30e522be6f)" style="fill: none; stroke-dasharray: 1.85,0.8; stroke-dashoffset: 0; stroke: #eaeaea; stroke-width: 0.5"/>
   </g>
   <g id="text_18">
    <!-- Layers_1 -->
    <g style="fill: #262626" transform="translate(606.858109 110.719719) rotate(-90) scale(0.07 -0.07)">
     <defs>
      <path id="DejaVuSans-BoldOblique-4c" d="M 1044 4666 
L 2247 4666 
L 1516 909 
L 3622 909 
L 3450 0 
L 134 0 
L 1044 4666 
z
" transform="scale(0.015625)"/>
      <path id="DejaVuSans-BoldOblique-61" d="M 2106 1575 
Q 1688 1575 1473 1445 
Q 1259 1316 1259 1063 
Q 1259 872 1386 762 
Q 1513 653 1734 653 
Q 2078 653 2309 861 
Q 2541 1069 2619 1447 
L 2644 1575 
L 2106 1575 
z
M 3853 1997 
L 3463 0 
L 2344 0 
L 2438 519 
Q 2163 206 1856 57 
Q 1550 -91 1191 -91 
Q 694 -91 401 167 
Q 109 425 109 863 
Q 109 1531 626 1886 
Q 1144 2241 2119 2241 
L 2778 2241 
L 2791 2328 
Q 2800 2372 2801 2390 
Q 2803 2409 2803 2425 
Q 2803 2631 2608 2736 
Q 2413 2841 2028 2841 
Q 1681 2841 1356 2769 
Q 1031 2697 728 2553 
L 897 3406 
Q 1247 3494 1614 3539 
Q 1981 3584 2375 3584 
Q 3153 3584 3531 3317 
Q 3909 3050 3909 2503 
Q 3909 2397 3895 2270 
Q 3881 2144 3853 1997 
z
" transform="scale(0.015625)"/>
      <path id="DejaVuSans-BoldOblique-79" d="M 422 3500 
L 1478 3500 
L 1959 1075 
L 3200 3500 
L 4397 3500 
L 2181 -331 
Q 1809 -978 1493 -1179 
Q 1178 -1381 678 -1381 
L 0 -1381 
L 116 -647 
L 469 -647 
Q 744 -647 895 -555 
Q 1047 -463 1166 -231 
L 1269 -44 
L 422 3500 
z
" transform="scale(0.015625)"/>
      <path id="DejaVuSans-BoldOblique-65" d="M 4025 1619 
L 3988 1441 
L 1369 1441 
Q 1369 1422 1366 1386 
Q 1363 1350 1363 1331 
Q 1363 991 1567 822 
Q 1772 653 2181 653 
Q 2534 653 2926 759 
Q 3319 866 3750 1075 
L 3578 206 
Q 3169 56 2764 -17 
Q 2359 -91 1941 -91 
Q 1122 -91 676 287 
Q 231 666 231 1356 
Q 231 1756 373 2132 
Q 516 2509 788 2822 
Q 1109 3197 1557 3390 
Q 2006 3584 2553 3584 
Q 3263 3584 3680 3206 
Q 4097 2828 4097 2188 
Q 4097 2063 4080 1923 
Q 4063 1784 4025 1619 
z
M 2969 2131 
Q 2978 2172 2983 2214 
Q 2988 2256 2988 2297 
Q 2988 2547 2838 2694 
Q 2688 2841 2431 2841 
Q 2103 2841 1873 2661 
Q 1644 2481 1522 2131 
L 2969 2131 
z
" transform="scale(0.015625)"/>
      <path id="DejaVuSans-BoldOblique-72" d="M 3291 2547 
Q 3175 2613 3034 2647 
Q 2894 2681 2731 2681 
Q 2303 2681 2020 2406 
Q 1738 2131 1638 1613 
L 1319 0 
L 197 0 
L 878 3500 
L 2003 3500 
L 1881 2900 
Q 2103 3231 2436 3407 
Q 2769 3584 3175 3584 
Q 3234 3584 3309 3578 
Q 3384 3572 3488 3559 
L 3291 2547 
z
" transform="scale(0.015625)"/>
      <path id="DejaVuSans-BoldOblique-73" d="M 3584 3391 
L 3419 2522 
Q 3091 2678 2766 2759 
Q 2441 2841 2150 2841 
Q 1819 2841 1639 2755 
Q 1459 2669 1459 2509 
Q 1459 2416 1559 2359 
Q 1659 2303 1953 2241 
L 2156 2203 
Q 2834 2059 3106 1832 
Q 3378 1606 3378 1203 
Q 3378 594 2900 251 
Q 2422 -91 1563 -91 
Q 1203 -91 828 -34 
Q 453 22 63 134 
L 231 1013 
Q 534 834 879 743 
Q 1225 653 1588 653 
Q 1941 653 2119 737 
Q 2297 822 2297 984 
Q 2297 1097 2197 1159 
Q 2097 1222 1784 1288 
L 1581 1325 
Q 981 1450 725 1694 
Q 469 1938 469 2369 
Q 469 2953 911 3268 
Q 1353 3584 2175 3584 
Q 2534 3584 2882 3536 
Q 3231 3488 3584 3391 
z
" transform="scale(0.015625)"/>
      <path id="DejaVuSans-BoldOblique-5f" d="M 3263 -916 
L 3263 -1509 
L -63 -1509 
L -63 -916 
L 3263 -916 
z
" transform="scale(0.015625)"/>
      <path id="DejaVuSans-BoldOblique-31" d="M 441 831 
L 1503 831 
L 2088 3847 
L 953 3622 
L 1113 4441 
L 2241 4666 
L 3384 4666 
L 2644 831 
L 3700 831 
L 3541 0 
L 275 0 
L 441 831 
z
" transform="scale(0.015625)"/>
     </defs>
     <use xlink:href="#DejaVuSans-BoldOblique-4c"/>
     <use xlink:href="#DejaVuSans-BoldOblique-61" x="63.720703"/>
     <use xlink:href="#DejaVuSans-BoldOblique-79" x="128.076172"/>
     <use xlink:href="#DejaVuSans-BoldOblique-65" x="193.261719"/>
     <use xlink:href="#DejaVuSans-BoldOblique-72" x="261.083984"/>
     <use xlink:href="#DejaVuSans-BoldOblique-73" x="310.400391"/>
     <use xlink:href="#DejaVuSans-BoldOblique-5f" x="369.921875"/>
     <use xlink:href="#DejaVuSans-BoldOblique-31" x="419.921875"/>
    </g>
   </g>
   <g id="text_19">
    <!-- Rnn_lstm -->
    <g style="fill: #262626" transform="translate(515.704639 171.647512) rotate(-90) scale(0.07 -0.07)">
     <defs>
      <path id="DejaVuSans-BoldOblique-52" d="M 2350 2597 
Q 2759 2597 2970 2787 
Q 3181 2978 3181 3347 
Q 3181 3578 3036 3686 
Q 2891 3794 2578 3794 
L 2081 3794 
L 1844 2597 
L 2350 2597 
z
M 1684 1766 
L 1338 0 
L 134 0 
L 1044 4666 
L 2822 4666 
Q 3591 4666 3987 4378 
Q 4384 4091 4384 3531 
Q 4384 2966 4071 2600 
Q 3759 2234 3225 2181 
Q 3469 2131 3631 1932 
Q 3794 1734 3916 1325 
L 4313 0 
L 3116 0 
L 2766 1159 
Q 2659 1506 2507 1636 
Q 2356 1766 2069 1766 
L 1684 1766 
z
" transform="scale(0.015625)"/>
      <path id="DejaVuSans-BoldOblique-6e" d="M 4128 2131 
L 3713 0 
L 2591 0 
L 2944 1825 
Q 2981 2003 3001 2126 
Q 3022 2250 3022 2322 
Q 3022 2522 2911 2631 
Q 2800 2741 2597 2741 
Q 2250 2741 2001 2470 
Q 1753 2200 1656 1722 
L 1319 0 
L 197 0 
L 878 3500 
L 2003 3500 
L 1900 2988 
Q 2209 3291 2521 3437 
Q 2834 3584 3175 3584 
Q 3659 3584 3921 3331 
Q 4184 3078 4184 2619 
Q 4184 2519 4170 2397 
Q 4156 2275 4128 2131 
z
" transform="scale(0.015625)"/>
      <path id="DejaVuSans-BoldOblique-6c" d="M 1141 4863 
L 2266 4863 
L 1319 0 
L 197 0 
L 1141 4863 
z
" transform="scale(0.015625)"/>
      <path id="DejaVuSans-BoldOblique-74" d="M 2303 4494 
L 2113 3500 
L 3256 3500 
L 3097 2700 
L 1953 2700 
L 1666 1219 
Q 1653 1169 1648 1134 
Q 1644 1100 1644 1069 
Q 1644 925 1739 862 
Q 1834 800 2059 800 
L 2638 800 
L 2478 0 
L 1538 0 
Q 1031 0 765 212 
Q 500 425 500 825 
Q 500 913 509 1013 
Q 519 1113 538 1216 
L 825 2700 
L 275 2700 
L 428 3500 
L 984 3500 
L 1178 4494 
L 2303 4494 
z
" transform="scale(0.015625)"/>
      <path id="DejaVuSans-BoldOblique-6d" d="M 4013 2919 
Q 4272 3241 4601 3412 
Q 4931 3584 5288 3584 
Q 5756 3584 6026 3326 
Q 6297 3069 6297 2619 
Q 6297 2525 6283 2404 
Q 6269 2284 6241 2131 
L 5825 0 
L 4697 0 
L 5050 1825 
L 5059 1872 
Q 5141 2259 5141 2369 
Q 5141 2541 5042 2641 
Q 4944 2741 4775 2741 
Q 4453 2741 4229 2477 
Q 4006 2213 3909 1722 
L 3572 0 
L 2444 0 
L 2803 1825 
Q 2850 2059 2869 2179 
Q 2888 2300 2888 2369 
Q 2888 2544 2791 2642 
Q 2694 2741 2522 2741 
Q 2213 2741 1980 2467 
Q 1747 2194 1656 1722 
L 1319 0 
L 197 0 
L 878 3500 
L 2003 3500 
L 1900 2988 
Q 2163 3284 2459 3434 
Q 2756 3584 3078 3584 
Q 3441 3584 3700 3398 
Q 3959 3213 4013 2919 
z
" transform="scale(0.015625)"/>
     </defs>
     <use xlink:href="#DejaVuSans-BoldOblique-52"/>
     <use xlink:href="#DejaVuSans-BoldOblique-6e" x="77.001953"/>
     <use xlink:href="#DejaVuSans-BoldOblique-6e" x="148.193359"/>
     <use xlink:href="#DejaVuSans-BoldOblique-5f" x="219.384766"/>
     <use xlink:href="#DejaVuSans-BoldOblique-6c" x="269.384766"/>
     <use xlink:href="#DejaVuSans-BoldOblique-73" x="303.662109"/>
     <use xlink:href="#DejaVuSans-BoldOblique-74" x="363.183594"/>
     <use xlink:href="#DejaVuSans-BoldOblique-6d" x="410.986328"/>
    </g>
   </g>
   <g id="text_20">
    <!-- Direction_bidirectional -->
    <g style="fill: #262626" transform="translate(428.481167 96.629375) rotate(-90) scale(0.07 -0.07)">
     <defs>
      <path id="DejaVuSans-BoldOblique-44" d="M 2075 3756 
L 1516 909 
L 1947 909 
Q 2788 909 3278 1381 
Q 3769 1853 3769 2656 
Q 3769 3200 3448 3478 
Q 3128 3756 2497 3756 
L 2075 3756 
z
M 1044 4666 
L 2309 4666 
Q 3216 4666 3669 4558 
Q 4122 4450 4422 4197 
Q 4725 3944 4878 3583 
Q 5031 3222 5031 2766 
Q 5031 2131 4770 1570 
Q 4509 1009 4038 628 
Q 3625 288 3079 144 
Q 2534 0 1403 0 
L 134 0 
L 1044 4666 
z
" transform="scale(0.015625)"/>
      <path id="DejaVuSans-BoldOblique-69" d="M 878 3500 
L 2003 3500 
L 1319 0 
L 197 0 
L 878 3500 
z
M 1141 4863 
L 2266 4863 
L 2088 3950 
L 959 3950 
L 1141 4863 
z
" transform="scale(0.015625)"/>
      <path id="DejaVuSans-BoldOblique-63" d="M 3719 3391 
L 3541 2478 
Q 3316 2628 3097 2706 
Q 2878 2784 2669 2784 
Q 2122 2784 1775 2417 
Q 1428 2050 1428 1478 
Q 1428 1113 1643 911 
Q 1859 709 2253 709 
Q 2516 709 2769 787 
Q 3022 866 3250 1019 
L 3078 103 
Q 2800 6 2519 -42 
Q 2238 -91 1953 -91 
Q 1128 -91 683 279 
Q 238 650 238 1331 
Q 238 1759 402 2162 
Q 566 2566 872 2888 
Q 1213 3241 1653 3412 
Q 2094 3584 2669 3584 
Q 2934 3584 3196 3536 
Q 3459 3488 3719 3391 
z
" transform="scale(0.015625)"/>
      <path id="DejaVuSans-BoldOblique-6f" d="M 2400 2784 
Q 1966 2784 1684 2390 
Q 1403 1997 1403 1388 
Q 1403 1056 1554 882 
Q 1706 709 1997 709 
Q 2431 709 2712 1104 
Q 2994 1500 2994 2113 
Q 2994 2441 2842 2612 
Q 2691 2784 2400 2784 
z
M 2491 3584 
Q 3272 3584 3719 3187 
Q 4166 2791 4166 2106 
Q 4166 1709 4025 1336 
Q 3884 963 3616 653 
Q 3297 284 2862 96 
Q 2428 -91 1894 -91 
Q 1122 -91 676 306 
Q 231 703 231 1388 
Q 231 1781 375 2157 
Q 519 2534 788 2847 
Q 1100 3209 1533 3396 
Q 1966 3584 2491 3584 
z
" transform="scale(0.015625)"/>
      <path id="DejaVuSans-BoldOblique-62" d="M 2597 2772 
Q 2166 2772 1892 2373 
Q 1619 1975 1619 1338 
Q 1619 1050 1773 886 
Q 1928 722 2203 722 
Q 2625 722 2900 1114 
Q 3175 1506 3175 2119 
Q 3175 2438 3026 2605 
Q 2878 2772 2597 2772 
z
M 1422 506 
L 1319 0 
L 197 0 
L 1141 4863 
L 2266 4863 
L 1900 2988 
Q 2156 3294 2437 3439 
Q 2719 3584 3053 3584 
Q 3644 3584 3987 3209 
Q 4331 2834 4331 2188 
Q 4331 1784 4211 1403 
Q 4091 1022 3866 709 
Q 3581 316 3223 112 
Q 2866 -91 2456 -91 
Q 2097 -91 1845 54 
Q 1594 200 1422 506 
z
" transform="scale(0.015625)"/>
      <path id="DejaVuSans-BoldOblique-64" d="M 1966 722 
Q 2397 722 2667 1119 
Q 2938 1516 2938 2156 
Q 2938 2447 2786 2609 
Q 2634 2772 2363 2772 
Q 1938 2772 1663 2380 
Q 1388 1988 1388 1375 
Q 1388 1056 1536 889 
Q 1684 722 1966 722 
z
M 3144 2988 
L 3506 4863 
L 4634 4863 
L 3688 0 
L 2559 0 
L 2663 506 
Q 2406 200 2125 54 
Q 1844 -91 1509 -91 
Q 919 -91 575 284 
Q 231 659 231 1306 
Q 231 1709 351 2090 
Q 472 2472 697 2784 
Q 981 3178 1339 3381 
Q 1697 3584 2106 3584 
Q 2466 3584 2717 3439 
Q 2969 3294 3144 2988 
z
" transform="scale(0.015625)"/>
     </defs>
     <use xlink:href="#DejaVuSans-BoldOblique-44"/>
     <use xlink:href="#DejaVuSans-BoldOblique-69" x="83.007812"/>
     <use xlink:href="#DejaVuSans-BoldOblique-72" x="117.285156"/>
     <use xlink:href="#DejaVuSans-BoldOblique-65" x="166.601562"/>
     <use xlink:href="#DejaVuSans-BoldOblique-63" x="234.423828"/>
     <use xlink:href="#DejaVuSans-BoldOblique-74" x="293.701172"/>
     <use xlink:href="#DejaVuSans-BoldOblique-69" x="341.503906"/>
     <use xlink:href="#DejaVuSans-BoldOblique-6f" x="375.78125"/>
     <use xlink:href="#DejaVuSans-BoldOblique-6e" x="444.482422"/>
     <use xlink:href="#DejaVuSans-BoldOblique-5f" x="515.673828"/>
     <use xlink:href="#DejaVuSans-BoldOblique-62" x="565.673828"/>
     <use xlink:href="#DejaVuSans-BoldOblique-69" x="637.255859"/>
     <use xlink:href="#DejaVuSans-BoldOblique-64" x="671.533203"/>
     <use xlink:href="#DejaVuSans-BoldOblique-69" x="743.115234"/>
     <use xlink:href="#DejaVuSans-BoldOblique-72" x="777.392578"/>
     <use xlink:href="#DejaVuSans-BoldOblique-65" x="826.708984"/>
     <use xlink:href="#DejaVuSans-BoldOblique-63" x="894.53125"/>
     <use xlink:href="#DejaVuSans-BoldOblique-74" x="953.808594"/>
     <use xlink:href="#DejaVuSans-BoldOblique-69" x="1001.611328"/>
     <use xlink:href="#DejaVuSans-BoldOblique-6f" x="1035.888672"/>
     <use xlink:href="#DejaVuSans-BoldOblique-6e" x="1104.589844"/>
     <use xlink:href="#DejaVuSans-BoldOblique-61" x="1175.78125"/>
     <use xlink:href="#DejaVuSans-BoldOblique-6c" x="1243.261719"/>
    </g>
   </g>
   <g id="text_21">
    <!-- State_stateless -->
    <g style="fill: #262626" transform="translate(476.380612 136.287079) rotate(-90) scale(0.07 -0.07)">
     <defs>
      <path id="DejaVuSans-BoldOblique-53" d="M 4256 4519 
L 4063 3531 
Q 3709 3706 3365 3792 
Q 3022 3878 2694 3878 
Q 2244 3878 1992 3737 
Q 1741 3597 1741 3347 
Q 1741 3188 1852 3098 
Q 1963 3009 2309 2925 
L 2803 2803 
Q 3422 2647 3711 2351 
Q 4000 2056 4000 1588 
Q 4000 828 3423 368 
Q 2847 -91 1875 -91 
Q 1422 -91 973 -6 
Q 525 78 97 244 
L 288 1259 
Q 703 1019 1095 900 
Q 1488 781 1869 781 
Q 2281 781 2539 950 
Q 2797 1119 2797 1381 
Q 2797 1553 2681 1648 
Q 2566 1744 2175 1844 
L 1684 1966 
Q 1141 2100 875 2390 
Q 609 2681 609 3144 
Q 609 3872 1167 4311 
Q 1725 4750 2669 4750 
Q 3047 4750 3445 4692 
Q 3844 4634 4256 4519 
z
" transform="scale(0.015625)"/>
     </defs>
     <use xlink:href="#DejaVuSans-BoldOblique-53"/>
     <use xlink:href="#DejaVuSans-BoldOblique-74" x="72.021484"/>
     <use xlink:href="#DejaVuSans-BoldOblique-61" x="119.824219"/>
     <use xlink:href="#DejaVuSans-BoldOblique-74" x="187.304688"/>
     <use xlink:href="#DejaVuSans-BoldOblique-65" x="235.107422"/>
     <use xlink:href="#DejaVuSans-BoldOblique-5f" x="302.929688"/>
     <use xlink:href="#DejaVuSans-BoldOblique-73" x="352.929688"/>
     <use xlink:href="#DejaVuSans-BoldOblique-74" x="412.451172"/>
     <use xlink:href="#DejaVuSans-BoldOblique-61" x="460.253906"/>
     <use xlink:href="#DejaVuSans-BoldOblique-74" x="527.734375"/>
     <use xlink:href="#DejaVuSans-BoldOblique-65" x="575.537109"/>
     <use xlink:href="#DejaVuSans-BoldOblique-6c" x="643.359375"/>
     <use xlink:href="#DejaVuSans-BoldOblique-65" x="677.636719"/>
     <use xlink:href="#DejaVuSans-BoldOblique-73" x="745.458984"/>
     <use xlink:href="#DejaVuSans-BoldOblique-73" x="804.980469"/>
    </g>
   </g>
   <g id="text_22">
    <!-- Seq_12 -->
    <g style="fill: #262626" transform="translate(124.560288 104.671088) rotate(-90) scale(0.07 -0.07)">
     <defs>
      <path id="DejaVuSans-BoldOblique-71" d="M 3144 2988 
L 3238 3500 
L 4366 3500 
L 3425 -1331 
L 2297 -1331 
L 2656 506 
Q 2406 200 2125 54 
Q 1844 -91 1509 -91 
Q 919 -91 575 284 
Q 231 659 231 1306 
Q 231 1709 351 2090 
Q 472 2472 697 2784 
Q 981 3178 1339 3381 
Q 1697 3584 2106 3584 
Q 2466 3584 2717 3439 
Q 2969 3294 3144 2988 
z
M 1966 722 
Q 2397 722 2667 1119 
Q 2938 1516 2938 2156 
Q 2938 2447 2786 2609 
Q 2634 2772 2363 2772 
Q 1938 2772 1663 2380 
Q 1388 1988 1388 1375 
Q 1388 1056 1536 889 
Q 1684 722 1966 722 
z
" transform="scale(0.015625)"/>
      <path id="DejaVuSans-BoldOblique-32" d="M 1581 884 
L 3609 884 
L 3438 0 
L 50 0 
L 225 891 
L 2209 2388 
Q 2534 2638 2704 2894 
Q 2875 3150 2875 3391 
Q 2875 3647 2700 3787 
Q 2525 3928 2209 3928 
Q 1913 3928 1547 3811 
Q 1181 3694 722 3450 
L 922 4441 
Q 1347 4597 1756 4673 
Q 2166 4750 2566 4750 
Q 3278 4750 3687 4442 
Q 4097 4134 4097 3603 
Q 4097 3147 3847 2772 
Q 3597 2397 2747 1759 
L 1581 884 
z
" transform="scale(0.015625)"/>
     </defs>
     <use xlink:href="#DejaVuSans-BoldOblique-53"/>
     <use xlink:href="#DejaVuSans-BoldOblique-65" x="72.021484"/>
     <use xlink:href="#DejaVuSans-BoldOblique-71" x="139.84375"/>
     <use xlink:href="#DejaVuSans-BoldOblique-5f" x="211.425781"/>
     <use xlink:href="#DejaVuSans-BoldOblique-31" x="261.425781"/>
     <use xlink:href="#DejaVuSans-BoldOblique-32" x="331.005859"/>
    </g>
   </g>
   <g id="text_23">
    <!-- Cnn_inceptionv3 -->
    <g style="fill: #262626" transform="translate(253.692405 102.398115) rotate(-90) scale(0.07 -0.07)">
     <defs>
      <path id="DejaVuSans-BoldOblique-43" d="M 3878 219 
Q 3447 66 3050 -12 
Q 2653 -91 2297 -91 
Q 1356 -91 793 425 
Q 231 941 231 1791 
Q 231 2350 409 2845 
Q 588 3341 934 3750 
Q 1344 4231 1920 4490 
Q 2497 4750 3163 4750 
Q 3525 4750 3890 4664 
Q 4256 4578 4634 4403 
L 4441 3438 
Q 4141 3666 3837 3772 
Q 3534 3878 3188 3878 
Q 2466 3878 1978 3322 
Q 1491 2766 1491 1931 
Q 1491 1394 1791 1087 
Q 2091 781 2619 781 
Q 2934 781 3289 895 
Q 3644 1009 4084 1253 
L 3878 219 
z
" transform="scale(0.015625)"/>
      <path id="DejaVuSans-BoldOblique-70" d="M 1422 506 
L 1063 -1331 
L -63 -1331 
L 878 3500 
L 2003 3500 
L 1900 2988 
Q 2156 3294 2437 3439 
Q 2719 3584 3053 3584 
Q 3644 3584 3987 3209 
Q 4331 2834 4331 2188 
Q 4331 1784 4211 1403 
Q 4091 1022 3866 709 
Q 3581 316 3223 112 
Q 2866 -91 2456 -91 
Q 2097 -91 1845 54 
Q 1594 200 1422 506 
z
M 2597 2772 
Q 2166 2772 1892 2373 
Q 1619 1975 1619 1338 
Q 1619 1050 1773 886 
Q 1928 722 2203 722 
Q 2625 722 2900 1114 
Q 3175 1506 3175 2119 
Q 3175 2438 3026 2605 
Q 2878 2772 2597 2772 
z
" transform="scale(0.015625)"/>
      <path id="DejaVuSans-BoldOblique-76" d="M 403 3500 
L 1434 3500 
L 1888 1056 
L 3206 3500 
L 4341 3500 
L 2284 0 
L 1100 0 
L 403 3500 
z
" transform="scale(0.015625)"/>
      <path id="DejaVuSans-BoldOblique-33" d="M 3022 2516 
Q 3375 2434 3572 2187 
Q 3769 1941 3769 1581 
Q 3769 806 3155 357 
Q 2541 -91 1466 -91 
Q 1059 -91 692 -33 
Q 325 25 0 141 
L 178 1069 
Q 456 906 784 817 
Q 1113 728 1441 728 
Q 1969 728 2276 926 
Q 2584 1125 2584 1459 
Q 2584 1738 2350 1877 
Q 2116 2016 1644 2016 
L 1166 2016 
L 1319 2791 
L 1825 2791 
Q 2316 2791 2602 2969 
Q 2888 3147 2888 3450 
Q 2888 3688 2689 3813 
Q 2491 3938 2113 3938 
Q 1847 3938 1534 3869 
Q 1222 3800 884 3669 
L 1056 4550 
Q 1425 4650 1783 4700 
Q 2141 4750 2491 4750 
Q 3281 4750 3679 4487 
Q 4078 4225 4078 3706 
Q 4078 3241 3801 2930 
Q 3525 2619 3022 2516 
z
" transform="scale(0.015625)"/>
     </defs>
     <use xlink:href="#DejaVuSans-BoldOblique-43"/>
     <use xlink:href="#DejaVuSans-BoldOblique-6e" x="73.388672"/>
     <use xlink:href="#DejaVuSans-BoldOblique-6e" x="144.580078"/>
     <use xlink:href="#DejaVuSans-BoldOblique-5f" x="215.771484"/>
     <use xlink:href="#DejaVuSans-BoldOblique-69" x="265.771484"/>
     <use xlink:href="#DejaVuSans-BoldOblique-6e" x="300.048828"/>
     <use xlink:href="#DejaVuSans-BoldOblique-63" x="371.240234"/>
     <use xlink:href="#DejaVuSans-BoldOblique-65" x="430.517578"/>
     <use xlink:href="#DejaVuSans-BoldOblique-70" x="498.339844"/>
     <use xlink:href="#DejaVuSans-BoldOblique-74" x="569.921875"/>
     <use xlink:href="#DejaVuSans-BoldOblique-69" x="617.724609"/>
     <use xlink:href="#DejaVuSans-BoldOblique-6f" x="652.001953"/>
     <use xlink:href="#DejaVuSans-BoldOblique-6e" x="720.703125"/>
     <use xlink:href="#DejaVuSans-BoldOblique-76" x="791.894531"/>
     <use xlink:href="#DejaVuSans-BoldOblique-33" x="857.080078"/>
    </g>
   </g>
   <g id="text_24">
    <!-- Direction_unidirectional -->
    <g style="fill: #262626" transform="translate(489.854535 136.083462) rotate(-90) scale(0.07 -0.07)">
     <defs>
      <path id="DejaVuSans-BoldOblique-75" d="M 434 1363 
L 844 3500 
L 1966 3500 
L 1613 1678 
Q 1575 1500 1556 1375 
Q 1538 1250 1538 1178 
Q 1538 981 1647 872 
Q 1756 763 1959 763 
Q 2306 763 2556 1031 
Q 2806 1300 2900 1778 
L 3238 3500 
L 4359 3500 
L 3681 0 
L 2553 0 
L 2656 513 
Q 2369 209 2053 59 
Q 1738 -91 1388 -91 
Q 909 -91 646 162 
Q 384 416 384 878 
Q 384 988 396 1109 
Q 409 1231 434 1363 
z
" transform="scale(0.015625)"/>
     </defs>
     <use xlink:href="#DejaVuSans-BoldOblique-44"/>
     <use xlink:href="#DejaVuSans-BoldOblique-69" x="83.007812"/>
     <use xlink:href="#DejaVuSans-BoldOblique-72" x="117.285156"/>
     <use xlink:href="#DejaVuSans-BoldOblique-65" x="166.601562"/>
     <use xlink:href="#DejaVuSans-BoldOblique-63" x="234.423828"/>
     <use xlink:href="#DejaVuSans-BoldOblique-74" x="293.701172"/>
     <use xlink:href="#DejaVuSans-BoldOblique-69" x="341.503906"/>
     <use xlink:href="#DejaVuSans-BoldOblique-6f" x="375.78125"/>
     <use xlink:href="#DejaVuSans-BoldOblique-6e" x="444.482422"/>
     <use xlink:href="#DejaVuSans-BoldOblique-5f" x="515.673828"/>
     <use xlink:href="#DejaVuSans-BoldOblique-75" x="565.673828"/>
     <use xlink:href="#DejaVuSans-BoldOblique-6e" x="636.865234"/>
     <use xlink:href="#DejaVuSans-BoldOblique-69" x="708.056641"/>
     <use xlink:href="#DejaVuSans-BoldOblique-64" x="742.333984"/>
     <use xlink:href="#DejaVuSans-BoldOblique-69" x="813.916016"/>
     <use xlink:href="#DejaVuSans-BoldOblique-72" x="848.193359"/>
     <use xlink:href="#DejaVuSans-BoldOblique-65" x="897.509766"/>
     <use xlink:href="#DejaVuSans-BoldOblique-63" x="965.332031"/>
     <use xlink:href="#DejaVuSans-BoldOblique-74" x="1024.609375"/>
     <use xlink:href="#DejaVuSans-BoldOblique-69" x="1072.412109"/>
     <use xlink:href="#DejaVuSans-BoldOblique-6f" x="1106.689453"/>
     <use xlink:href="#DejaVuSans-BoldOblique-6e" x="1175.390625"/>
     <use xlink:href="#DejaVuSans-BoldOblique-61" x="1246.582031"/>
     <use xlink:href="#DejaVuSans-BoldOblique-6c" x="1314.0625"/>
    </g>
   </g>
   <g id="text_25">
    <!-- State_statefull -->
    <g style="fill: #262626" transform="translate(443.366193 252.28346) rotate(-90) scale(0.07 -0.07)">
     <defs>
      <path id="DejaVuSans-BoldOblique-66" d="M 3456 4863 
L 3309 4128 
L 2694 4128 
Q 2459 4128 2351 4042 
Q 2244 3956 2203 3747 
L 2150 3500 
L 3097 3500 
L 2944 2700 
L 1997 2700 
L 1472 0 
L 347 0 
L 872 2700 
L 319 2700 
L 475 3500 
L 1025 3500 
L 1075 3744 
Q 1191 4325 1556 4594 
Q 1922 4863 2597 4863 
L 3456 4863 
z
" transform="scale(0.015625)"/>
     </defs>
     <use xlink:href="#DejaVuSans-BoldOblique-53"/>
     <use xlink:href="#DejaVuSans-BoldOblique-74" x="72.021484"/>
     <use xlink:href="#DejaVuSans-BoldOblique-61" x="119.824219"/>
     <use xlink:href="#DejaVuSans-BoldOblique-74" x="187.304688"/>
     <use xlink:href="#DejaVuSans-BoldOblique-65" x="235.107422"/>
     <use xlink:href="#DejaVuSans-BoldOblique-5f" x="302.929688"/>
     <use xlink:href="#DejaVuSans-BoldOblique-73" x="352.929688"/>
     <use xlink:href="#DejaVuSans-BoldOblique-74" x="412.451172"/>
     <use xlink:href="#DejaVuSans-BoldOblique-61" x="460.253906"/>
     <use xlink:href="#DejaVuSans-BoldOblique-74" x="527.734375"/>
     <use xlink:href="#DejaVuSans-BoldOblique-65" x="575.537109"/>
     <use xlink:href="#DejaVuSans-BoldOblique-66" x="643.359375"/>
     <use xlink:href="#DejaVuSans-BoldOblique-75" x="686.865234"/>
     <use xlink:href="#DejaVuSans-BoldOblique-6c" x="758.056641"/>
     <use xlink:href="#DejaVuSans-BoldOblique-6c" x="792.333984"/>
    </g>
   </g>
   <g id="text_26">
    <!-- Cnn_resnet50 -->
    <g style="fill: #262626" transform="translate(311.859873 65.220136) rotate(-90) scale(0.07 -0.07)">
     <defs>
      <path id="DejaVuSans-BoldOblique-35" d="M 1131 4666 
L 4122 4666 
L 3950 3781 
L 1919 3781 
L 1778 3059 
Q 1916 3097 2064 3117 
Q 2213 3138 2363 3138 
Q 3078 3138 3481 2811 
Q 3884 2484 3884 1906 
Q 3884 988 3262 448 
Q 2641 -91 1575 -91 
Q 1184 -91 815 -14 
Q 447 63 84 219 
L 269 1166 
Q 616 941 942 834 
Q 1269 728 1606 728 
Q 2100 728 2397 986 
Q 2694 1244 2694 1663 
Q 2694 1963 2469 2139 
Q 2244 2316 1856 2316 
Q 1594 2316 1289 2248 
Q 984 2181 622 2041 
L 1131 4666 
z
" transform="scale(0.015625)"/>
      <path id="DejaVuSans-BoldOblique-30" d="M 1913 728 
Q 2153 728 2339 872 
Q 2525 1016 2650 1294 
Q 2738 1491 2809 1742 
Q 2881 1994 2944 2338 
Q 2997 2616 3025 2850 
Q 3053 3084 3053 3250 
Q 3053 3600 2928 3764 
Q 2803 3928 2541 3928 
Q 2297 3928 2112 3789 
Q 1928 3650 1806 3366 
Q 1713 3163 1636 2903 
Q 1559 2644 1503 2338 
Q 1450 2056 1422 1815 
Q 1394 1575 1394 1409 
Q 1394 1063 1522 895 
Q 1650 728 1913 728 
z
M 4225 3072 
Q 4225 2450 4053 1862 
Q 3881 1275 3572 831 
Q 3256 375 2809 142 
Q 2363 -91 1813 -91 
Q 1047 -91 639 343 
Q 231 778 231 1594 
Q 231 2206 401 2795 
Q 572 3384 878 3822 
Q 1200 4281 1644 4515 
Q 2088 4750 2644 4750 
Q 3403 4750 3814 4314 
Q 4225 3878 4225 3072 
z
" transform="scale(0.015625)"/>
     </defs>
     <use xlink:href="#DejaVuSans-BoldOblique-43"/>
     <use xlink:href="#DejaVuSans-BoldOblique-6e" x="73.388672"/>
     <use xlink:href="#DejaVuSans-BoldOblique-6e" x="144.580078"/>
     <use xlink:href="#DejaVuSans-BoldOblique-5f" x="215.771484"/>
     <use xlink:href="#DejaVuSans-BoldOblique-72" x="265.771484"/>
     <use xlink:href="#DejaVuSans-BoldOblique-65" x="315.087891"/>
     <use xlink:href="#DejaVuSans-BoldOblique-73" x="382.910156"/>
     <use xlink:href="#DejaVuSans-BoldOblique-6e" x="442.431641"/>
     <use xlink:href="#DejaVuSans-BoldOblique-65" x="513.623047"/>
     <use xlink:href="#DejaVuSans-BoldOblique-74" x="581.445312"/>
     <use xlink:href="#DejaVuSans-BoldOblique-35" x="629.248047"/>
     <use xlink:href="#DejaVuSans-BoldOblique-30" x="698.828125"/>
    </g>
   </g>
   <g id="text_27">
    <!-- Layers_2 -->
    <g style="fill: #262626" transform="translate(129.322147 185.086048) rotate(-90) scale(0.07 -0.07)">
     <use xlink:href="#DejaVuSans-BoldOblique-4c"/>
     <use xlink:href="#DejaVuSans-BoldOblique-61" x="63.720703"/>
     <use xlink:href="#DejaVuSans-BoldOblique-79" x="128.076172"/>
     <use xlink:href="#DejaVuSans-BoldOblique-65" x="193.261719"/>
     <use xlink:href="#DejaVuSans-BoldOblique-72" x="261.083984"/>
     <use xlink:href="#DejaVuSans-BoldOblique-73" x="310.400391"/>
     <use xlink:href="#DejaVuSans-BoldOblique-5f" x="369.921875"/>
     <use xlink:href="#DejaVuSans-BoldOblique-32" x="419.921875"/>
    </g>
   </g>
   <g id="text_28">
    <!-- Rnn_gru -->
    <g style="fill: #262626" transform="translate(397.13287 114.341722) rotate(-90) scale(0.07 -0.07)">
     <defs>
      <path id="DejaVuSans-BoldOblique-67" d="M 2675 594 
Q 2406 288 2128 144 
Q 1850 0 1522 0 
Q 928 0 583 383 
Q 238 766 238 1428 
Q 238 1781 358 2136 
Q 478 2491 703 2803 
Q 978 3181 1334 3379 
Q 1691 3578 2100 3578 
Q 2469 3578 2720 3434 
Q 2972 3291 3144 2981 
L 3238 3500 
L 4366 3500 
L 3775 459 
Q 3594 -481 3000 -931 
Q 2406 -1381 1350 -1381 
Q 1025 -1381 723 -1331 
Q 422 -1281 128 -1178 
L 294 -306 
Q 559 -475 825 -558 
Q 1091 -641 1369 -641 
Q 1925 -641 2223 -403 
Q 2522 -166 2625 353 
L 2675 594 
z
M 2363 2772 
Q 1950 2772 1676 2400 
Q 1403 2028 1403 1466 
Q 1403 1147 1550 980 
Q 1697 813 1978 813 
Q 2388 813 2663 1183 
Q 2938 1553 2938 2106 
Q 2938 2431 2791 2601 
Q 2644 2772 2363 2772 
z
" transform="scale(0.015625)"/>
     </defs>
     <use xlink:href="#DejaVuSans-BoldOblique-52"/>
     <use xlink:href="#DejaVuSans-BoldOblique-6e" x="77.001953"/>
     <use xlink:href="#DejaVuSans-BoldOblique-6e" x="148.193359"/>
     <use xlink:href="#DejaVuSans-BoldOblique-5f" x="219.384766"/>
     <use xlink:href="#DejaVuSans-BoldOblique-67" x="269.384766"/>
     <use xlink:href="#DejaVuSans-BoldOblique-72" x="340.966797"/>
     <use xlink:href="#DejaVuSans-BoldOblique-75" x="390.283203"/>
    </g>
   </g>
   <g id="text_29">
    <!-- Units_0_700 -->
    <g style="fill: #262626" transform="translate(211.803202 136.215952) rotate(-90) scale(0.07 -0.07)">
     <defs>
      <path id="DejaVuSans-BoldOblique-55" d="M 1044 4666 
L 2247 4666 
L 1703 1872 
Q 1672 1722 1658 1606 
Q 1644 1491 1644 1403 
Q 1644 1097 1808 945 
Q 1972 794 2297 794 
Q 2734 794 2968 1039 
Q 3203 1284 3316 1869 
L 3859 4666 
L 5063 4666 
L 4519 1869 
Q 4316 838 3748 373 
Q 3181 -91 2125 -91 
Q 1297 -91 865 264 
Q 434 619 434 1294 
Q 434 1406 450 1545 
Q 466 1684 500 1869 
L 1044 4666 
z
" transform="scale(0.015625)"/>
      <path id="DejaVuSans-BoldOblique-37" d="M 922 4666 
L 4441 4666 
L 4300 3981 
L 1703 0 
L 500 0 
L 2969 3781 
L 756 3781 
L 922 4666 
z
" transform="scale(0.015625)"/>
     </defs>
     <use xlink:href="#DejaVuSans-BoldOblique-55"/>
     <use xlink:href="#DejaVuSans-BoldOblique-6e" x="81.201172"/>
     <use xlink:href="#DejaVuSans-BoldOblique-69" x="152.392578"/>
     <use xlink:href="#DejaVuSans-BoldOblique-74" x="186.669922"/>
     <use xlink:href="#DejaVuSans-BoldOblique-73" x="234.472656"/>
     <use xlink:href="#DejaVuSans-BoldOblique-5f" x="293.994141"/>
     <use xlink:href="#DejaVuSans-BoldOblique-30" x="343.994141"/>
     <use xlink:href="#DejaVuSans-BoldOblique-5f" x="413.574219"/>
     <use xlink:href="#DejaVuSans-BoldOblique-37" x="463.574219"/>
     <use xlink:href="#DejaVuSans-BoldOblique-30" x="533.154297"/>
     <use xlink:href="#DejaVuSans-BoldOblique-30" x="602.734375"/>
    </g>
   </g>
   <g id="text_30">
    <!-- Seq_3 -->
    <g style="fill: #262626" transform="translate(203.710686 139.940622) rotate(-90) scale(0.07 -0.07)">
     <use xlink:href="#DejaVuSans-BoldOblique-53"/>
     <use xlink:href="#DejaVuSans-BoldOblique-65" x="72.021484"/>
     <use xlink:href="#DejaVuSans-BoldOblique-71" x="139.84375"/>
     <use xlink:href="#DejaVuSans-BoldOblique-5f" x="211.425781"/>
     <use xlink:href="#DejaVuSans-BoldOblique-33" x="261.425781"/>
    </g>
   </g>
   <g id="text_31">
    <!-- Seq_9 -->
    <g style="fill: #262626" transform="translate(89.815854 139.959121) rotate(-90) scale(0.07 -0.07)">
     <defs>
      <path id="DejaVuSans-BoldOblique-39" d="M 263 103 
L 428 966 
Q 700 825 953 758 
Q 1206 691 1459 691 
Q 2041 691 2400 1003 
Q 2759 1316 2834 1881 
Q 2594 1722 2337 1645 
Q 2081 1569 1791 1569 
Q 1219 1569 853 1909 
Q 488 2250 488 2778 
Q 488 3641 1052 4192 
Q 1616 4744 2503 4744 
Q 3300 4744 3736 4292 
Q 4172 3841 4172 3016 
Q 4172 2381 3978 1801 
Q 3784 1222 3431 800 
Q 3056 353 2548 128 
Q 2041 -97 1403 -97 
Q 1106 -97 825 -47 
Q 544 3 263 103 
z
M 2169 2344 
Q 2525 2344 2753 2637 
Q 2981 2931 2981 3391 
Q 2981 3675 2845 3828 
Q 2709 3981 2456 3981 
Q 2103 3981 1870 3690 
Q 1638 3400 1638 2963 
Q 1638 2663 1775 2503 
Q 1913 2344 2169 2344 
z
" transform="scale(0.015625)"/>
     </defs>
     <use xlink:href="#DejaVuSans-BoldOblique-53"/>
     <use xlink:href="#DejaVuSans-BoldOblique-65" x="72.021484"/>
     <use xlink:href="#DejaVuSans-BoldOblique-71" x="139.84375"/>
     <use xlink:href="#DejaVuSans-BoldOblique-5f" x="211.425781"/>
     <use xlink:href="#DejaVuSans-BoldOblique-39" x="261.425781"/>
    </g>
   </g>
   <g id="text_32">
    <!-- Cnn_vgg16 -->
    <g style="fill: #262626" transform="translate(238.82312 277.408185) rotate(-90) scale(0.07 -0.07)">
     <defs>
      <path id="DejaVuSans-BoldOblique-36" d="M 2316 2303 
Q 1959 2303 1731 2009 
Q 1503 1716 1503 1253 
Q 1503 975 1643 820 
Q 1784 666 2034 666 
Q 2388 666 2617 955 
Q 2847 1244 2847 1684 
Q 2847 1984 2709 2143 
Q 2572 2303 2316 2303 
z
M 4225 4544 
L 4056 3681 
Q 3788 3819 3534 3887 
Q 3281 3956 3028 3956 
Q 2447 3956 2087 3643 
Q 1728 3331 1650 2766 
Q 1894 2925 2151 3001 
Q 2409 3078 2700 3078 
Q 3275 3078 3640 2737 
Q 4006 2397 4006 1869 
Q 4006 1006 3442 454 
Q 2878 -97 1991 -97 
Q 1194 -97 756 354 
Q 319 806 319 1631 
Q 319 2269 512 2848 
Q 706 3428 1056 3847 
Q 1431 4294 1942 4519 
Q 2453 4744 3091 4744 
Q 3384 4744 3662 4694 
Q 3941 4644 4225 4544 
z
" transform="scale(0.015625)"/>
     </defs>
     <use xlink:href="#DejaVuSans-BoldOblique-43"/>
     <use xlink:href="#DejaVuSans-BoldOblique-6e" x="73.388672"/>
     <use xlink:href="#DejaVuSans-BoldOblique-6e" x="144.580078"/>
     <use xlink:href="#DejaVuSans-BoldOblique-5f" x="215.771484"/>
     <use xlink:href="#DejaVuSans-BoldOblique-76" x="265.771484"/>
     <use xlink:href="#DejaVuSans-BoldOblique-67" x="330.957031"/>
     <use xlink:href="#DejaVuSans-BoldOblique-67" x="402.539062"/>
     <use xlink:href="#DejaVuSans-BoldOblique-31" x="474.121094"/>
     <use xlink:href="#DejaVuSans-BoldOblique-36" x="543.701172"/>
    </g>
   </g>
   <g id="text_33">
    <!-- Seq_6 -->
    <g style="fill: #262626" transform="translate(109.980644 157.885032) rotate(-90) scale(0.07 -0.07)">
     <use xlink:href="#DejaVuSans-BoldOblique-53"/>
     <use xlink:href="#DejaVuSans-BoldOblique-65" x="72.021484"/>
     <use xlink:href="#DejaVuSans-BoldOblique-71" x="139.84375"/>
     <use xlink:href="#DejaVuSans-BoldOblique-5f" x="211.425781"/>
     <use xlink:href="#DejaVuSans-BoldOblique-36" x="261.425781"/>
    </g>
   </g>
   <g id="text_34">
    <!-- Units_1_300 -->
    <g style="fill: #262626" transform="translate(63.401432 96.280691) rotate(-90) scale(0.07 -0.07)">
     <use xlink:href="#DejaVuSans-BoldOblique-55"/>
     <use xlink:href="#DejaVuSans-BoldOblique-6e" x="81.201172"/>
     <use xlink:href="#DejaVuSans-BoldOblique-69" x="152.392578"/>
     <use xlink:href="#DejaVuSans-BoldOblique-74" x="186.669922"/>
     <use xlink:href="#DejaVuSans-BoldOblique-73" x="234.472656"/>
     <use xlink:href="#DejaVuSans-BoldOblique-5f" x="293.994141"/>
     <use xlink:href="#DejaVuSans-BoldOblique-31" x="343.994141"/>
     <use xlink:href="#DejaVuSans-BoldOblique-5f" x="413.574219"/>
     <use xlink:href="#DejaVuSans-BoldOblique-33" x="463.574219"/>
     <use xlink:href="#DejaVuSans-BoldOblique-30" x="533.154297"/>
     <use xlink:href="#DejaVuSans-BoldOblique-30" x="602.734375"/>
    </g>
   </g>
   <g id="text_35">
    <!-- Units_0_128 -->
    <g style="fill: #262626" transform="translate(333.962901 174.388742) rotate(-90) scale(0.07 -0.07)">
     <defs>
      <path id="DejaVuSans-BoldOblique-38" d="M 2150 2088 
Q 1784 2088 1539 1839 
Q 1294 1591 1294 1228 
Q 1294 969 1453 817 
Q 1613 666 1888 666 
Q 2259 666 2503 911 
Q 2747 1156 2747 1522 
Q 2747 1781 2586 1934 
Q 2425 2088 2150 2088 
z
M 1381 2484 
Q 1044 2625 876 2850 
Q 709 3075 709 3391 
Q 709 4025 1229 4387 
Q 1750 4750 2669 4750 
Q 3406 4750 3812 4475 
Q 4219 4200 4219 3700 
Q 4219 3256 3936 2940 
Q 3653 2625 3128 2484 
Q 3509 2338 3690 2091 
Q 3872 1844 3872 1466 
Q 3872 747 3311 328 
Q 2750 -91 1772 -91 
Q 1000 -91 570 217 
Q 141 525 141 1075 
Q 141 1572 470 1945 
Q 800 2319 1381 2484 
z
M 2559 3994 
Q 2241 3994 2048 3808 
Q 1856 3622 1856 3316 
Q 1856 3103 1995 2972 
Q 2134 2841 2363 2841 
Q 2681 2841 2873 3027 
Q 3066 3213 3066 3519 
Q 3066 3734 2927 3864 
Q 2788 3994 2559 3994 
z
" transform="scale(0.015625)"/>
     </defs>
     <use xlink:href="#DejaVuSans-BoldOblique-55"/>
     <use xlink:href="#DejaVuSans-BoldOblique-6e" x="81.201172"/>
     <use xlink:href="#DejaVuSans-BoldOblique-69" x="152.392578"/>
     <use xlink:href="#DejaVuSans-BoldOblique-74" x="186.669922"/>
     <use xlink:href="#DejaVuSans-BoldOblique-73" x="234.472656"/>
     <use xlink:href="#DejaVuSans-BoldOblique-5f" x="293.994141"/>
     <use xlink:href="#DejaVuSans-BoldOblique-30" x="343.994141"/>
     <use xlink:href="#DejaVuSans-BoldOblique-5f" x="413.574219"/>
     <use xlink:href="#DejaVuSans-BoldOblique-31" x="463.574219"/>
     <use xlink:href="#DejaVuSans-BoldOblique-32" x="533.154297"/>
     <use xlink:href="#DejaVuSans-BoldOblique-38" x="602.734375"/>
    </g>
   </g>
   <g id="legend_1">
    <g id="patch_3">
     <path d="M 61.633516 339.674801 
L 79.633516 339.674801 
L 79.633516 333.374801 
L 61.633516 333.374801 
z
" style="fill: #333333; stroke: #333333; stroke-linejoin: miter"/>
    </g>
    <g id="text_36">
     <!-- Cnn -->
     <g style="fill: #262626" transform="translate(86.833516 339.674801) scale(0.09 -0.09)">
      <defs>
       <path id="DejaVuSans-Oblique-43" d="M 4447 4306 
L 4319 3641 
Q 4019 3944 3683 4091 
Q 3347 4238 2956 4238 
Q 2422 4238 2017 3981 
Q 1613 3725 1319 3200 
Q 1131 2863 1032 2486 
Q 934 2109 934 1728 
Q 934 1091 1264 756 
Q 1594 422 2222 422 
Q 2656 422 3056 561 
Q 3456 700 3834 978 
L 3688 231 
Q 3316 72 2936 -9 
Q 2556 -91 2175 -91 
Q 1278 -91 773 396 
Q 269 884 269 1753 
Q 269 2309 461 2846 
Q 653 3384 1013 3828 
Q 1394 4300 1883 4525 
Q 2372 4750 3022 4750 
Q 3422 4750 3780 4639 
Q 4138 4528 4447 4306 
z
" transform="scale(0.015625)"/>
      </defs>
      <use xlink:href="#DejaVuSans-Oblique-43"/>
      <use xlink:href="#DejaVuSans-Oblique-6e" x="69.824219"/>
      <use xlink:href="#DejaVuSans-Oblique-6e" x="133.203125"/>
     </g>
    </g>
    <g id="patch_4">
     <path d="M 122.525547 339.674801 
L 140.525547 339.674801 
L 140.525547 333.374801 
L 122.525547 333.374801 
z
" style="fill: #494949; stroke: #494949; stroke-linejoin: miter"/>
    </g>
    <g id="text_37">
     <!-- Direction -->
     <g style="fill: #262626" transform="translate(147.725547 339.674801) scale(0.09 -0.09)">
      <defs>
       <path id="DejaVuSans-Oblique-44" d="M 1081 4666 
L 2438 4666 
Q 3519 4666 4070 4208 
Q 4622 3750 4622 2847 
Q 4622 2250 4412 1698 
Q 4203 1147 3834 769 
Q 3463 381 2891 190 
Q 2319 0 1538 0 
L 172 0 
L 1081 4666 
z
M 1613 4147 
L 909 519 
L 1734 519 
Q 2794 519 3375 1128 
Q 3956 1738 3956 2847 
Q 3956 3519 3581 3833 
Q 3206 4147 2406 4147 
L 1613 4147 
z
" transform="scale(0.015625)"/>
       <path id="DejaVuSans-Oblique-74" d="M 2706 3500 
L 2619 3053 
L 1472 3053 
L 1100 1153 
Q 1081 1047 1072 975 
Q 1063 903 1063 863 
Q 1063 663 1183 572 
Q 1303 481 1569 481 
L 2150 481 
L 2053 0 
L 1503 0 
Q 991 0 739 200 
Q 488 400 488 806 
Q 488 878 497 964 
Q 506 1050 525 1153 
L 897 3053 
L 409 3053 
L 500 3500 
L 978 3500 
L 1172 4494 
L 1747 4494 
L 1556 3500 
L 2706 3500 
z
" transform="scale(0.015625)"/>
      </defs>
      <use xlink:href="#DejaVuSans-Oblique-44"/>
      <use xlink:href="#DejaVuSans-Oblique-69" x="77.001953"/>
      <use xlink:href="#DejaVuSans-Oblique-72" x="104.785156"/>
      <use xlink:href="#DejaVuSans-Oblique-65" x="145.898438"/>
      <use xlink:href="#DejaVuSans-Oblique-63" x="207.421875"/>
      <use xlink:href="#DejaVuSans-Oblique-74" x="262.402344"/>
      <use xlink:href="#DejaVuSans-Oblique-69" x="301.611328"/>
      <use xlink:href="#DejaVuSans-Oblique-6f" x="329.394531"/>
      <use xlink:href="#DejaVuSans-Oblique-6e" x="390.576172"/>
     </g>
    </g>
    <g id="patch_5">
     <path d="M 206.581328 339.674801 
L 224.581328 339.674801 
L 224.581328 333.374801 
L 206.581328 333.374801 
z
" style="fill: #5f5f5f; stroke: #5f5f5f; stroke-linejoin: miter"/>
    </g>
    <g id="text_38">
     <!-- Layers -->
     <g style="fill: #262626" transform="translate(231.781328 339.674801) scale(0.09 -0.09)">
      <defs>
       <path id="DejaVuSans-Oblique-4c" d="M 1075 4666 
L 1709 4666 
L 909 525 
L 3181 525 
L 3078 0 
L 172 0 
L 1075 4666 
z
" transform="scale(0.015625)"/>
       <path id="DejaVuSans-Oblique-73" d="M 3200 3397 
L 3091 2853 
Q 2863 2978 2609 3040 
Q 2356 3103 2088 3103 
Q 1634 3103 1373 2948 
Q 1113 2794 1113 2528 
Q 1113 2219 1719 2053 
Q 1766 2041 1788 2034 
L 1972 1978 
Q 2547 1819 2739 1644 
Q 2931 1469 2931 1166 
Q 2931 609 2489 259 
Q 2047 -91 1331 -91 
Q 1053 -91 747 -37 
Q 441 16 72 128 
L 184 722 
Q 500 559 806 475 
Q 1113 391 1394 391 
Q 1816 391 2080 572 
Q 2344 753 2344 1031 
Q 2344 1331 1650 1516 
L 1591 1531 
L 1394 1581 
Q 956 1697 753 1886 
Q 550 2075 550 2369 
Q 550 2928 970 3256 
Q 1391 3584 2113 3584 
Q 2397 3584 2667 3537 
Q 2938 3491 3200 3397 
z
" transform="scale(0.015625)"/>
      </defs>
      <use xlink:href="#DejaVuSans-Oblique-4c"/>
      <use xlink:href="#DejaVuSans-Oblique-61" x="55.712891"/>
      <use xlink:href="#DejaVuSans-Oblique-79" x="116.992188"/>
      <use xlink:href="#DejaVuSans-Oblique-65" x="176.171875"/>
      <use xlink:href="#DejaVuSans-Oblique-72" x="237.695312"/>
      <use xlink:href="#DejaVuSans-Oblique-73" x="278.808594"/>
     </g>
    </g>
    <g id="patch_6">
     <path d="M 279.564297 339.674801 
L 297.564297 339.674801 
L 297.564297 333.374801 
L 279.564297 333.374801 
z
" style="fill: #757575; stroke: #757575; stroke-linejoin: miter"/>
    </g>
    <g id="text_39">
     <!-- Rnn -->
     <g style="fill: #262626" transform="translate(304.764297 339.674801) scale(0.09 -0.09)">
      <defs>
       <path id="DejaVuSans-Oblique-52" d="M 1613 4147 
L 1294 2491 
L 2106 2491 
Q 2584 2491 2879 2755 
Q 3175 3019 3175 3444 
Q 3175 3784 2976 3965 
Q 2778 4147 2406 4147 
L 1613 4147 
z
M 2772 2241 
Q 2972 2194 3105 2009 
Q 3238 1825 3413 1275 
L 3809 0 
L 3144 0 
L 2778 1197 
Q 2638 1659 2453 1815 
Q 2269 1972 1888 1972 
L 1191 1972 
L 806 0 
L 172 0 
L 1081 4666 
L 2503 4666 
Q 3150 4666 3495 4373 
Q 3841 4081 3841 3531 
Q 3841 3044 3547 2687 
Q 3253 2331 2772 2241 
z
" transform="scale(0.015625)"/>
      </defs>
      <use xlink:href="#DejaVuSans-Oblique-52"/>
      <use xlink:href="#DejaVuSans-Oblique-6e" x="69.482422"/>
      <use xlink:href="#DejaVuSans-Oblique-6e" x="132.861328"/>
     </g>
    </g>
    <g id="patch_7">
     <path d="M 340.425391 339.674801 
L 358.425391 339.674801 
L 358.425391 333.374801 
L 340.425391 333.374801 
z
" style="fill: #8a8a8a; stroke: #8a8a8a; stroke-linejoin: miter"/>
    </g>
    <g id="text_40">
     <!-- Seq -->
     <g style="fill: #262626" transform="translate(365.625391 339.674801) scale(0.09 -0.09)">
      <defs>
       <path id="DejaVuSans-Oblique-53" d="M 3859 4513 
L 3738 3897 
Q 3422 4066 3111 4152 
Q 2800 4238 2509 4238 
Q 1944 4238 1609 3991 
Q 1275 3744 1275 3334 
Q 1275 3109 1398 2989 
Q 1522 2869 2034 2731 
L 2413 2638 
Q 3053 2472 3303 2217 
Q 3553 1963 3553 1503 
Q 3553 797 2998 353 
Q 2444 -91 1538 -91 
Q 1166 -91 791 -17 
Q 416 56 38 206 
L 166 856 
Q 513 641 861 531 
Q 1209 422 1556 422 
Q 2147 422 2503 684 
Q 2859 947 2859 1369 
Q 2859 1650 2717 1795 
Q 2575 1941 2106 2059 
L 1728 2156 
Q 1081 2325 845 2545 
Q 609 2766 609 3163 
Q 609 3859 1145 4304 
Q 1681 4750 2541 4750 
Q 2875 4750 3203 4690 
Q 3531 4631 3859 4513 
z
" transform="scale(0.015625)"/>
      </defs>
      <use xlink:href="#DejaVuSans-Oblique-53"/>
      <use xlink:href="#DejaVuSans-Oblique-65" x="63.476562"/>
      <use xlink:href="#DejaVuSans-Oblique-71" x="125"/>
     </g>
    </g>
    <g id="patch_8">
     <path d="M 400.590391 339.674801 
L 418.590391 339.674801 
L 418.590391 333.374801 
L 400.590391 333.374801 
z
" style="fill: #a0a0a0; stroke: #a0a0a0; stroke-linejoin: miter"/>
    </g>
    <g id="text_41">
     <!-- State -->
     <g style="fill: #262626" transform="translate(425.790391 339.674801) scale(0.09 -0.09)">
      <use xlink:href="#DejaVuSans-Oblique-53"/>
      <use xlink:href="#DejaVuSans-Oblique-74" x="63.476562"/>
      <use xlink:href="#DejaVuSans-Oblique-61" x="102.685547"/>
      <use xlink:href="#DejaVuSans-Oblique-74" x="163.964844"/>
      <use xlink:href="#DejaVuSans-Oblique-65" x="203.173828"/>
     </g>
    </g>
    <g id="patch_9">
     <path d="M 467.613672 339.674801 
L 485.613672 339.674801 
L 485.613672 333.374801 
L 467.613672 333.374801 
z
" style="fill: #b6b6b6; stroke: #b6b6b6; stroke-linejoin: miter"/>
    </g>
    <g id="text_42">
     <!-- Units 0 -->
     <g style="fill: #262626" transform="translate(492.813672 339.674801) scale(0.09 -0.09)">
      <defs>
       <path id="DejaVuSans-Oblique-55" d="M 991 4666 
L 1625 4666 
L 1075 1831 
Q 1041 1641 1027 1517 
Q 1013 1394 1013 1300 
Q 1013 869 1253 645 
Q 1494 422 1959 422 
Q 2563 422 2898 753 
Q 3234 1084 3378 1831 
L 3928 4666 
L 4563 4666 
L 4000 1753 
Q 3816 809 3300 359 
Q 2784 -91 1888 -91 
Q 1188 -91 780 261 
Q 372 613 372 1216 
Q 372 1325 387 1461 
Q 403 1597 434 1753 
L 991 4666 
z
" transform="scale(0.015625)"/>
      </defs>
      <use xlink:href="#DejaVuSans-Oblique-55"/>
      <use xlink:href="#DejaVuSans-Oblique-6e" x="73.193359"/>
      <use xlink:href="#DejaVuSans-Oblique-69" x="136.572266"/>
      <use xlink:href="#DejaVuSans-Oblique-74" x="164.355469"/>
      <use xlink:href="#DejaVuSans-Oblique-73" x="203.564453"/>
      <use xlink:href="#DejaVuSans-Oblique-20" x="255.664062"/>
      <use xlink:href="#DejaVuSans-Oblique-30" x="287.451172"/>
     </g>
    </g>
    <g id="patch_10">
     <path d="M 542.407891 339.674801 
L 560.407891 339.674801 
L 560.407891 333.374801 
L 542.407891 333.374801 
z
" style="fill: #cccccc; stroke: #cccccc; stroke-linejoin: miter"/>
    </g>
    <g id="text_43">
     <!-- Units 1 -->
     <g style="fill: #262626" transform="translate(567.607891 339.674801) scale(0.09 -0.09)">
      <defs>
       <path id="DejaVuSans-Oblique-31" d="M 416 531 
L 1447 531 
L 2144 4122 
L 978 3897 
L 1088 4441 
L 2247 4666 
L 2881 4666 
L 2075 531 
L 3103 531 
L 3003 0 
L 313 0 
L 416 531 
z
" transform="scale(0.015625)"/>
      </defs>
      <use xlink:href="#DejaVuSans-Oblique-55"/>
      <use xlink:href="#DejaVuSans-Oblique-6e" x="73.193359"/>
      <use xlink:href="#DejaVuSans-Oblique-69" x="136.572266"/>
      <use xlink:href="#DejaVuSans-Oblique-74" x="164.355469"/>
      <use xlink:href="#DejaVuSans-Oblique-73" x="203.564453"/>
      <use xlink:href="#DejaVuSans-Oblique-20" x="255.664062"/>
      <use xlink:href="#DejaVuSans-Oblique-31" x="287.451172"/>
     </g>
    </g>
   </g>
  </g>
 </g>
 <defs>
  <clipPath id="p30e522be6f">
   <rect x="49.852813" y="17.38439" width="561.13" height="276.885108"/>
  </clipPath>
 </defs>
</svg>
