<?xml version="1.0" encoding="utf-8" standalone="no"?>
<!DOCTYPE svg PUBLIC "-//W3C//DTD SVG 1.1//EN"
  "http://www.w3.org/Graphics/SVG/1.1/DTD/svg11.dtd">
<svg xmlns:xlink="http://www.w3.org/1999/xlink" width="682.300156pt" height="429.6546pt" viewBox="0 0 682.300156 429.6546" xmlns="http://www.w3.org/2000/svg" version="1.1">
 <metadata>
  <rdf:RDF xmlns:dc="http://purl.org/dc/elements/1.1/" xmlns:cc="http://creativecommons.org/ns#" xmlns:rdf="http://www.w3.org/1999/02/22-rdf-syntax-ns#">
   <cc:Work>
    <dc:type rdf:resource="http://purl.org/dc/dcmitype/StillImage"/>
    <dc:date>2025-06-07T15:40:34.701071</dc:date>
    <dc:format>image/svg+xml</dc:format>
    <dc:creator>
     <cc:Agent>
      <dc:title>Matplotlib v3.7.5, https://matplotlib.org/</dc:title>
     </cc:Agent>
    </dc:creator>
   </cc:Work>
  </rdf:RDF>
 </metadata>
 <defs>
  <style type="text/css">*{stroke-linejoin: round; stroke-linecap: butt}</style>
 </defs>
 <g id="figure_1">
  <g id="patch_1">
   <path d="M 0 429.6546 
L 682.300156 429.6546 
L 682.300156 0 
L 0 0 
z
" style="fill: #ffffff"/>
  </g>
  <g id="axes_1">
   <g id="patch_2">
    <path d="M 155.13625 372.204 
L 575.50125 372.204 
L 575.50125 7.2 
L 155.13625 7.2 
z
" style="fill: #ffffff"/>
   </g>
   <g id="matplotlib.axis_1">
    <g id="xtick_1">
     <g id="line2d_1">
      <path d="M 155.13625 372.204 
L 155.13625 7.2 
" clip-path="url(#p30af0c1a33)" style="fill: none; stroke-dasharray: 1.85,0.8; stroke-dashoffset: 0; stroke: #cccccc; stroke-width: 0.5"/>
     </g>
     <g id="text_1">
      <!-- 0.5 -->
      <g style="fill: #262626" transform="translate(147.979844 386.042594) scale(0.09 -0.09)">
       <defs>
        <path id="DejaVuSans-Oblique-30" d="M 2444 4750 
Q 3078 4750 3414 4328 
Q 3750 3906 3750 3116 
Q 3750 2516 3592 1923 
Q 3434 1331 3150 863 
Q 2859 394 2467 151 
Q 2075 -91 1600 -91 
Q 988 -91 653 334 
Q 319 759 319 1544 
Q 319 2138 480 2733 
Q 641 3328 928 3794 
Q 1216 4263 1602 4506 
Q 1988 4750 2444 4750 
z
M 2406 4250 
Q 2169 4250 1955 4123 
Q 1741 3997 1569 3750 
Q 1281 3338 1111 2720 
Q 941 2103 941 1453 
Q 941 938 1123 673 
Q 1306 409 1663 409 
Q 1913 409 2125 536 
Q 2338 663 2509 909 
Q 2794 1319 2961 1936 
Q 3128 2553 3128 3206 
Q 3128 3722 2945 3986 
Q 2763 4250 2406 4250 
z
" transform="scale(0.015625)"/>
        <path id="DejaVuSans-Oblique-2e" d="M 525 794 
L 1184 794 
L 1031 0 
L 372 0 
L 525 794 
z
" transform="scale(0.015625)"/>
        <path id="DejaVuSans-Oblique-35" d="M 3719 4666 
L 3622 4141 
L 1691 4141 
L 1466 2988 
Q 1609 3034 1757 3056 
Q 1906 3078 2059 3078 
Q 2706 3078 3081 2731 
Q 3456 2384 3456 1791 
Q 3456 1375 3264 994 
Q 3072 613 2719 325 
Q 2469 125 2108 17 
Q 1747 -91 1319 -91 
Q 1038 -91 744 -41 
Q 450 9 128 109 
L 244 697 
Q 531 556 820 486 
Q 1109 416 1403 416 
Q 2013 416 2411 781 
Q 2809 1147 2809 1697 
Q 2809 2103 2548 2328 
Q 2288 2553 1819 2553 
Q 1572 2553 1305 2495 
Q 1038 2438 756 2322 
L 1209 4666 
L 3719 4666 
z
" transform="scale(0.015625)"/>
       </defs>
       <use xlink:href="#DejaVuSans-Oblique-30"/>
       <use xlink:href="#DejaVuSans-Oblique-2e" x="63.623047"/>
       <use xlink:href="#DejaVuSans-Oblique-35" x="95.410156"/>
      </g>
     </g>
    </g>
    <g id="xtick_2">
     <g id="line2d_2">
      <path d="M 250.941034 372.204 
L 250.941034 7.2 
" clip-path="url(#p30af0c1a33)" style="fill: none; stroke-dasharray: 1.85,0.8; stroke-dashoffset: 0; stroke: #cccccc; stroke-width: 0.5"/>
     </g>
     <g id="text_2">
      <!-- 1.0 -->
      <g style="fill: #262626" transform="translate(243.784628 386.042594) scale(0.09 -0.09)">
       <defs>
        <path id="DejaVuSans-Oblique-31" d="M 416 531 
L 1447 531 
L 2144 4122 
L 978 3897 
L 1088 4441 
L 2247 4666 
L 2881 4666 
L 2075 531 
L 3103 531 
L 3003 0 
L 313 0 
L 416 531 
z
" transform="scale(0.015625)"/>
       </defs>
       <use xlink:href="#DejaVuSans-Oblique-31"/>
       <use xlink:href="#DejaVuSans-Oblique-2e" x="63.623047"/>
       <use xlink:href="#DejaVuSans-Oblique-30" x="95.410156"/>
      </g>
     </g>
    </g>
    <g id="xtick_3">
     <g id="line2d_3">
      <path d="M 346.745819 372.204 
L 346.745819 7.2 
" clip-path="url(#p30af0c1a33)" style="fill: none; stroke-dasharray: 1.85,0.8; stroke-dashoffset: 0; stroke: #cccccc; stroke-width: 0.5"/>
     </g>
     <g id="text_3">
      <!-- 2.0 -->
      <g style="fill: #262626" transform="translate(339.589412 386.042594) scale(0.09 -0.09)">
       <defs>
        <path id="DejaVuSans-Oblique-32" d="M 2950 2253 
L 934 525 
L 3163 525 
L 3053 0 
L 25 0 
L 128 531 
L 2234 2338 
Q 2656 2703 2832 2979 
Q 3009 3256 3009 3547 
Q 3009 3850 2796 4040 
Q 2584 4231 2241 4231 
Q 1944 4231 1581 4125 
Q 1219 4019 806 3816 
L 922 4441 
Q 1309 4594 1662 4672 
Q 2016 4750 2316 4750 
Q 2928 4750 3301 4425 
Q 3675 4100 3675 3572 
Q 3675 3216 3497 2892 
Q 3319 2569 2950 2253 
z
" transform="scale(0.015625)"/>
       </defs>
       <use xlink:href="#DejaVuSans-Oblique-32"/>
       <use xlink:href="#DejaVuSans-Oblique-2e" x="63.623047"/>
       <use xlink:href="#DejaVuSans-Oblique-30" x="95.410156"/>
      </g>
     </g>
    </g>
    <g id="xtick_4">
     <g id="line2d_4">
      <path d="M 442.550603 372.204 
L 442.550603 7.2 
" clip-path="url(#p30af0c1a33)" style="fill: none; stroke-dasharray: 1.85,0.8; stroke-dashoffset: 0; stroke: #cccccc; stroke-width: 0.5"/>
     </g>
     <g id="text_4">
      <!-- 4.0 -->
      <g style="fill: #262626" transform="translate(435.394197 386.042594) scale(0.09 -0.09)">
       <defs>
        <path id="DejaVuSans-Oblique-34" d="M 2753 4666 
L 3547 4666 
L 2950 1625 
L 3616 1625 
L 3513 1100 
L 2847 1100 
L 2638 0 
L 2009 0 
L 2222 1100 
L 116 1100 
L 238 1709 
L 2753 4666 
z
M 2809 4116 
L 728 1625 
L 2322 1625 
L 2809 4116 
z
" transform="scale(0.015625)"/>
       </defs>
       <use xlink:href="#DejaVuSans-Oblique-34"/>
       <use xlink:href="#DejaVuSans-Oblique-2e" x="63.623047"/>
       <use xlink:href="#DejaVuSans-Oblique-30" x="95.410156"/>
      </g>
     </g>
    </g>
    <g id="xtick_5">
     <g id="line2d_5">
      <path d="M 538.355387 372.204 
L 538.355387 7.2 
" clip-path="url(#p30af0c1a33)" style="fill: none; stroke-dasharray: 1.85,0.8; stroke-dashoffset: 0; stroke: #cccccc; stroke-width: 0.5"/>
     </g>
     <g id="text_5">
      <!-- 8.0 -->
      <g style="fill: #262626" transform="translate(531.198981 386.042594) scale(0.09 -0.09)">
       <defs>
        <path id="DejaVuSans-Oblique-38" d="M 2847 1416 
Q 2847 1769 2600 1992 
Q 2353 2216 1953 2216 
Q 1466 2216 1148 1923 
Q 831 1631 831 1184 
Q 831 828 1073 618 
Q 1316 409 1728 409 
Q 2219 409 2533 693 
Q 2847 978 2847 1416 
z
M 3169 3591 
Q 3169 3888 2950 4069 
Q 2731 4250 2369 4250 
Q 1941 4250 1664 4009 
Q 1388 3769 1388 3406 
Q 1388 3094 1605 2903 
Q 1822 2713 2181 2713 
Q 2613 2713 2891 2961 
Q 3169 3209 3169 3591 
z
M 2741 2456 
Q 3094 2322 3281 2050 
Q 3469 1778 3469 1394 
Q 3469 747 2969 328 
Q 2469 -91 1678 -91 
Q 1006 -91 609 239 
Q 213 569 213 1119 
Q 213 1619 553 2008 
Q 894 2397 1441 2503 
Q 1113 2616 941 2852 
Q 769 3088 769 3425 
Q 769 3991 1239 4370 
Q 1709 4750 2431 4750 
Q 3034 4750 3414 4442 
Q 3794 4134 3794 3659 
Q 3794 3247 3511 2923 
Q 3228 2600 2741 2456 
z
" transform="scale(0.015625)"/>
       </defs>
       <use xlink:href="#DejaVuSans-Oblique-38"/>
       <use xlink:href="#DejaVuSans-Oblique-2e" x="63.623047"/>
       <use xlink:href="#DejaVuSans-Oblique-30" x="95.410156"/>
      </g>
     </g>
    </g>
    <g id="xtick_6"/>
    <g id="xtick_7"/>
    <g id="xtick_8"/>
    <g id="xtick_9"/>
    <g id="xtick_10"/>
    <g id="xtick_11"/>
    <g id="xtick_12"/>
    <g id="xtick_13"/>
    <g id="xtick_14"/>
    <g id="text_6">
     <!-- Relative Importance -->
     <g style="fill: #262626" transform="translate(304.56125 401.032438) scale(0.12 -0.12)">
      <defs>
       <path id="DejaVuSans-Oblique-52" d="M 1613 4147 
L 1294 2491 
L 2106 2491 
Q 2584 2491 2879 2755 
Q 3175 3019 3175 3444 
Q 3175 3784 2976 3965 
Q 2778 4147 2406 4147 
L 1613 4147 
z
M 2772 2241 
Q 2972 2194 3105 2009 
Q 3238 1825 3413 1275 
L 3809 0 
L 3144 0 
L 2778 1197 
Q 2638 1659 2453 1815 
Q 2269 1972 1888 1972 
L 1191 1972 
L 806 0 
L 172 0 
L 1081 4666 
L 2503 4666 
Q 3150 4666 3495 4373 
Q 3841 4081 3841 3531 
Q 3841 3044 3547 2687 
Q 3253 2331 2772 2241 
z
" transform="scale(0.015625)"/>
       <path id="DejaVuSans-Oblique-65" d="M 3078 2063 
Q 3088 2113 3092 2166 
Q 3097 2219 3097 2272 
Q 3097 2653 2873 2875 
Q 2650 3097 2266 3097 
Q 1838 3097 1509 2826 
Q 1181 2556 1013 2059 
L 3078 2063 
z
M 3578 1613 
L 903 1613 
Q 884 1494 878 1425 
Q 872 1356 872 1306 
Q 872 872 1139 634 
Q 1406 397 1894 397 
Q 2269 397 2603 481 
Q 2938 566 3225 728 
L 3116 159 
Q 2806 34 2476 -28 
Q 2147 -91 1806 -91 
Q 1078 -91 686 257 
Q 294 606 294 1247 
Q 294 1794 489 2264 
Q 684 2734 1063 3103 
Q 1306 3334 1642 3459 
Q 1978 3584 2356 3584 
Q 2950 3584 3301 3228 
Q 3653 2872 3653 2272 
Q 3653 2128 3634 1964 
Q 3616 1800 3578 1613 
z
" transform="scale(0.015625)"/>
       <path id="DejaVuSans-Oblique-6c" d="M 1172 4863 
L 1747 4863 
L 800 0 
L 225 0 
L 1172 4863 
z
" transform="scale(0.015625)"/>
       <path id="DejaVuSans-Oblique-61" d="M 3438 1997 
L 3047 0 
L 2472 0 
L 2578 531 
Q 2325 219 2001 64 
Q 1678 -91 1281 -91 
Q 834 -91 548 182 
Q 263 456 263 884 
Q 263 1497 752 1853 
Q 1241 2209 2100 2209 
L 2900 2209 
L 2931 2363 
Q 2938 2388 2941 2417 
Q 2944 2447 2944 2509 
Q 2944 2788 2717 2942 
Q 2491 3097 2081 3097 
Q 1800 3097 1504 3025 
Q 1209 2953 897 2809 
L 997 3341 
Q 1322 3463 1633 3523 
Q 1944 3584 2234 3584 
Q 2853 3584 3176 3315 
Q 3500 3047 3500 2534 
Q 3500 2431 3484 2292 
Q 3469 2153 3438 1997 
z
M 2816 1759 
L 2241 1759 
Q 1534 1759 1195 1570 
Q 856 1381 856 984 
Q 856 709 1029 553 
Q 1203 397 1509 397 
Q 1978 397 2328 733 
Q 2678 1069 2791 1631 
L 2816 1759 
z
" transform="scale(0.015625)"/>
       <path id="DejaVuSans-Oblique-74" d="M 2706 3500 
L 2619 3053 
L 1472 3053 
L 1100 1153 
Q 1081 1047 1072 975 
Q 1063 903 1063 863 
Q 1063 663 1183 572 
Q 1303 481 1569 481 
L 2150 481 
L 2053 0 
L 1503 0 
Q 991 0 739 200 
Q 488 400 488 806 
Q 488 878 497 964 
Q 506 1050 525 1153 
L 897 3053 
L 409 3053 
L 500 3500 
L 978 3500 
L 1172 4494 
L 1747 4494 
L 1556 3500 
L 2706 3500 
z
" transform="scale(0.015625)"/>
       <path id="DejaVuSans-Oblique-69" d="M 1172 4863 
L 1747 4863 
L 1606 4134 
L 1031 4134 
L 1172 4863 
z
M 909 3500 
L 1484 3500 
L 800 0 
L 225 0 
L 909 3500 
z
" transform="scale(0.015625)"/>
       <path id="DejaVuSans-Oblique-76" d="M 459 3500 
L 1069 3500 
L 1581 525 
L 3256 3500 
L 3866 3500 
L 1875 0 
L 1100 0 
L 459 3500 
z
" transform="scale(0.015625)"/>
       <path id="DejaVuSans-Oblique-20" transform="scale(0.015625)"/>
       <path id="DejaVuSans-Oblique-49" d="M 1081 4666 
L 1716 4666 
L 806 0 
L 172 0 
L 1081 4666 
z
" transform="scale(0.015625)"/>
       <path id="DejaVuSans-Oblique-6d" d="M 5747 2113 
L 5338 0 
L 4763 0 
L 5166 2094 
Q 5191 2228 5203 2325 
Q 5216 2422 5216 2491 
Q 5216 2772 5059 2928 
Q 4903 3084 4622 3084 
Q 4203 3084 3875 2770 
Q 3547 2456 3450 1953 
L 3066 0 
L 2491 0 
L 2900 2094 
Q 2925 2209 2937 2307 
Q 2950 2406 2950 2484 
Q 2950 2769 2794 2926 
Q 2638 3084 2363 3084 
Q 1938 3084 1609 2770 
Q 1281 2456 1184 1953 
L 800 0 
L 225 0 
L 909 3500 
L 1484 3500 
L 1375 2956 
Q 1609 3263 1923 3423 
Q 2238 3584 2597 3584 
Q 2978 3584 3223 3384 
Q 3469 3184 3519 2828 
Q 3781 3197 4126 3390 
Q 4472 3584 4856 3584 
Q 5306 3584 5551 3325 
Q 5797 3066 5797 2591 
Q 5797 2488 5784 2364 
Q 5772 2241 5747 2113 
z
" transform="scale(0.015625)"/>
       <path id="DejaVuSans-Oblique-70" d="M 3175 2156 
Q 3175 2616 2975 2859 
Q 2775 3103 2400 3103 
Q 2144 3103 1911 2972 
Q 1678 2841 1497 2591 
Q 1319 2344 1212 1994 
Q 1106 1644 1106 1300 
Q 1106 863 1306 627 
Q 1506 391 1875 391 
Q 2147 391 2380 519 
Q 2613 647 2778 891 
Q 2956 1147 3065 1494 
Q 3175 1841 3175 2156 
z
M 1394 2969 
Q 1625 3272 1939 3428 
Q 2253 3584 2638 3584 
Q 3175 3584 3472 3232 
Q 3769 2881 3769 2247 
Q 3769 1728 3584 1258 
Q 3400 788 3053 416 
Q 2822 169 2531 39 
Q 2241 -91 1919 -91 
Q 1547 -91 1294 64 
Q 1041 219 916 525 
L 556 -1331 
L -19 -1331 
L 922 3500 
L 1497 3500 
L 1394 2969 
z
" transform="scale(0.015625)"/>
       <path id="DejaVuSans-Oblique-6f" d="M 1625 -91 
Q 1009 -91 651 289 
Q 294 669 294 1325 
Q 294 1706 417 2101 
Q 541 2497 738 2766 
Q 1047 3184 1428 3384 
Q 1809 3584 2291 3584 
Q 2888 3584 3255 3212 
Q 3622 2841 3622 2241 
Q 3622 1825 3500 1412 
Q 3378 1000 3181 728 
Q 2875 309 2494 109 
Q 2113 -91 1625 -91 
z
M 891 1344 
Q 891 869 1089 633 
Q 1288 397 1691 397 
Q 2269 397 2648 901 
Q 3028 1406 3028 2181 
Q 3028 2634 2825 2865 
Q 2622 3097 2228 3097 
Q 1903 3097 1650 2945 
Q 1397 2794 1197 2484 
Q 1050 2253 970 1956 
Q 891 1659 891 1344 
z
" transform="scale(0.015625)"/>
       <path id="DejaVuSans-Oblique-72" d="M 2853 2969 
Q 2766 3016 2653 3041 
Q 2541 3066 2413 3066 
Q 1953 3066 1609 2717 
Q 1266 2369 1153 1784 
L 800 0 
L 225 0 
L 909 3500 
L 1484 3500 
L 1375 2956 
Q 1603 3259 1920 3421 
Q 2238 3584 2597 3584 
Q 2691 3584 2781 3573 
Q 2872 3563 2963 3538 
L 2853 2969 
z
" transform="scale(0.015625)"/>
       <path id="DejaVuSans-Oblique-6e" d="M 3566 2113 
L 3156 0 
L 2578 0 
L 2988 2091 
Q 3016 2238 3031 2350 
Q 3047 2463 3047 2528 
Q 3047 2791 2881 2937 
Q 2716 3084 2419 3084 
Q 1956 3084 1622 2776 
Q 1288 2469 1184 1941 
L 800 0 
L 225 0 
L 903 3500 
L 1478 3500 
L 1363 2950 
Q 1603 3253 1940 3418 
Q 2278 3584 2650 3584 
Q 3113 3584 3367 3334 
Q 3622 3084 3622 2631 
Q 3622 2519 3608 2391 
Q 3594 2263 3566 2113 
z
" transform="scale(0.015625)"/>
       <path id="DejaVuSans-Oblique-63" d="M 3431 3366 
L 3316 2797 
Q 3109 2947 2876 3022 
Q 2644 3097 2394 3097 
Q 2119 3097 1870 3000 
Q 1622 2903 1453 2725 
Q 1184 2453 1037 2087 
Q 891 1722 891 1331 
Q 891 859 1127 628 
Q 1363 397 1844 397 
Q 2081 397 2348 469 
Q 2616 541 2906 684 
L 2797 116 
Q 2547 13 2283 -39 
Q 2019 -91 1741 -91 
Q 1044 -91 669 257 
Q 294 606 294 1253 
Q 294 1797 489 2255 
Q 684 2713 1069 3078 
Q 1331 3328 1684 3456 
Q 2038 3584 2456 3584 
Q 2700 3584 2940 3529 
Q 3181 3475 3431 3366 
z
" transform="scale(0.015625)"/>
      </defs>
      <use xlink:href="#DejaVuSans-Oblique-52"/>
      <use xlink:href="#DejaVuSans-Oblique-65" x="69.482422"/>
      <use xlink:href="#DejaVuSans-Oblique-6c" x="131.005859"/>
      <use xlink:href="#DejaVuSans-Oblique-61" x="158.789062"/>
      <use xlink:href="#DejaVuSans-Oblique-74" x="220.068359"/>
      <use xlink:href="#DejaVuSans-Oblique-69" x="259.277344"/>
      <use xlink:href="#DejaVuSans-Oblique-76" x="287.060547"/>
      <use xlink:href="#DejaVuSans-Oblique-65" x="346.240234"/>
      <use xlink:href="#DejaVuSans-Oblique-20" x="407.763672"/>
      <use xlink:href="#DejaVuSans-Oblique-49" x="439.550781"/>
      <use xlink:href="#DejaVuSans-Oblique-6d" x="469.042969"/>
      <use xlink:href="#DejaVuSans-Oblique-70" x="566.455078"/>
      <use xlink:href="#DejaVuSans-Oblique-6f" x="629.931641"/>
      <use xlink:href="#DejaVuSans-Oblique-72" x="691.113281"/>
      <use xlink:href="#DejaVuSans-Oblique-74" x="732.226562"/>
      <use xlink:href="#DejaVuSans-Oblique-61" x="771.435547"/>
      <use xlink:href="#DejaVuSans-Oblique-6e" x="832.714844"/>
      <use xlink:href="#DejaVuSans-Oblique-63" x="896.09375"/>
      <use xlink:href="#DejaVuSans-Oblique-65" x="951.074219"/>
     </g>
    </g>
   </g>
   <g id="matplotlib.axis_2">
    <g id="ytick_1">
     <g id="line2d_6">
      <path d="M 155.13625 350.124762 
L 575.50125 350.124762 
" clip-path="url(#p30af0c1a33)" style="fill: none; stroke-dasharray: 1.85,0.8; stroke-dashoffset: 0; stroke: #cccccc; stroke-width: 0.5"/>
     </g>
     <g id="text_7">
      <!-- rnn_gru -->
      <g style="fill: #262626" transform="translate(101.836875 354.516949) scale(0.12 -0.12)">
       <defs>
        <path id="DejaVuSans-Oblique-5f" d="M 3263 -1063 
L 3263 -1509 
L -63 -1509 
L -63 -1063 
L 3263 -1063 
z
" transform="scale(0.015625)"/>
        <path id="DejaVuSans-Oblique-67" d="M 3816 3500 
L 3219 434 
Q 3047 -456 2561 -893 
Q 2075 -1331 1253 -1331 
Q 950 -1331 690 -1286 
Q 431 -1241 206 -1147 
L 313 -588 
Q 525 -725 762 -790 
Q 1000 -856 1269 -856 
Q 1816 -856 2167 -557 
Q 2519 -259 2631 300 
L 2681 563 
Q 2441 288 2122 144 
Q 1803 0 1434 0 
Q 903 0 598 351 
Q 294 703 294 1319 
Q 294 1803 478 2267 
Q 663 2731 997 3091 
Q 1219 3328 1514 3456 
Q 1809 3584 2131 3584 
Q 2484 3584 2746 3420 
Q 3009 3256 3138 2956 
L 3238 3500 
L 3816 3500 
z
M 2950 2216 
Q 2950 2641 2750 2872 
Q 2550 3103 2181 3103 
Q 1953 3103 1747 3012 
Q 1541 2922 1394 2759 
Q 1156 2491 1023 2127 
Q 891 1763 891 1375 
Q 891 944 1092 712 
Q 1294 481 1672 481 
Q 2219 481 2584 976 
Q 2950 1472 2950 2216 
z
" transform="scale(0.015625)"/>
        <path id="DejaVuSans-Oblique-75" d="M 428 1388 
L 838 3500 
L 1416 3500 
L 1006 1409 
Q 975 1256 961 1147 
Q 947 1038 947 966 
Q 947 700 1109 554 
Q 1272 409 1569 409 
Q 2031 409 2368 721 
Q 2706 1034 2809 1563 
L 3194 3500 
L 3769 3500 
L 3091 0 
L 2516 0 
L 2631 550 
Q 2388 244 2052 76 
Q 1716 -91 1338 -91 
Q 878 -91 622 161 
Q 366 413 366 863 
Q 366 956 381 1097 
Q 397 1238 428 1388 
z
" transform="scale(0.015625)"/>
       </defs>
       <use xlink:href="#DejaVuSans-Oblique-72"/>
       <use xlink:href="#DejaVuSans-Oblique-6e" x="41.113281"/>
       <use xlink:href="#DejaVuSans-Oblique-6e" x="104.492188"/>
       <use xlink:href="#DejaVuSans-Oblique-5f" x="167.871094"/>
       <use xlink:href="#DejaVuSans-Oblique-67" x="217.871094"/>
       <use xlink:href="#DejaVuSans-Oblique-72" x="281.347656"/>
       <use xlink:href="#DejaVuSans-Oblique-75" x="322.460938"/>
      </g>
     </g>
    </g>
    <g id="ytick_2">
     <g id="line2d_7">
      <path d="M 155.13625 333.238155 
L 575.50125 333.238155 
" clip-path="url(#p30af0c1a33)" style="fill: none; stroke-dasharray: 1.85,0.8; stroke-dashoffset: 0; stroke: #cccccc; stroke-width: 0.5"/>
     </g>
     <g id="text_8">
      <!-- seq_9 -->
      <g style="fill: #262626" transform="translate(113.248125 337.69128) scale(0.12 -0.12)">
       <defs>
        <path id="DejaVuSans-Oblique-73" d="M 3200 3397 
L 3091 2853 
Q 2863 2978 2609 3040 
Q 2356 3103 2088 3103 
Q 1634 3103 1373 2948 
Q 1113 2794 1113 2528 
Q 1113 2219 1719 2053 
Q 1766 2041 1788 2034 
L 1972 1978 
Q 2547 1819 2739 1644 
Q 2931 1469 2931 1166 
Q 2931 609 2489 259 
Q 2047 -91 1331 -91 
Q 1053 -91 747 -37 
Q 441 16 72 128 
L 184 722 
Q 500 559 806 475 
Q 1113 391 1394 391 
Q 1816 391 2080 572 
Q 2344 753 2344 1031 
Q 2344 1331 1650 1516 
L 1591 1531 
L 1394 1581 
Q 956 1697 753 1886 
Q 550 2075 550 2369 
Q 550 2928 970 3256 
Q 1391 3584 2113 3584 
Q 2397 3584 2667 3537 
Q 2938 3491 3200 3397 
z
" transform="scale(0.015625)"/>
        <path id="DejaVuSans-Oblique-71" d="M 2669 525 
Q 2438 222 2123 65 
Q 1809 -91 1428 -91 
Q 897 -91 595 267 
Q 294 625 294 1253 
Q 294 1759 480 2231 
Q 666 2703 1013 3078 
Q 1238 3322 1530 3453 
Q 1822 3584 2144 3584 
Q 2531 3584 2781 3431 
Q 3031 3278 3144 2969 
L 3244 3494 
L 3822 3494 
L 2888 -1319 
L 2309 -1319 
L 2669 525 
z
M 891 1338 
Q 891 875 1084 633 
Q 1278 391 1644 391 
Q 2188 391 2572 911 
Q 2956 1431 2956 2175 
Q 2956 2625 2757 2864 
Q 2559 3103 2188 3103 
Q 1916 3103 1684 2976 
Q 1453 2850 1281 2606 
Q 1100 2350 995 2006 
Q 891 1663 891 1338 
z
" transform="scale(0.015625)"/>
        <path id="DejaVuSans-Oblique-39" d="M 281 103 
L 397 678 
Q 578 559 809 496 
Q 1041 434 1306 434 
Q 1953 434 2348 843 
Q 2744 1253 2938 2119 
Q 2706 1853 2401 1714 
Q 2097 1575 1747 1575 
Q 1178 1575 842 1904 
Q 506 2234 506 2791 
Q 506 3247 672 3639 
Q 838 4031 1159 4325 
Q 1378 4531 1665 4640 
Q 1953 4750 2278 4750 
Q 2925 4750 3300 4339 
Q 3675 3928 3675 3219 
Q 3675 2559 3501 1943 
Q 3328 1328 3022 878 
Q 2697 403 2240 156 
Q 1784 -91 1228 -91 
Q 988 -91 748 -42 
Q 509 6 281 103 
z
M 1131 2938 
Q 1131 2541 1337 2308 
Q 1544 2075 1894 2075 
Q 2378 2075 2706 2447 
Q 3034 2819 3034 3372 
Q 3034 3784 2831 4017 
Q 2628 4250 2272 4250 
Q 1788 4250 1459 3870 
Q 1131 3491 1131 2938 
z
" transform="scale(0.015625)"/>
       </defs>
       <use xlink:href="#DejaVuSans-Oblique-73"/>
       <use xlink:href="#DejaVuSans-Oblique-65" x="52.099609"/>
       <use xlink:href="#DejaVuSans-Oblique-71" x="113.623047"/>
       <use xlink:href="#DejaVuSans-Oblique-5f" x="177.099609"/>
       <use xlink:href="#DejaVuSans-Oblique-39" x="227.099609"/>
      </g>
     </g>
    </g>
    <g id="ytick_3">
     <g id="line2d_8">
      <path d="M 155.13625 316.351549 
L 575.50125 316.351549 
" clip-path="url(#p30af0c1a33)" style="fill: none; stroke-dasharray: 1.85,0.8; stroke-dashoffset: 0; stroke: #cccccc; stroke-width: 0.5"/>
     </g>
     <g id="text_9">
      <!-- direction_bidirectional -->
      <g style="fill: #262626" transform="translate(14.791875 320.910611) scale(0.12 -0.12)">
       <defs>
        <path id="DejaVuSans-Oblique-64" d="M 2675 525 
Q 2444 222 2128 65 
Q 1813 -91 1428 -91 
Q 903 -91 598 267 
Q 294 625 294 1247 
Q 294 1766 478 2236 
Q 663 2706 1013 3078 
Q 1244 3325 1534 3454 
Q 1825 3584 2144 3584 
Q 2481 3584 2739 3421 
Q 2997 3259 3138 2956 
L 3513 4863 
L 4091 4863 
L 3144 0 
L 2566 0 
L 2675 525 
z
M 891 1350 
Q 891 897 1095 644 
Q 1300 391 1663 391 
Q 1931 391 2161 520 
Q 2391 650 2566 903 
Q 2750 1166 2856 1509 
Q 2963 1853 2963 2188 
Q 2963 2622 2758 2865 
Q 2553 3109 2194 3109 
Q 1922 3109 1687 2981 
Q 1453 2853 1288 2613 
Q 1106 2353 998 2009 
Q 891 1666 891 1350 
z
" transform="scale(0.015625)"/>
        <path id="DejaVuSans-Oblique-62" d="M 3169 2138 
Q 3169 2591 2961 2847 
Q 2753 3103 2388 3103 
Q 2122 3103 1889 2973 
Q 1656 2844 1484 2597 
Q 1303 2338 1198 1995 
Q 1094 1653 1094 1313 
Q 1094 881 1298 636 
Q 1503 391 1863 391 
Q 2134 391 2365 517 
Q 2597 644 2772 891 
Q 2950 1147 3059 1487 
Q 3169 1828 3169 2138 
z
M 1381 2969 
Q 1594 3256 1914 3420 
Q 2234 3584 2584 3584 
Q 3122 3584 3439 3221 
Q 3756 2859 3756 2241 
Q 3756 1734 3570 1259 
Q 3384 784 3041 416 
Q 2816 172 2522 40 
Q 2228 -91 1906 -91 
Q 1566 -91 1316 65 
Q 1066 222 909 531 
L 806 0 
L 231 0 
L 1178 4863 
L 1753 4863 
L 1381 2969 
z
" transform="scale(0.015625)"/>
       </defs>
       <use xlink:href="#DejaVuSans-Oblique-64"/>
       <use xlink:href="#DejaVuSans-Oblique-69" x="63.476562"/>
       <use xlink:href="#DejaVuSans-Oblique-72" x="91.259766"/>
       <use xlink:href="#DejaVuSans-Oblique-65" x="132.373047"/>
       <use xlink:href="#DejaVuSans-Oblique-63" x="193.896484"/>
       <use xlink:href="#DejaVuSans-Oblique-74" x="248.876953"/>
       <use xlink:href="#DejaVuSans-Oblique-69" x="288.085938"/>
       <use xlink:href="#DejaVuSans-Oblique-6f" x="315.869141"/>
       <use xlink:href="#DejaVuSans-Oblique-6e" x="377.050781"/>
       <use xlink:href="#DejaVuSans-Oblique-5f" x="440.429688"/>
       <use xlink:href="#DejaVuSans-Oblique-62" x="490.429688"/>
       <use xlink:href="#DejaVuSans-Oblique-69" x="553.90625"/>
       <use xlink:href="#DejaVuSans-Oblique-64" x="581.689453"/>
       <use xlink:href="#DejaVuSans-Oblique-69" x="645.166016"/>
       <use xlink:href="#DejaVuSans-Oblique-72" x="672.949219"/>
       <use xlink:href="#DejaVuSans-Oblique-65" x="714.0625"/>
       <use xlink:href="#DejaVuSans-Oblique-63" x="775.585938"/>
       <use xlink:href="#DejaVuSans-Oblique-74" x="830.566406"/>
       <use xlink:href="#DejaVuSans-Oblique-69" x="869.775391"/>
       <use xlink:href="#DejaVuSans-Oblique-6f" x="897.558594"/>
       <use xlink:href="#DejaVuSans-Oblique-6e" x="958.740234"/>
       <use xlink:href="#DejaVuSans-Oblique-61" x="1022.119141"/>
       <use xlink:href="#DejaVuSans-Oblique-6c" x="1083.398438"/>
      </g>
     </g>
    </g>
    <g id="ytick_4">
     <g id="line2d_9">
      <path d="M 155.13625 299.464942 
L 575.50125 299.464942 
" clip-path="url(#p30af0c1a33)" style="fill: none; stroke-dasharray: 1.85,0.8; stroke-dashoffset: 0; stroke: #cccccc; stroke-width: 0.5"/>
     </g>
     <g id="text_10">
      <!-- units_0_32 -->
      <g style="fill: #262626" transform="translate(83.731875 304.024005) scale(0.12 -0.12)">
       <defs>
        <path id="DejaVuSans-Oblique-33" d="M 1013 4550 
Q 1356 4650 1679 4700 
Q 2003 4750 2316 4750 
Q 2934 4750 3296 4475 
Q 3659 4200 3659 3738 
Q 3659 3284 3373 2959 
Q 3088 2634 2584 2516 
Q 2978 2403 3162 2165 
Q 3347 1928 3347 1538 
Q 3347 1163 3167 834 
Q 2988 506 2650 269 
Q 2394 88 2037 -1 
Q 1681 -91 1216 -91 
Q 922 -91 622 -33 
Q 322 25 13 141 
L 128 738 
Q 422 575 720 495 
Q 1019 416 1331 416 
Q 1947 416 2330 733 
Q 2713 1050 2713 1556 
Q 2713 1881 2469 2057 
Q 2225 2234 1772 2234 
L 1228 2234 
L 1325 2747 
L 1900 2747 
Q 2419 2747 2717 2984 
Q 3016 3222 3016 3628 
Q 3016 3922 2797 4083 
Q 2578 4244 2181 4244 
Q 1881 4244 1567 4180 
Q 1253 4116 916 3988 
L 1013 4550 
z
" transform="scale(0.015625)"/>
       </defs>
       <use xlink:href="#DejaVuSans-Oblique-75"/>
       <use xlink:href="#DejaVuSans-Oblique-6e" x="63.378906"/>
       <use xlink:href="#DejaVuSans-Oblique-69" x="126.757812"/>
       <use xlink:href="#DejaVuSans-Oblique-74" x="154.541016"/>
       <use xlink:href="#DejaVuSans-Oblique-73" x="193.75"/>
       <use xlink:href="#DejaVuSans-Oblique-5f" x="245.849609"/>
       <use xlink:href="#DejaVuSans-Oblique-30" x="295.849609"/>
       <use xlink:href="#DejaVuSans-Oblique-5f" x="359.472656"/>
       <use xlink:href="#DejaVuSans-Oblique-33" x="409.472656"/>
       <use xlink:href="#DejaVuSans-Oblique-32" x="473.095703"/>
      </g>
     </g>
    </g>
    <g id="ytick_5">
     <g id="line2d_10">
      <path d="M 155.13625 282.578336 
L 575.50125 282.578336 
" clip-path="url(#p30af0c1a33)" style="fill: none; stroke-dasharray: 1.85,0.8; stroke-dashoffset: 0; stroke: #cccccc; stroke-width: 0.5"/>
     </g>
     <g id="text_11">
      <!-- cnn_vgg16 -->
      <g style="fill: #262626" transform="translate(82.719375 287.031461) scale(0.12 -0.12)">
       <defs>
        <path id="DejaVuSans-Oblique-36" d="M 2938 1728 
Q 2938 2125 2734 2354 
Q 2531 2584 2181 2584 
Q 1697 2584 1367 2211 
Q 1038 1838 1038 1288 
Q 1038 875 1239 642 
Q 1441 409 1797 409 
Q 2284 409 2611 792 
Q 2938 1175 2938 1728 
z
M 3788 4556 
L 3681 3981 
Q 3500 4100 3265 4162 
Q 3031 4225 2766 4225 
Q 2119 4225 1726 3819 
Q 1334 3413 1141 2547 
Q 1369 2813 1670 2948 
Q 1972 3084 2322 3084 
Q 2894 3084 3233 2754 
Q 3572 2425 3572 1869 
Q 3572 1413 3405 1020 
Q 3238 628 2919 331 
Q 2700 128 2409 18 
Q 2119 -91 1791 -91 
Q 1147 -91 775 318 
Q 403 728 403 1441 
Q 403 2103 573 2717 
Q 744 3331 1050 3781 
Q 1372 4256 1830 4503 
Q 2288 4750 2841 4750 
Q 3084 4750 3321 4701 
Q 3559 4653 3788 4556 
z
" transform="scale(0.015625)"/>
       </defs>
       <use xlink:href="#DejaVuSans-Oblique-63"/>
       <use xlink:href="#DejaVuSans-Oblique-6e" x="54.980469"/>
       <use xlink:href="#DejaVuSans-Oblique-6e" x="118.359375"/>
       <use xlink:href="#DejaVuSans-Oblique-5f" x="181.738281"/>
       <use xlink:href="#DejaVuSans-Oblique-76" x="231.738281"/>
       <use xlink:href="#DejaVuSans-Oblique-67" x="290.917969"/>
       <use xlink:href="#DejaVuSans-Oblique-67" x="354.394531"/>
       <use xlink:href="#DejaVuSans-Oblique-31" x="417.871094"/>
       <use xlink:href="#DejaVuSans-Oblique-36" x="481.494141"/>
      </g>
     </g>
    </g>
    <g id="ytick_6">
     <g id="line2d_11">
      <path d="M 155.13625 265.691729 
L 575.50125 265.691729 
" clip-path="url(#p30af0c1a33)" style="fill: none; stroke-dasharray: 1.85,0.8; stroke-dashoffset: 0; stroke: #cccccc; stroke-width: 0.5"/>
     </g>
     <g id="text_12">
      <!-- seq_6 -->
      <g style="fill: #262626" transform="translate(113.248125 270.144854) scale(0.12 -0.12)">
       <use xlink:href="#DejaVuSans-Oblique-73"/>
       <use xlink:href="#DejaVuSans-Oblique-65" x="52.099609"/>
       <use xlink:href="#DejaVuSans-Oblique-71" x="113.623047"/>
       <use xlink:href="#DejaVuSans-Oblique-5f" x="177.099609"/>
       <use xlink:href="#DejaVuSans-Oblique-36" x="227.099609"/>
      </g>
     </g>
    </g>
    <g id="ytick_7">
     <g id="line2d_12">
      <path d="M 155.13625 248.805123 
L 575.50125 248.805123 
" clip-path="url(#p30af0c1a33)" style="fill: none; stroke-dasharray: 1.85,0.8; stroke-dashoffset: 0; stroke: #cccccc; stroke-width: 0.5"/>
     </g>
     <g id="text_13">
      <!-- state_statefull -->
      <g style="fill: #262626" transform="translate(62.844375 253.364185) scale(0.12 -0.12)">
       <defs>
        <path id="DejaVuSans-Oblique-66" d="M 3059 4863 
L 2969 4384 
L 2419 4384 
Q 2106 4384 1964 4261 
Q 1822 4138 1753 3809 
L 1691 3500 
L 2638 3500 
L 2553 3053 
L 1606 3053 
L 1013 0 
L 434 0 
L 1031 3053 
L 481 3053 
L 563 3500 
L 1113 3500 
L 1159 3744 
Q 1278 4363 1576 4613 
Q 1875 4863 2516 4863 
L 3059 4863 
z
" transform="scale(0.015625)"/>
       </defs>
       <use xlink:href="#DejaVuSans-Oblique-73"/>
       <use xlink:href="#DejaVuSans-Oblique-74" x="52.099609"/>
       <use xlink:href="#DejaVuSans-Oblique-61" x="91.308594"/>
       <use xlink:href="#DejaVuSans-Oblique-74" x="152.587891"/>
       <use xlink:href="#DejaVuSans-Oblique-65" x="191.796875"/>
       <use xlink:href="#DejaVuSans-Oblique-5f" x="253.320312"/>
       <use xlink:href="#DejaVuSans-Oblique-73" x="303.320312"/>
       <use xlink:href="#DejaVuSans-Oblique-74" x="355.419922"/>
       <use xlink:href="#DejaVuSans-Oblique-61" x="394.628906"/>
       <use xlink:href="#DejaVuSans-Oblique-74" x="455.908203"/>
       <use xlink:href="#DejaVuSans-Oblique-65" x="495.117188"/>
       <use xlink:href="#DejaVuSans-Oblique-66" x="556.640625"/>
       <use xlink:href="#DejaVuSans-Oblique-75" x="591.845703"/>
       <use xlink:href="#DejaVuSans-Oblique-6c" x="655.224609"/>
       <use xlink:href="#DejaVuSans-Oblique-6c" x="683.007812"/>
      </g>
     </g>
    </g>
    <g id="ytick_8">
     <g id="line2d_13">
      <path d="M 155.13625 231.918516 
L 575.50125 231.918516 
" clip-path="url(#p30af0c1a33)" style="fill: none; stroke-dasharray: 1.85,0.8; stroke-dashoffset: 0; stroke: #cccccc; stroke-width: 0.5"/>
     </g>
     <g id="text_14">
      <!-- cnn_inceptionV3 -->
      <g style="fill: #262626" transform="translate(48.96 236.477579) scale(0.12 -0.12)">
       <defs>
        <path id="DejaVuSans-Oblique-56" d="M 1319 0 
L 500 4666 
L 1119 4666 
L 1797 653 
L 4063 4666 
L 4750 4666 
L 2053 0 
L 1319 0 
z
" transform="scale(0.015625)"/>
       </defs>
       <use xlink:href="#DejaVuSans-Oblique-63"/>
       <use xlink:href="#DejaVuSans-Oblique-6e" x="54.980469"/>
       <use xlink:href="#DejaVuSans-Oblique-6e" x="118.359375"/>
       <use xlink:href="#DejaVuSans-Oblique-5f" x="181.738281"/>
       <use xlink:href="#DejaVuSans-Oblique-69" x="231.738281"/>
       <use xlink:href="#DejaVuSans-Oblique-6e" x="259.521484"/>
       <use xlink:href="#DejaVuSans-Oblique-63" x="322.900391"/>
       <use xlink:href="#DejaVuSans-Oblique-65" x="377.880859"/>
       <use xlink:href="#DejaVuSans-Oblique-70" x="439.404297"/>
       <use xlink:href="#DejaVuSans-Oblique-74" x="502.880859"/>
       <use xlink:href="#DejaVuSans-Oblique-69" x="542.089844"/>
       <use xlink:href="#DejaVuSans-Oblique-6f" x="569.873047"/>
       <use xlink:href="#DejaVuSans-Oblique-6e" x="631.054688"/>
       <use xlink:href="#DejaVuSans-Oblique-56" x="694.433594"/>
       <use xlink:href="#DejaVuSans-Oblique-33" x="762.841797"/>
      </g>
     </g>
    </g>
    <g id="ytick_9">
     <g id="line2d_14">
      <path d="M 155.13625 215.03191 
L 575.50125 215.03191 
" clip-path="url(#p30af0c1a33)" style="fill: none; stroke-dasharray: 1.85,0.8; stroke-dashoffset: 0; stroke: #cccccc; stroke-width: 0.5"/>
     </g>
     <g id="text_15">
      <!-- seq_12 -->
      <g style="fill: #262626" transform="translate(105.613125 219.485035) scale(0.12 -0.12)">
       <use xlink:href="#DejaVuSans-Oblique-73"/>
       <use xlink:href="#DejaVuSans-Oblique-65" x="52.099609"/>
       <use xlink:href="#DejaVuSans-Oblique-71" x="113.623047"/>
       <use xlink:href="#DejaVuSans-Oblique-5f" x="177.099609"/>
       <use xlink:href="#DejaVuSans-Oblique-31" x="227.099609"/>
       <use xlink:href="#DejaVuSans-Oblique-32" x="290.722656"/>
      </g>
     </g>
    </g>
    <g id="ytick_10">
     <g id="line2d_15">
      <path d="M 155.13625 198.145303 
L 575.50125 198.145303 
" clip-path="url(#p30af0c1a33)" style="fill: none; stroke-dasharray: 1.85,0.8; stroke-dashoffset: 0; stroke: #cccccc; stroke-width: 0.5"/>
     </g>
     <g id="text_16">
      <!-- state_stateless -->
      <g style="fill: #262626" transform="translate(58.12125 202.704366) scale(0.12 -0.12)">
       <use xlink:href="#DejaVuSans-Oblique-73"/>
       <use xlink:href="#DejaVuSans-Oblique-74" x="52.099609"/>
       <use xlink:href="#DejaVuSans-Oblique-61" x="91.308594"/>
       <use xlink:href="#DejaVuSans-Oblique-74" x="152.587891"/>
       <use xlink:href="#DejaVuSans-Oblique-65" x="191.796875"/>
       <use xlink:href="#DejaVuSans-Oblique-5f" x="253.320312"/>
       <use xlink:href="#DejaVuSans-Oblique-73" x="303.320312"/>
       <use xlink:href="#DejaVuSans-Oblique-74" x="355.419922"/>
       <use xlink:href="#DejaVuSans-Oblique-61" x="394.628906"/>
       <use xlink:href="#DejaVuSans-Oblique-74" x="455.908203"/>
       <use xlink:href="#DejaVuSans-Oblique-65" x="495.117188"/>
       <use xlink:href="#DejaVuSans-Oblique-6c" x="556.640625"/>
       <use xlink:href="#DejaVuSans-Oblique-65" x="584.423828"/>
       <use xlink:href="#DejaVuSans-Oblique-73" x="645.947266"/>
       <use xlink:href="#DejaVuSans-Oblique-73" x="698.046875"/>
      </g>
     </g>
    </g>
    <g id="ytick_11">
     <g id="line2d_16">
      <path d="M 155.13625 181.258697 
L 575.50125 181.258697 
" clip-path="url(#p30af0c1a33)" style="fill: none; stroke-dasharray: 1.85,0.8; stroke-dashoffset: 0; stroke: #cccccc; stroke-width: 0.5"/>
     </g>
     <g id="text_17">
      <!-- direction_unidirectional -->
      <g style="fill: #262626" transform="translate(7.2 185.817759) scale(0.12 -0.12)">
       <use xlink:href="#DejaVuSans-Oblique-64"/>
       <use xlink:href="#DejaVuSans-Oblique-69" x="63.476562"/>
       <use xlink:href="#DejaVuSans-Oblique-72" x="91.259766"/>
       <use xlink:href="#DejaVuSans-Oblique-65" x="132.373047"/>
       <use xlink:href="#DejaVuSans-Oblique-63" x="193.896484"/>
       <use xlink:href="#DejaVuSans-Oblique-74" x="248.876953"/>
       <use xlink:href="#DejaVuSans-Oblique-69" x="288.085938"/>
       <use xlink:href="#DejaVuSans-Oblique-6f" x="315.869141"/>
       <use xlink:href="#DejaVuSans-Oblique-6e" x="377.050781"/>
       <use xlink:href="#DejaVuSans-Oblique-5f" x="440.429688"/>
       <use xlink:href="#DejaVuSans-Oblique-75" x="490.429688"/>
       <use xlink:href="#DejaVuSans-Oblique-6e" x="553.808594"/>
       <use xlink:href="#DejaVuSans-Oblique-69" x="617.1875"/>
       <use xlink:href="#DejaVuSans-Oblique-64" x="644.970703"/>
       <use xlink:href="#DejaVuSans-Oblique-69" x="708.447266"/>
       <use xlink:href="#DejaVuSans-Oblique-72" x="736.230469"/>
       <use xlink:href="#DejaVuSans-Oblique-65" x="777.34375"/>
       <use xlink:href="#DejaVuSans-Oblique-63" x="838.867188"/>
       <use xlink:href="#DejaVuSans-Oblique-74" x="893.847656"/>
       <use xlink:href="#DejaVuSans-Oblique-69" x="933.056641"/>
       <use xlink:href="#DejaVuSans-Oblique-6f" x="960.839844"/>
       <use xlink:href="#DejaVuSans-Oblique-6e" x="1022.021484"/>
       <use xlink:href="#DejaVuSans-Oblique-61" x="1085.400391"/>
       <use xlink:href="#DejaVuSans-Oblique-6c" x="1146.679688"/>
      </g>
     </g>
    </g>
    <g id="ytick_12">
     <g id="line2d_17">
      <path d="M 155.13625 164.37209 
L 575.50125 164.37209 
" clip-path="url(#p30af0c1a33)" style="fill: none; stroke-dasharray: 1.85,0.8; stroke-dashoffset: 0; stroke: #cccccc; stroke-width: 0.5"/>
     </g>
     <g id="text_18">
      <!-- cnn_resnet50 -->
      <g style="fill: #262626" transform="translate(66.796875 168.825215) scale(0.12 -0.12)">
       <use xlink:href="#DejaVuSans-Oblique-63"/>
       <use xlink:href="#DejaVuSans-Oblique-6e" x="54.980469"/>
       <use xlink:href="#DejaVuSans-Oblique-6e" x="118.359375"/>
       <use xlink:href="#DejaVuSans-Oblique-5f" x="181.738281"/>
       <use xlink:href="#DejaVuSans-Oblique-72" x="231.738281"/>
       <use xlink:href="#DejaVuSans-Oblique-65" x="272.851562"/>
       <use xlink:href="#DejaVuSans-Oblique-73" x="334.375"/>
       <use xlink:href="#DejaVuSans-Oblique-6e" x="386.474609"/>
       <use xlink:href="#DejaVuSans-Oblique-65" x="449.853516"/>
       <use xlink:href="#DejaVuSans-Oblique-74" x="511.376953"/>
       <use xlink:href="#DejaVuSans-Oblique-35" x="550.585938"/>
       <use xlink:href="#DejaVuSans-Oblique-30" x="614.208984"/>
      </g>
     </g>
    </g>
    <g id="ytick_13">
     <g id="line2d_18">
      <path d="M 155.13625 147.485484 
L 575.50125 147.485484 
" clip-path="url(#p30af0c1a33)" style="fill: none; stroke-dasharray: 1.85,0.8; stroke-dashoffset: 0; stroke: #cccccc; stroke-width: 0.5"/>
     </g>
     <g id="text_19">
      <!-- rnn_lstm -->
      <g style="fill: #262626" transform="translate(96.015 152.044546) scale(0.12 -0.12)">
       <use xlink:href="#DejaVuSans-Oblique-72"/>
       <use xlink:href="#DejaVuSans-Oblique-6e" x="41.113281"/>
       <use xlink:href="#DejaVuSans-Oblique-6e" x="104.492188"/>
       <use xlink:href="#DejaVuSans-Oblique-5f" x="167.871094"/>
       <use xlink:href="#DejaVuSans-Oblique-6c" x="217.871094"/>
       <use xlink:href="#DejaVuSans-Oblique-73" x="245.654297"/>
       <use xlink:href="#DejaVuSans-Oblique-74" x="297.753906"/>
       <use xlink:href="#DejaVuSans-Oblique-6d" x="336.962891"/>
      </g>
     </g>
    </g>
    <g id="ytick_14">
     <g id="line2d_19">
      <path d="M 155.13625 130.598877 
L 575.50125 130.598877 
" clip-path="url(#p30af0c1a33)" style="fill: none; stroke-dasharray: 1.85,0.8; stroke-dashoffset: 0; stroke: #cccccc; stroke-width: 0.5"/>
     </g>
     <g id="text_20">
      <!-- seq_3 -->
      <g style="fill: #262626" transform="translate(113.248125 135.052002) scale(0.12 -0.12)">
       <use xlink:href="#DejaVuSans-Oblique-73"/>
       <use xlink:href="#DejaVuSans-Oblique-65" x="52.099609"/>
       <use xlink:href="#DejaVuSans-Oblique-71" x="113.623047"/>
       <use xlink:href="#DejaVuSans-Oblique-5f" x="177.099609"/>
       <use xlink:href="#DejaVuSans-Oblique-33" x="227.099609"/>
      </g>
     </g>
    </g>
    <g id="ytick_15">
     <g id="line2d_20">
      <path d="M 155.13625 113.712271 
L 575.50125 113.712271 
" clip-path="url(#p30af0c1a33)" style="fill: none; stroke-dasharray: 1.85,0.8; stroke-dashoffset: 0; stroke: #cccccc; stroke-width: 0.5"/>
     </g>
     <g id="text_21">
      <!-- layers_1 -->
      <g style="fill: #262626" transform="translate(98.143125 118.271333) scale(0.12 -0.12)">
       <defs>
        <path id="DejaVuSans-Oblique-79" d="M 1588 -325 
Q 1188 -997 936 -1164 
Q 684 -1331 294 -1331 
L -159 -1331 
L -63 -850 
L 269 -850 
Q 509 -850 678 -719 
Q 847 -588 1056 -206 
L 1234 128 
L 459 3500 
L 1069 3500 
L 1650 819 
L 3256 3500 
L 3859 3500 
L 1588 -325 
z
" transform="scale(0.015625)"/>
       </defs>
       <use xlink:href="#DejaVuSans-Oblique-6c"/>
       <use xlink:href="#DejaVuSans-Oblique-61" x="27.783203"/>
       <use xlink:href="#DejaVuSans-Oblique-79" x="89.0625"/>
       <use xlink:href="#DejaVuSans-Oblique-65" x="148.242188"/>
       <use xlink:href="#DejaVuSans-Oblique-72" x="209.765625"/>
       <use xlink:href="#DejaVuSans-Oblique-73" x="250.878906"/>
       <use xlink:href="#DejaVuSans-Oblique-5f" x="302.978516"/>
       <use xlink:href="#DejaVuSans-Oblique-31" x="352.978516"/>
      </g>
     </g>
    </g>
    <g id="ytick_16">
     <g id="line2d_21">
      <path d="M 155.13625 96.825664 
L 575.50125 96.825664 
" clip-path="url(#p30af0c1a33)" style="fill: none; stroke-dasharray: 1.85,0.8; stroke-dashoffset: 0; stroke: #cccccc; stroke-width: 0.5"/>
     </g>
     <g id="text_22">
      <!-- units_1_300 -->
      <g style="fill: #262626" transform="translate(76.096875 101.384727) scale(0.12 -0.12)">
       <use xlink:href="#DejaVuSans-Oblique-75"/>
       <use xlink:href="#DejaVuSans-Oblique-6e" x="63.378906"/>
       <use xlink:href="#DejaVuSans-Oblique-69" x="126.757812"/>
       <use xlink:href="#DejaVuSans-Oblique-74" x="154.541016"/>
       <use xlink:href="#DejaVuSans-Oblique-73" x="193.75"/>
       <use xlink:href="#DejaVuSans-Oblique-5f" x="245.849609"/>
       <use xlink:href="#DejaVuSans-Oblique-31" x="295.849609"/>
       <use xlink:href="#DejaVuSans-Oblique-5f" x="359.472656"/>
       <use xlink:href="#DejaVuSans-Oblique-33" x="409.472656"/>
       <use xlink:href="#DejaVuSans-Oblique-30" x="473.095703"/>
       <use xlink:href="#DejaVuSans-Oblique-30" x="536.71875"/>
      </g>
     </g>
    </g>
    <g id="ytick_17">
     <g id="line2d_22">
      <path d="M 155.13625 79.939058 
L 575.50125 79.939058 
" clip-path="url(#p30af0c1a33)" style="fill: none; stroke-dasharray: 1.85,0.8; stroke-dashoffset: 0; stroke: #cccccc; stroke-width: 0.5"/>
     </g>
     <g id="text_23">
      <!-- units_0_700 -->
      <g style="fill: #262626" transform="translate(76.096875 84.49812) scale(0.12 -0.12)">
       <defs>
        <path id="DejaVuSans-Oblique-37" d="M 819 4666 
L 4013 4666 
L 3956 4397 
L 1288 0 
L 594 0 
L 3116 4134 
L 716 4134 
L 819 4666 
z
" transform="scale(0.015625)"/>
       </defs>
       <use xlink:href="#DejaVuSans-Oblique-75"/>
       <use xlink:href="#DejaVuSans-Oblique-6e" x="63.378906"/>
       <use xlink:href="#DejaVuSans-Oblique-69" x="126.757812"/>
       <use xlink:href="#DejaVuSans-Oblique-74" x="154.541016"/>
       <use xlink:href="#DejaVuSans-Oblique-73" x="193.75"/>
       <use xlink:href="#DejaVuSans-Oblique-5f" x="245.849609"/>
       <use xlink:href="#DejaVuSans-Oblique-30" x="295.849609"/>
       <use xlink:href="#DejaVuSans-Oblique-5f" x="359.472656"/>
       <use xlink:href="#DejaVuSans-Oblique-37" x="409.472656"/>
       <use xlink:href="#DejaVuSans-Oblique-30" x="473.095703"/>
       <use xlink:href="#DejaVuSans-Oblique-30" x="536.71875"/>
      </g>
     </g>
    </g>
    <g id="ytick_18">
     <g id="line2d_23">
      <path d="M 155.13625 63.052451 
L 575.50125 63.052451 
" clip-path="url(#p30af0c1a33)" style="fill: none; stroke-dasharray: 1.85,0.8; stroke-dashoffset: 0; stroke: #cccccc; stroke-width: 0.5"/>
     </g>
     <g id="text_24">
      <!-- units_0_128 -->
      <g style="fill: #262626" transform="translate(76.096875 67.611514) scale(0.12 -0.12)">
       <use xlink:href="#DejaVuSans-Oblique-75"/>
       <use xlink:href="#DejaVuSans-Oblique-6e" x="63.378906"/>
       <use xlink:href="#DejaVuSans-Oblique-69" x="126.757812"/>
       <use xlink:href="#DejaVuSans-Oblique-74" x="154.541016"/>
       <use xlink:href="#DejaVuSans-Oblique-73" x="193.75"/>
       <use xlink:href="#DejaVuSans-Oblique-5f" x="245.849609"/>
       <use xlink:href="#DejaVuSans-Oblique-30" x="295.849609"/>
       <use xlink:href="#DejaVuSans-Oblique-5f" x="359.472656"/>
       <use xlink:href="#DejaVuSans-Oblique-31" x="409.472656"/>
       <use xlink:href="#DejaVuSans-Oblique-32" x="473.095703"/>
       <use xlink:href="#DejaVuSans-Oblique-38" x="536.71875"/>
      </g>
     </g>
    </g>
    <g id="ytick_19">
     <g id="line2d_24">
      <path d="M 155.13625 46.165845 
L 575.50125 46.165845 
" clip-path="url(#p30af0c1a33)" style="fill: none; stroke-dasharray: 1.85,0.8; stroke-dashoffset: 0; stroke: #cccccc; stroke-width: 0.5"/>
     </g>
     <g id="text_25">
      <!-- units_1_0 -->
      <g style="fill: #262626" transform="translate(91.366875 50.724907) scale(0.12 -0.12)">
       <use xlink:href="#DejaVuSans-Oblique-75"/>
       <use xlink:href="#DejaVuSans-Oblique-6e" x="63.378906"/>
       <use xlink:href="#DejaVuSans-Oblique-69" x="126.757812"/>
       <use xlink:href="#DejaVuSans-Oblique-74" x="154.541016"/>
       <use xlink:href="#DejaVuSans-Oblique-73" x="193.75"/>
       <use xlink:href="#DejaVuSans-Oblique-5f" x="245.849609"/>
       <use xlink:href="#DejaVuSans-Oblique-31" x="295.849609"/>
       <use xlink:href="#DejaVuSans-Oblique-5f" x="359.472656"/>
       <use xlink:href="#DejaVuSans-Oblique-30" x="409.472656"/>
      </g>
     </g>
    </g>
    <g id="ytick_20">
     <g id="line2d_25">
      <path d="M 155.13625 29.279238 
L 575.50125 29.279238 
" clip-path="url(#p30af0c1a33)" style="fill: none; stroke-dasharray: 1.85,0.8; stroke-dashoffset: 0; stroke: #cccccc; stroke-width: 0.5"/>
     </g>
     <g id="text_26">
      <!-- units_2_0 -->
      <g style="fill: #262626" transform="translate(91.366875 33.838301) scale(0.12 -0.12)">
       <use xlink:href="#DejaVuSans-Oblique-75"/>
       <use xlink:href="#DejaVuSans-Oblique-6e" x="63.378906"/>
       <use xlink:href="#DejaVuSans-Oblique-69" x="126.757812"/>
       <use xlink:href="#DejaVuSans-Oblique-74" x="154.541016"/>
       <use xlink:href="#DejaVuSans-Oblique-73" x="193.75"/>
       <use xlink:href="#DejaVuSans-Oblique-5f" x="245.849609"/>
       <use xlink:href="#DejaVuSans-Oblique-32" x="295.849609"/>
       <use xlink:href="#DejaVuSans-Oblique-5f" x="359.472656"/>
       <use xlink:href="#DejaVuSans-Oblique-30" x="409.472656"/>
      </g>
     </g>
    </g>
   </g>
   <g id="patch_3">
    <path d="M -318005.663664 355.612909 
L 232.484714 355.612909 
L 232.484714 344.636615 
L -318005.663664 344.636615 
z
" clip-path="url(#p30af0c1a33)" style="fill: #191919; stroke: #000000; stroke-width: 0.3; stroke-linejoin: miter"/>
   </g>
   <g id="patch_4">
    <path d="M -318005.663664 338.726303 
L 237.905687 338.726303 
L 237.905687 327.750008 
L -318005.663664 327.750008 
z
" clip-path="url(#p30af0c1a33)" style="fill: #333333; stroke: #000000; stroke-width: 0.3; stroke-linejoin: miter"/>
   </g>
   <g id="patch_5">
    <path d="M -318005.663664 321.839696 
L 241.651637 321.839696 
L 241.651637 310.863402 
L -318005.663664 310.863402 
z
" clip-path="url(#p30af0c1a33)" style="fill: #4c4c4c; stroke: #000000; stroke-width: 0.3; stroke-linejoin: miter"/>
   </g>
   <g id="patch_6">
    <path d="M -318005.663664 304.95309 
L 241.651637 304.95309 
L 241.651637 293.976795 
L -318005.663664 293.976795 
z
" clip-path="url(#p30af0c1a33)" style="fill: #666666; stroke: #000000; stroke-width: 0.3; stroke-linejoin: miter"/>
   </g>
   <g id="patch_7">
    <path d="M -318005.663664 288.066483 
L 242.020708 288.066483 
L 242.020708 277.090189 
L -318005.663664 277.090189 
z
" clip-path="url(#p30af0c1a33)" style="fill: #808080; stroke: #000000; stroke-width: 0.3; stroke-linejoin: miter"/>
   </g>
   <g id="patch_8">
    <path d="M -318005.663664 271.179876 
L 243.851425 271.179876 
L 243.851425 260.203582 
L -318005.663664 260.203582 
z
" clip-path="url(#p30af0c1a33)" style="fill: #333333; stroke: #000000; stroke-width: 0.3; stroke-linejoin: miter"/>
   </g>
   <g id="patch_9">
    <path d="M -318005.663664 254.29327 
L 246.01675 254.29327 
L 246.01675 243.316976 
L -318005.663664 243.316976 
z
" clip-path="url(#p30af0c1a33)" style="fill: #999999; stroke: #000000; stroke-width: 0.3; stroke-linejoin: miter"/>
   </g>
   <g id="patch_10">
    <path d="M -318005.663664 237.406663 
L 246.374362 237.406663 
L 246.374362 226.430369 
L -318005.663664 226.430369 
z
" clip-path="url(#p30af0c1a33)" style="fill: #808080; stroke: #000000; stroke-width: 0.3; stroke-linejoin: miter"/>
   </g>
   <g id="patch_11">
    <path d="M -318005.663664 220.520057 
L 248.148675 220.520057 
L 248.148675 209.543763 
L -318005.663664 209.543763 
z
" clip-path="url(#p30af0c1a33)" style="fill: #333333; stroke: #000000; stroke-width: 0.3; stroke-linejoin: miter"/>
   </g>
   <g id="patch_12">
    <path d="M -318005.663664 203.63345 
L 255.695899 203.63345 
L 255.695899 192.657156 
L -318005.663664 192.657156 
z
" clip-path="url(#p30af0c1a33)" style="fill: #999999; stroke: #000000; stroke-width: 0.3; stroke-linejoin: miter"/>
   </g>
   <g id="patch_13">
    <path d="M -318005.663664 186.746844 
L 259.645228 186.746844 
L 259.645228 175.77055 
L -318005.663664 175.77055 
z
" clip-path="url(#p30af0c1a33)" style="fill: #4c4c4c; stroke: #000000; stroke-width: 0.3; stroke-linejoin: miter"/>
   </g>
   <g id="patch_14">
    <path d="M -318005.663664 169.860237 
L 263.484838 169.860237 
L 263.484838 158.883943 
L -318005.663664 158.883943 
z
" clip-path="url(#p30af0c1a33)" style="fill: #808080; stroke: #000000; stroke-width: 0.3; stroke-linejoin: miter"/>
   </g>
   <g id="patch_15">
    <path d="M -318005.663664 152.973631 
L 267.220662 152.973631 
L 267.220662 141.997337 
L -318005.663664 141.997337 
z
" clip-path="url(#p30af0c1a33)" style="fill: #191919; stroke: #000000; stroke-width: 0.3; stroke-linejoin: miter"/>
   </g>
   <g id="patch_16">
    <path d="M -318005.663664 136.087024 
L 271.455215 136.087024 
L 271.455215 125.11073 
L -318005.663664 125.11073 
z
" clip-path="url(#p30af0c1a33)" style="fill: #333333; stroke: #000000; stroke-width: 0.3; stroke-linejoin: miter"/>
   </g>
   <g id="patch_17">
    <path d="M -318005.663664 119.200418 
L 349.990099 119.200418 
L 349.990099 108.224124 
L -318005.663664 108.224124 
z
" clip-path="url(#p30af0c1a33)" style="fill: #b3b3b3; stroke: #000000; stroke-width: 0.3; stroke-linejoin: miter"/>
   </g>
   <g id="patch_18">
    <path d="M -318005.663664 102.313811 
L 356.74177 102.313811 
L 356.74177 91.337517 
L -318005.663664 91.337517 
z
" clip-path="url(#p30af0c1a33)" style="fill: #cccccc; stroke: #000000; stroke-width: 0.3; stroke-linejoin: miter"/>
   </g>
   <g id="patch_19">
    <path d="M -318005.663664 85.427205 
L 413.638489 85.427205 
L 413.638489 74.45091 
L -318005.663664 74.45091 
z
" clip-path="url(#p30af0c1a33)" style="fill: #666666; stroke: #000000; stroke-width: 0.3; stroke-linejoin: miter"/>
   </g>
   <g id="patch_20">
    <path d="M -318005.663664 68.540598 
L 449.540833 68.540598 
L 449.540833 57.564304 
L -318005.663664 57.564304 
z
" clip-path="url(#p30af0c1a33)" style="fill: #666666; stroke: #000000; stroke-width: 0.3; stroke-linejoin: miter"/>
   </g>
   <g id="patch_21">
    <path d="M -318005.663664 51.653992 
L 516.399714 51.653992 
L 516.399714 40.677697 
L -318005.663664 40.677697 
z
" clip-path="url(#p30af0c1a33)" style="fill: #cccccc; stroke: #000000; stroke-width: 0.3; stroke-linejoin: miter"/>
   </g>
   <g id="patch_22">
    <path d="M -318005.663664 34.767385 
L 559.167129 34.767385 
L 559.167129 23.791091 
L -318005.663664 23.791091 
z
" clip-path="url(#p30af0c1a33)" style="fill: #e6e6e6; stroke: #000000; stroke-width: 0.3; stroke-linejoin: miter"/>
   </g>
   <g id="line2d_26">
    <path d="M 250.941034 372.204 
L 250.941034 7.2 
" clip-path="url(#p30af0c1a33)" style="fill: none; stroke-dasharray: 5.55,2.4; stroke-dashoffset: 0; stroke: #000000; stroke-opacity: 0.7; stroke-width: 1.5"/>
   </g>
   <g id="legend_1">
    <g id="patch_23">
     <path d="M 59.137344 416.982881 
L 77.137344 416.982881 
L 77.137344 410.682881 
L 59.137344 410.682881 
z
" style="fill: #191919; stroke: #191919; stroke-linejoin: miter"/>
    </g>
    <g id="text_27">
     <!-- Rnn -->
     <g style="fill: #262626" transform="translate(84.337344 416.982881) scale(0.09 -0.09)">
      <use xlink:href="#DejaVuSans-Oblique-52"/>
      <use xlink:href="#DejaVuSans-Oblique-6e" x="69.482422"/>
      <use xlink:href="#DejaVuSans-Oblique-6e" x="132.861328"/>
     </g>
    </g>
    <g id="patch_24">
     <path d="M 119.998437 416.982881 
L 137.998437 416.982881 
L 137.998437 410.682881 
L 119.998437 410.682881 
z
" style="fill: #333333; stroke: #333333; stroke-linejoin: miter"/>
    </g>
    <g id="text_28">
     <!-- Seq -->
     <g style="fill: #262626" transform="translate(145.198437 416.982881) scale(0.09 -0.09)">
      <defs>
       <path id="DejaVuSans-Oblique-53" d="M 3859 4513 
L 3738 3897 
Q 3422 4066 3111 4152 
Q 2800 4238 2509 4238 
Q 1944 4238 1609 3991 
Q 1275 3744 1275 3334 
Q 1275 3109 1398 2989 
Q 1522 2869 2034 2731 
L 2413 2638 
Q 3053 2472 3303 2217 
Q 3553 1963 3553 1503 
Q 3553 797 2998 353 
Q 2444 -91 1538 -91 
Q 1166 -91 791 -17 
Q 416 56 38 206 
L 166 856 
Q 513 641 861 531 
Q 1209 422 1556 422 
Q 2147 422 2503 684 
Q 2859 947 2859 1369 
Q 2859 1650 2717 1795 
Q 2575 1941 2106 2059 
L 1728 2156 
Q 1081 2325 845 2545 
Q 609 2766 609 3163 
Q 609 3859 1145 4304 
Q 1681 4750 2541 4750 
Q 2875 4750 3203 4690 
Q 3531 4631 3859 4513 
z
" transform="scale(0.015625)"/>
      </defs>
      <use xlink:href="#DejaVuSans-Oblique-53"/>
      <use xlink:href="#DejaVuSans-Oblique-65" x="63.476562"/>
      <use xlink:href="#DejaVuSans-Oblique-71" x="125"/>
     </g>
    </g>
    <g id="patch_25">
     <path d="M 180.163437 416.982881 
L 198.163437 416.982881 
L 198.163437 410.682881 
L 180.163437 410.682881 
z
" style="fill: #4c4c4c; stroke: #4c4c4c; stroke-linejoin: miter"/>
    </g>
    <g id="text_29">
     <!-- Direction -->
     <g style="fill: #262626" transform="translate(205.363437 416.982881) scale(0.09 -0.09)">
      <defs>
       <path id="DejaVuSans-Oblique-44" d="M 1081 4666 
L 2438 4666 
Q 3519 4666 4070 4208 
Q 4622 3750 4622 2847 
Q 4622 2250 4412 1698 
Q 4203 1147 3834 769 
Q 3463 381 2891 190 
Q 2319 0 1538 0 
L 172 0 
L 1081 4666 
z
M 1613 4147 
L 909 519 
L 1734 519 
Q 2794 519 3375 1128 
Q 3956 1738 3956 2847 
Q 3956 3519 3581 3833 
Q 3206 4147 2406 4147 
L 1613 4147 
z
" transform="scale(0.015625)"/>
      </defs>
      <use xlink:href="#DejaVuSans-Oblique-44"/>
      <use xlink:href="#DejaVuSans-Oblique-69" x="77.001953"/>
      <use xlink:href="#DejaVuSans-Oblique-72" x="104.785156"/>
      <use xlink:href="#DejaVuSans-Oblique-65" x="145.898438"/>
      <use xlink:href="#DejaVuSans-Oblique-63" x="207.421875"/>
      <use xlink:href="#DejaVuSans-Oblique-74" x="262.402344"/>
      <use xlink:href="#DejaVuSans-Oblique-69" x="301.611328"/>
      <use xlink:href="#DejaVuSans-Oblique-6f" x="329.394531"/>
      <use xlink:href="#DejaVuSans-Oblique-6e" x="390.576172"/>
     </g>
    </g>
    <g id="patch_26">
     <path d="M 264.219219 416.982881 
L 282.219219 416.982881 
L 282.219219 410.682881 
L 264.219219 410.682881 
z
" style="fill: #666666; stroke: #666666; stroke-linejoin: miter"/>
    </g>
    <g id="text_30">
     <!-- Units 0 -->
     <g style="fill: #262626" transform="translate(289.419219 416.982881) scale(0.09 -0.09)">
      <defs>
       <path id="DejaVuSans-Oblique-55" d="M 991 4666 
L 1625 4666 
L 1075 1831 
Q 1041 1641 1027 1517 
Q 1013 1394 1013 1300 
Q 1013 869 1253 645 
Q 1494 422 1959 422 
Q 2563 422 2898 753 
Q 3234 1084 3378 1831 
L 3928 4666 
L 4563 4666 
L 4000 1753 
Q 3816 809 3300 359 
Q 2784 -91 1888 -91 
Q 1188 -91 780 261 
Q 372 613 372 1216 
Q 372 1325 387 1461 
Q 403 1597 434 1753 
L 991 4666 
z
" transform="scale(0.015625)"/>
      </defs>
      <use xlink:href="#DejaVuSans-Oblique-55"/>
      <use xlink:href="#DejaVuSans-Oblique-6e" x="73.193359"/>
      <use xlink:href="#DejaVuSans-Oblique-69" x="136.572266"/>
      <use xlink:href="#DejaVuSans-Oblique-74" x="164.355469"/>
      <use xlink:href="#DejaVuSans-Oblique-73" x="203.564453"/>
      <use xlink:href="#DejaVuSans-Oblique-20" x="255.664062"/>
      <use xlink:href="#DejaVuSans-Oblique-30" x="287.451172"/>
     </g>
    </g>
    <g id="patch_27">
     <path d="M 339.013437 416.982881 
L 357.013437 416.982881 
L 357.013437 410.682881 
L 339.013437 410.682881 
z
" style="fill: #808080; stroke: #808080; stroke-linejoin: miter"/>
    </g>
    <g id="text_31">
     <!-- Cnn -->
     <g style="fill: #262626" transform="translate(364.213437 416.982881) scale(0.09 -0.09)">
      <defs>
       <path id="DejaVuSans-Oblique-43" d="M 4447 4306 
L 4319 3641 
Q 4019 3944 3683 4091 
Q 3347 4238 2956 4238 
Q 2422 4238 2017 3981 
Q 1613 3725 1319 3200 
Q 1131 2863 1032 2486 
Q 934 2109 934 1728 
Q 934 1091 1264 756 
Q 1594 422 2222 422 
Q 2656 422 3056 561 
Q 3456 700 3834 978 
L 3688 231 
Q 3316 72 2936 -9 
Q 2556 -91 2175 -91 
Q 1278 -91 773 396 
Q 269 884 269 1753 
Q 269 2309 461 2846 
Q 653 3384 1013 3828 
Q 1394 4300 1883 4525 
Q 2372 4750 3022 4750 
Q 3422 4750 3780 4639 
Q 4138 4528 4447 4306 
z
" transform="scale(0.015625)"/>
      </defs>
      <use xlink:href="#DejaVuSans-Oblique-43"/>
      <use xlink:href="#DejaVuSans-Oblique-6e" x="69.824219"/>
      <use xlink:href="#DejaVuSans-Oblique-6e" x="133.203125"/>
     </g>
    </g>
    <g id="patch_28">
     <path d="M 399.905469 416.982881 
L 417.905469 416.982881 
L 417.905469 410.682881 
L 399.905469 410.682881 
z
" style="fill: #999999; stroke: #999999; stroke-linejoin: miter"/>
    </g>
    <g id="text_32">
     <!-- State -->
     <g style="fill: #262626" transform="translate(425.105469 416.982881) scale(0.09 -0.09)">
      <use xlink:href="#DejaVuSans-Oblique-53"/>
      <use xlink:href="#DejaVuSans-Oblique-74" x="63.476562"/>
      <use xlink:href="#DejaVuSans-Oblique-61" x="102.685547"/>
      <use xlink:href="#DejaVuSans-Oblique-74" x="163.964844"/>
      <use xlink:href="#DejaVuSans-Oblique-65" x="203.173828"/>
     </g>
    </g>
    <g id="patch_29">
     <path d="M 466.92875 416.982881 
L 484.92875 416.982881 
L 484.92875 410.682881 
L 466.92875 410.682881 
z
" style="fill: #b3b3b3; stroke: #b3b3b3; stroke-linejoin: miter"/>
    </g>
    <g id="text_33">
     <!-- Layers -->
     <g style="fill: #262626" transform="translate(492.12875 416.982881) scale(0.09 -0.09)">
      <defs>
       <path id="DejaVuSans-Oblique-4c" d="M 1075 4666 
L 1709 4666 
L 909 525 
L 3181 525 
L 3078 0 
L 172 0 
L 1075 4666 
z
" transform="scale(0.015625)"/>
      </defs>
      <use xlink:href="#DejaVuSans-Oblique-4c"/>
      <use xlink:href="#DejaVuSans-Oblique-61" x="55.712891"/>
      <use xlink:href="#DejaVuSans-Oblique-79" x="116.992188"/>
      <use xlink:href="#DejaVuSans-Oblique-65" x="176.171875"/>
      <use xlink:href="#DejaVuSans-Oblique-72" x="237.695312"/>
      <use xlink:href="#DejaVuSans-Oblique-73" x="278.808594"/>
     </g>
    </g>
    <g id="patch_30">
     <path d="M 539.911719 416.982881 
L 557.911719 416.982881 
L 557.911719 410.682881 
L 539.911719 410.682881 
z
" style="fill: #cccccc; stroke: #cccccc; stroke-linejoin: miter"/>
    </g>
    <g id="text_34">
     <!-- Units 1 -->
     <g style="fill: #262626" transform="translate(565.111719 416.982881) scale(0.09 -0.09)">
      <use xlink:href="#DejaVuSans-Oblique-55"/>
      <use xlink:href="#DejaVuSans-Oblique-6e" x="73.193359"/>
      <use xlink:href="#DejaVuSans-Oblique-69" x="136.572266"/>
      <use xlink:href="#DejaVuSans-Oblique-74" x="164.355469"/>
      <use xlink:href="#DejaVuSans-Oblique-73" x="203.564453"/>
      <use xlink:href="#DejaVuSans-Oblique-20" x="255.664062"/>
      <use xlink:href="#DejaVuSans-Oblique-31" x="287.451172"/>
     </g>
    </g>
    <g id="patch_31">
     <path d="M 614.705937 416.982881 
L 632.705937 416.982881 
L 632.705937 410.682881 
L 614.705937 410.682881 
z
" style="fill: #e6e6e6; stroke: #e6e6e6; stroke-linejoin: miter"/>
    </g>
    <g id="text_35">
     <!-- Units 2 -->
     <g style="fill: #262626" transform="translate(639.905937 416.982881) scale(0.09 -0.09)">
      <use xlink:href="#DejaVuSans-Oblique-55"/>
      <use xlink:href="#DejaVuSans-Oblique-6e" x="73.193359"/>
      <use xlink:href="#DejaVuSans-Oblique-69" x="136.572266"/>
      <use xlink:href="#DejaVuSans-Oblique-74" x="164.355469"/>
      <use xlink:href="#DejaVuSans-Oblique-73" x="203.564453"/>
      <use xlink:href="#DejaVuSans-Oblique-20" x="255.664062"/>
      <use xlink:href="#DejaVuSans-Oblique-32" x="287.451172"/>
     </g>
    </g>
   </g>
  </g>
 </g>
 <defs>
  <clipPath id="p30af0c1a33">
   <rect x="155.13625" y="7.2" width="420.365" height="365.004"/>
  </clipPath>
 </defs>
</svg>
